<svg xmlns="http://www.w3.org/2000/svg" xmlns:xlink="http://www.w3.org/1999/xlink" width="510" height="80" viewBox="0 0 510 80">
  <defs>
    <clipPath id="clip-path">
      <rect id="Rectangle_Copy_2" data-name="Rectangle Copy 2" width="510" height="80" rx="40" fill="#4e67ff"/>
    </clipPath>
  </defs>
  <g id="Group_43" data-name="Group 43" clip-path="url(#clip-path)">
    <path id="Fill_4" data-name="Fill 4" d="M2.8,91.926,0,21.58q25.207,10.844,66.275,5.8c17.249-2.12,31.07,4.763,46.138,13.884l2.162,1.317,2.182,1.343,5.561,3.444,2.275,1.4c17.951,11,39,22.58,69.684,25.265,29.383,2.571,43.546-7.623,56.5-19.065l1.722-1.532,4.291-3.855c13.784-12.322,28.678-24.027,61.689-21.139l.954.081,1.9.15,1.888.131c29.8,1.934,55.639-3.129,96.7-23.044Q463.146-15.2,537.673,40.135L538,91.926Z" transform="translate(-8.826 20.648)" fill="#00e2d5" opacity="0.353"/>
    <rect id="Rectangle" width="245" height="68" rx="34" transform="translate(6 6)" fill="#fff"/>
    <path id="Combined_Shape" data-name="Combined Shape" d="M8.089,24.76A44.487,44.487,0,0,1,1.3,17.454c-.205-.269-.588-.832-.679-.968L0,15.572l.617-.914.026-.039c.3-.444.521-.756.652-.928A44.442,44.442,0,0,1,8.089,6.384c4.181-3.477,8.452-5.24,12.691-5.24,4.042,0,8.112,1.6,12.106,4.765a8.8,8.8,0,1,1,7.253,11.709,44.018,44.018,0,0,1-6.668,7.142C29.29,28.237,25.019,30,20.78,30S12.271,28.237,8.089,24.76ZM3.948,15.572C9.627,22.982,15.29,26.739,20.78,26.739c5.242,0,10.642-3.426,16.062-10.185a8.767,8.767,0,0,1-4.424-6.746C28.49,6.218,24.593,4.4,20.78,4.4,15.291,4.4,9.627,8.162,3.948,15.572Zm33.3-8.4-.767.767a.642.642,0,0,0,0,.905l3.1,3.1.76.76a.64.64,0,0,0,.9,0l6.016-6.016a.641.641,0,0,0,0-.905L46.5,5.021a.642.642,0,0,0-.906,0l-4.8,4.8L38.155,7.169a.642.642,0,0,0-.906,0Zm-25.717,8.4a9.248,9.248,0,1,1,9.247,9.292A9.281,9.281,0,0,1,11.532,15.572Zm3.245,0a6,6,0,1,0,6-6.032A6.025,6.025,0,0,0,14.776,15.572Zm2.84,0a3.164,3.164,0,1,1,3.163,3.18A3.171,3.171,0,0,1,17.617,15.572Z" transform="translate(20 27)" fill="#4e67ff"/>
    <path id="Combined_Shape_Copy" data-name="Combined Shape Copy" d="M7.98,22.916a43.368,43.368,0,0,1-6.7-7.09c-.219-.282-.62-.866-.67-.939L0,14l.608-.887.032-.046c.111-.16.446-.644.638-.892a43.407,43.407,0,0,1,6.7-7.089C12.105,1.711,16.317,0,20.5,0s8.394,1.711,12.519,5.085a43.454,43.454,0,0,1,6.7,7.081l.006.008c.192.248.527.732.637.891l.032.047L41,14l-.608.887-.009.014c-.292.424-.526.752-.661.925l-.006.008a43.454,43.454,0,0,1-6.7,7.081C28.895,26.289,24.683,28,20.5,28S12.105,26.289,7.98,22.916ZM3.9,14C9.5,21.191,15.084,24.836,20.5,24.836S31.5,21.191,37.1,14C31.5,6.81,25.916,3.164,20.5,3.164S9.5,6.809,3.9,14Zm7.482,0A9.124,9.124,0,1,1,20.5,23.017,9.08,9.08,0,0,1,11.377,14Zm3.2,0A5.922,5.922,0,1,0,20.5,8.147,5.895,5.895,0,0,0,14.578,14Zm2.8,0A3.121,3.121,0,1,1,20.5,17.085,3.1,3.1,0,0,1,17.379,14Z" transform="translate(301 28)" fill="#fff"/>
    <text id="Buy_Cheap_Views" data-name="Buy Cheap Views" transform="translate(415.5 44)" fill="#fff" font-size="15" font-family="SegoeUI, Segoe UI"><tspan x="-56.316" y="0">Buy Cheap Views</tspan></text>
  </g>
</svg>
