<svg xmlns="http://www.w3.org/2000/svg" xmlns:xlink="http://www.w3.org/1999/xlink" width="130" height="118" viewBox="0 0 130 118">
  <defs>
    <clipPath id="clip-path">
      <path id="Path" d="M107.533,12.932c7.919,9.419,8.98,24.458,13.389,40.239,4.327,15.782,12,32.39,7.919,44.453s-19.92,19.583-34.37,20.326c-14.532.661-27.675-5.453-41.88-10.08-14.205-4.544-29.635-7.519-39.758-17.434C2.628,80.6-2.352,63.83,1.077,49.37c3.51-14.542,15.348-26.689,28.247-35.282S56.183.538,70.47.042C84.838-.454,99.614,3.43,107.533,12.932Z" fill="#01b6d8"/>
    </clipPath>
    <linearGradient id="linear-gradient" x1="0.222" y1="0.5" x2="0.596" y2="-0.048" gradientUnits="objectBoundingBox">
      <stop offset="0" stop-color="#324def" stop-opacity="0"/>
      <stop offset="1" stop-opacity="0.227"/>
    </linearGradient>
  </defs>
  <g id="Group_10" data-name="Group 10" transform="translate(0 0)">
    <g id="Oval_2" data-name="Oval 2">
      <path id="Path-2" data-name="Path" d="M107.533,12.932c7.919,9.419,8.98,24.458,13.389,40.239,4.327,15.782,12,32.39,7.919,44.453s-19.92,19.583-34.37,20.326c-14.532.661-27.675-5.453-41.88-10.08-14.205-4.544-29.635-7.519-39.758-17.434C2.628,80.6-2.352,63.83,1.077,49.37c3.51-14.542,15.348-26.689,28.247-35.282S56.183.538,70.47.042C84.838-.454,99.614,3.43,107.533,12.932Z" fill="#01b6d8"/>
      <g id="Oval_2-2" data-name="Oval 2" clip-path="url(#clip-path)">
        <path id="Path-3" data-name="Path" d="M140.258,98.262C144.195,82.188,154.4,67.2,153.217,54.047c-1.129-12.828-13.128-23.86-26.156-34.372L124.8,17.862C111.816,7.53,98.113-1.945,85.492.345,72.408,2.688,60.535,17.622,46.763,26.99,33.019,36.331,17.375,40.105,11,49.646c-6.4,9.567-3.525,24.9-5.717,42.773C3.1,110.346-4.108,130.814,3.192,140.163c7.353,9.349,29.209,7.579,46.351,7.623,16.724.042,28.936,1.785,42.915,2.241l2.551.073c14.046.336,29.587-.852,36.439-9.623C138.544,131.446,136.267,114.336,140.258,98.262Z" transform="translate(25 14)" fill="url(#linear-gradient)"/>
      </g>
    </g>
    <path id="Quality" d="M23.573,47.805,13.5,36.3a.572.572,0,0,1,.053-.806.571.571,0,0,1,.806.054l7.274,8.306.652-.358L15.766,21.243H1.831l3.135,3.579a.571.571,0,0,1-.859.753L.141,21.048a.576.576,0,0,1-.091-.613.567.567,0,0,1,.059-.1l.009-.014L7.94,8.449a.57.57,0,0,1,.477-.257h31.2a.569.569,0,0,1,.478.258l7.808,11.908a.574.574,0,0,1-.048.69l-7.305,8.344a.571.571,0,1,1-.86-.752l6.476-7.4H32.24L25.723,43.494l.652.358L34.3,34.8a.571.571,0,1,1,.86.752L24.432,47.805a.572.572,0,0,1-.86,0ZM24,45.3l7.045-24.058H16.957Zm8.866-25.2h13.5L39.62,9.806Zm-15.617,0h13.5L24,9.806Zm-15.619,0H15.168L8.416,9.8Zm30.179-.471,6.751-10.3h-13.5Zm-15.6-.024L22.945,9.335H9.474ZM8.61,37.125a4.842,4.842,0,0,0-4.836-4.837.571.571,0,1,1,0-1.142A4.842,4.842,0,0,0,8.61,26.309a.572.572,0,0,1,1.143,0,4.842,4.842,0,0,0,4.836,4.837.571.571,0,1,1,0,1.142,4.842,4.842,0,0,0-4.836,4.837.572.572,0,0,1-1.143,0Zm.248-7.672a6.034,6.034,0,0,1-1.94,1.94l-.522.323.522.324a6.061,6.061,0,0,1,1.94,1.94l.324.522.324-.522a6.07,6.07,0,0,1,1.939-1.94l.522-.323-.522-.324a6.052,6.052,0,0,1-1.939-1.94l-.324-.521ZM36.9,32.638a.57.57,0,1,1,.4.167A.575.575,0,0,1,36.9,32.638ZM43.049,8.191a3.242,3.242,0,0,0-3.238-3.238.572.572,0,0,1,0-1.143A3.242,3.242,0,0,0,43.049.572a.571.571,0,1,1,1.142,0A3.242,3.242,0,0,0,47.429,3.81a.572.572,0,1,1,0,1.143,3.242,3.242,0,0,0-3.238,3.238.571.571,0,0,1-1.142,0ZM43.315,3.2a4.424,4.424,0,0,1-.879.879l-.406.305.406.3a4.424,4.424,0,0,1,.879.879l.3.406.305-.406a4.424,4.424,0,0,1,.879-.879l.4-.3-.4-.305a4.424,4.424,0,0,1-.879-.879l-.305-.4Z" transform="translate(41 35)" fill="#fff"/>
  </g>
</svg>
