<svg xmlns="http://www.w3.org/2000/svg" xmlns:xlink="http://www.w3.org/1999/xlink" width="124" height="122" viewBox="0 0 124 122">
  <defs>
    <clipPath id="clip-path">
      <path id="Path" d="M92.6,23.9c11.354,8.372,26.71,13.18,30.467,21.966,3.676,8.786-4.166,21.469-11.272,35.312s-13.4,28.846-24.913,35.809c-11.435,7.046-28.016,6.051-43.536.829C27.9,112.592,13.529,103.059,6.1,89.714-1.255,76.285-1.745,59.044,3.482,45.2,8.71,31.275,19.573,20.831,31.009,12.459,42.526,4.087,54.533-2.13,64.253.688S81.324,15.526,92.6,23.9Z" fill="#4e67ff"/>
    </clipPath>
    <linearGradient id="linear-gradient" x1="0.462" y1="0.742" x2="0.869" y2="0.435" gradientUnits="objectBoundingBox">
      <stop offset="0" stop-color="#324def" stop-opacity="0"/>
      <stop offset="1" stop-opacity="0.412"/>
    </linearGradient>
  </defs>
  <g id="Group_8" data-name="Group 8" transform="translate(0 0)">
    <g id="Oval_2" data-name="Oval 2">
      <path id="Path-2" data-name="Path" d="M92.6,23.9c11.354,8.372,26.71,13.18,30.467,21.966,3.676,8.786-4.166,21.469-11.272,35.312s-13.4,28.846-24.913,35.809c-11.435,7.046-28.016,6.051-43.536.829C27.9,112.592,13.529,103.059,6.1,89.714-1.255,76.285-1.745,59.044,3.482,45.2,8.71,31.275,19.573,20.831,31.009,12.459,42.526,4.087,54.533-2.13,64.253.688S81.324,15.526,92.6,23.9Z" fill="#4e67ff"/>
      <g id="Oval_2-2" data-name="Oval 2" clip-path="url(#clip-path)">
        <path id="Path-3" data-name="Path" d="M120.811,22.651c13.5,8.188,30.492,11.412,38.57,21.085,8.078,9.637,7.2,25.686,5.422,41.953s-4.476,32.751-14.882,39.961c-10.407,7.246-28.491,5.181-44.1,8.152-15.573,2.971-28.673,10.977-39.407,8.84-10.77-2.138-19.176-14.419-32.711-25C20.129,107.029,1.463,98.08.08,86.849c-1.346-11.267,14.591-24.817,26.126-36.41S44.872,29.245,54.332,19.246C63.756,9.21,75.473-1.224,86.389.117,97.268,1.421,107.275,14.5,120.811,22.651Z" transform="translate(177 186) rotate(180)" opacity="0.583" fill="url(#linear-gradient)"/>
      </g>
    </g>
    <path id="Real_Time" data-name="Real Time" d="M29.475,44.123H13.463a.9.9,0,1,1,0-1.792H26.077A22.93,22.93,0,0,1,15.385,23,22.7,22.7,0,0,1,19.1,10.534a.914.914,0,0,1,1.256-.266.888.888,0,0,1,.27,1.238A20.934,20.934,0,0,0,17.2,23a21.493,21.493,0,0,0,42.981,0A21.374,21.374,0,0,0,38.693,1.793,21.669,21.669,0,0,0,22.759,8.769a.916.916,0,0,1-1.283.063.889.889,0,0,1-.064-1.266,23.208,23.208,0,0,1,4.658-3.9H13.463a.9.9,0,1,1,0-1.792H29.488A23.566,23.566,0,0,1,38.693,0,23.181,23.181,0,0,1,62,23,23.181,23.181,0,0,1,38.693,46,23.438,23.438,0,0,1,29.475,44.123Zm8.31-2.858V39.9a.908.908,0,0,1,1.816,0v1.368a.908.908,0,0,1-1.816,0ZM4.707,37.553a.9.9,0,1,1,0-1.792h9.579a.9.9,0,1,1,0,1.792Zm5.467-6.107a.9.9,0,1,1,0-1.793h3.784a.9.9,0,1,1,0,1.793ZM.908,27.024a.9.9,0,1,1,0-1.793h9.266a.9.9,0,1,1,0,1.793Zm55-3.128a.9.9,0,1,1,0-1.792h1.386a.9.9,0,1,1,0,1.792Zm-17.215,0a.9.9,0,0,1-.908-.9V15.449a.908.908,0,0,1,1.816,0V22.1h3.067a.9.9,0,1,1,0,1.792Zm-18.785,0a.9.9,0,1,1,0-1.792h1.387a.9.9,0,1,1,0,1.792Zm-19-3.128a.9.9,0,1,1,0-1.792h9.266a.9.9,0,1,1,0,1.792Zm9.266-4.423a.9.9,0,1,1,0-1.792h3.784a.9.9,0,1,1,0,1.792ZM4.707,10.238a.9.9,0,1,1,0-1.792h9.579a.9.9,0,1,1,0,1.792ZM37.785,6.264V4.9a.908.908,0,0,1,1.816,0V6.264a.908.908,0,0,1-1.816,0Z" transform="translate(31 38)" fill="#fff"/>
  </g>
</svg>
