<svg id="Group_11" data-name="Group 11" xmlns="http://www.w3.org/2000/svg" xmlns:xlink="http://www.w3.org/1999/xlink" width="134" height="118" viewBox="0 0 134 118">
  <defs>
    <clipPath id="clip-path">
      <path id="Path" d="M106.517.852c11.275,2.124,22.468,8.658,26.063,18.377,3.595,9.8-.49,22.788-2.86,34.467-2.288,11.6-2.86,21.971-5.392,33.569-2.451,11.516-7.026,24.34-15.932,28.75-8.987,4.411-22.3.327-34.723-1.307-12.5-1.634-23.939-.817-31.537-5.962C34.456,103.6,30.7,92.493,23.018,82.528c-7.68-9.883-19.282-18.7-22.223-29.24S3.409,30.5,11.988,22.006c8.5-8.494,19.854-13.313,30.393-15.764C53,3.71,62.888,3.547,73.428,2.322S95.242-1.272,106.517.852Z" fill="#52e5b0"/>
    </clipPath>
    <linearGradient id="linear-gradient" x1="0.229" y1="0.686" x2="0.83" y2="0.901" gradientUnits="objectBoundingBox">
      <stop offset="0" stop-color="#324def" stop-opacity="0"/>
      <stop offset="1" stop-opacity="0.227"/>
    </linearGradient>
  </defs>
  <g id="Oval_2" data-name="Oval 2">
    <path id="Path-2" data-name="Path" d="M106.517.852c11.275,2.124,22.468,8.658,26.063,18.377,3.595,9.8-.49,22.788-2.86,34.467-2.288,11.6-2.86,21.971-5.392,33.569-2.451,11.516-7.026,24.34-15.932,28.75-8.987,4.411-22.3.327-34.723-1.307-12.5-1.634-23.939-.817-31.537-5.962C34.456,103.6,30.7,92.493,23.018,82.528c-7.68-9.883-19.282-18.7-22.223-29.24S3.409,30.5,11.988,22.006c8.5-8.494,19.854-13.313,30.393-15.764C53,3.71,62.888,3.547,73.428,2.322S95.242-1.272,106.517.852Z" fill="#52e5b0"/>
    <g id="Oval_2-2" data-name="Oval 2" clip-path="url(#clip-path)">
      <path id="Path-3" data-name="Path" d="M120.811,22.651c13.5,8.188,30.492,11.412,38.57,21.085,8.078,9.637,7.2,25.686,5.422,41.953s-4.476,32.751-14.882,39.961c-10.407,7.246-28.491,5.181-44.1,8.152-15.573,2.971-28.673,10.977-39.407,8.84-10.77-2.138-19.176-14.419-32.711-25C20.129,107.029,1.463,98.08.08,86.849c-1.346-11.267,14.591-24.817,26.126-36.41S44.872,29.245,54.332,19.246C63.756,9.21,75.473-1.224,86.389.117,97.268,1.421,107.275,14.5,120.811,22.651Z" transform="translate(-57 45)" opacity="0.609" fill="url(#linear-gradient)"/>
    </g>
  </g>
  <path id="Money_Back" data-name="Money Back" d="M12.673,41.483a1.1,1.1,0,0,1-.443-.733,1.073,1.073,0,0,1,.221-.82l1.289-1.649a1.135,1.135,0,0,1,1.548-.215,19.282,19.282,0,0,0,24.793-1.849,18.436,18.436,0,0,0,5.569-13.265,18.93,18.93,0,0,0-19-18.678H26.6A19.264,19.264,0,0,0,11.349,11.8a.742.742,0,0,1-1.026.144.713.713,0,0,1-.147-1.008A20.615,20.615,0,0,1,26.6,2.835h.053A20.385,20.385,0,0,1,47.116,22.949a19.855,19.855,0,0,1-6,14.286A20.772,20.772,0,0,1,14.7,39.424l-.865,1.106a22.226,22.226,0,0,0,28.281-2.285,21.3,21.3,0,0,0,.054-30.437c-.5-.495-1.029-.971-1.571-1.414a.712.712,0,0,1-.1-1.014.741.741,0,0,1,1.031-.094c.579.472,1.142.98,1.675,1.507a22.853,22.853,0,0,1,5.032,7.441,22.7,22.7,0,0,1-5.09,25.029,23.707,23.707,0,0,1-30.474,2.219Zm8.673-7.468a.721.721,0,1,1,0-1.441H35.7a3.671,3.671,0,0,0,2.588-1.056,3.545,3.545,0,0,0,1.074-2.545v-.849H33.528a3.365,3.365,0,0,1-3.389-3.331v-.96A3.364,3.364,0,0,1,33.528,20.5h5.835V18.16a3.636,3.636,0,0,0-3.663-3.6H14.756a.242.242,0,0,0-.244.24V32.334a.242.242,0,0,0,.244.239h3.368a.721.721,0,1,1,0,1.441H14.756a1.7,1.7,0,0,1-1.709-1.68V14.8a1.7,1.7,0,0,1,1.709-1.68h2.713L19.5,9.2a1.94,1.94,0,0,1,2.583-.823l9.454,4.743H35.7a5.09,5.09,0,0,1,5.128,5.041V28.974A5.091,5.091,0,0,1,35.7,34.015ZM31.6,23.833v.96a1.91,1.91,0,0,0,1.924,1.891h5.835V21.942H33.528A1.91,1.91,0,0,0,31.6,23.833ZM20.809,9.854l-1.7,3.265h9.2l-6.9-3.46a.46.46,0,0,0-.612.2ZM4.3,25.5.335,21.967a.991.991,0,0,1-.07-1.418l1.55-1.68A1.035,1.035,0,0,1,3.257,18.8l.287.256a22.573,22.573,0,0,1,6.512-12.32,23.327,23.327,0,0,1,7.553-4.973A23.624,23.624,0,0,1,26.52,0h.08A23.626,23.626,0,0,1,38.669,3.285a.713.713,0,0,1,.248.989.74.74,0,0,1-1.005.244A22.149,22.149,0,0,0,26.6,1.44h-.076A21.987,21.987,0,0,0,11.093,7.755,21.143,21.143,0,0,0,4.805,20.584a.724.724,0,0,1-.469.594.743.743,0,0,1-.752-.14L2.6,20.161l-.953,1.033,3.444,3.072L9.275,21.83l-.723-1.2-1.223.713a.744.744,0,0,1-.773-.015.717.717,0,0,1-.328-.688A19.725,19.725,0,0,1,8.3,13.907a.739.739,0,0,1,.985-.317.714.714,0,0,1,.321.968,18.371,18.371,0,0,0-1.679,4.764l.265-.155a1.033,1.033,0,0,1,.774-.109,1.013,1.013,0,0,1,.626.462l1.176,1.95a1,1,0,0,1-.358,1.375L5.62,25.634A1.127,1.127,0,0,1,4.3,25.5Z" transform="translate(42 36)" fill="#fff"/>
</svg>
