<?xml version="1.0" encoding="UTF-8"?>
<svg width="272px" height="66px" viewBox="0 0 272 66" version="1.1" xmlns="http://www.w3.org/2000/svg" xmlns:xlink="http://www.w3.org/1999/xlink">
    <title>Group 30</title>
    <defs>
        <polygon id="path-1" points="0 65.227115 271.531099 65.227115 271.531099 0 0 0"></polygon>
    </defs>
    <g id="Page-1" stroke="none" stroke-width="1" fill="none" fill-rule="evenodd">
        <g id="Home-" transform="translate(-20.000000, -20.000000)">
            <g id="Group-30" transform="translate(20.000000, 20.000000)">
                <path d="M87.4968013,41.0256529 C88.2578412,41.0256529 88.8867212,40.9623729 89.3840012,40.8358129 C89.8796011,40.7092529 90.2783211,40.5356529 90.5779211,40.3155729 C90.878081,40.0971729 91.085841,39.8367729 91.201761,39.537173 C91.317121,39.237013 91.374801,38.902133 91.374801,38.533093 C91.374801,37.7479731 91.005761,37.0955732 90.2665611,36.5764532 C89.5279211,36.0573332 88.2578412,35.4973333 86.4580014,34.8970133 C85.6728814,34.6203733 84.8877615,34.3028534 84.1032016,33.9444534 C83.3180816,33.5871734 82.6147217,33.1374935 81.9908817,32.5937335 C81.3681618,32.0522135 80.8596818,31.3947736 80.4676818,30.6208537 C80.0745619,29.8474937 79.8785619,28.9061338 79.8785619,27.7990139 C79.8785619,26.690774 80.0868819,25.692294 80.5024018,24.8035741 C80.9173618,23.9148542 81.5064818,23.1588542 82.2686417,22.5355743 C83.0296816,21.9122943 83.9525616,21.4334944 85.0384015,21.0986144 C86.1225614,20.7637344 87.3461613,20.5968544 88.7086412,20.5968544 C90.3236811,20.5968544 91.720881,20.7698944 92.8985609,21.1159744 C94.0756808,21.4620544 95.0450407,21.8428543 95.8072007,22.2583743 L94.2487208,26.517734 C93.5789608,26.171094 92.8347209,25.865334 92.0154409,25.599894 C91.196161,25.3344541 90.2088811,25.2011741 89.0547212,25.2011741 C87.7622413,25.2011741 86.8326413,25.3809341 86.2676014,25.738214 C85.7020014,26.096614 85.4197615,26.644294 85.4197615,27.3829339 C85.4197615,27.8219739 85.5233614,28.1915738 85.7311214,28.4911738 C85.9388814,28.7913338 86.2328814,29.0623738 86.6136814,29.3048538 C86.9950413,29.5473337 87.4329613,29.7668537 87.9291213,29.9622937 C88.4252812,30.1588537 88.9740812,30.3610137 89.5744011,30.5687737 C90.820961,31.0307736 91.905121,31.4866136 92.8285609,31.9362936 C93.7520008,32.3870935 94.5203208,32.9118135 95.1312807,33.5115734 C95.7428007,34.1118934 96.1992006,34.8163733 96.4999206,35.6238933 C96.7989606,36.4325332 96.9496006,37.4130931 96.9496006,38.566693 C96.9496006,40.8066929 96.1644806,42.5438127 94.5948008,43.7786126 C93.0251209,45.0134126 90.6591211,45.6310925 87.4968013,45.6310925 C86.4350414,45.6310925 85.4768814,45.5666925 84.6228815,45.4401325 C83.7688816,45.3135725 83.0123216,45.1578925 82.3548817,44.9730926 C81.6968817,44.7882926 81.1307218,44.5917326 80.6586418,44.3839726 C80.1843219,44.1773326 79.7861619,43.9807726 79.4630419,43.7959726 L80.9868018,39.501893 C81.7019217,39.8944529 82.5850417,40.2466929 83.6361616,40.5580529 C84.6861615,40.8699729 85.9730414,41.0256529 87.4968013,41.0256529" id="Fill-1" fill="#FFFFFF"></path>
                <path d="M116.304823,44.5234686 C115.427863,44.7777086 114.296103,45.0134686 112.911223,45.2335485 C111.526343,45.4519485 110.072584,45.5617085 108.548264,45.5617085 C107.002104,45.5617085 105.714664,45.3539485 104.687624,44.9384286 C103.660584,44.5234686 102.846344,43.9399486 102.246584,43.1895487 C101.646264,42.4397087 101.219544,41.5448288 100.965304,40.5060289 C100.711064,39.467789 100.584504,38.3253891 100.584504,37.0782692 L100.584504,26.9333099 L105.743784,26.9333099 L105.743784,36.4549892 C105.743784,38.1176291 105.963304,39.317149 106.401224,40.0557889 C106.839704,40.7949889 107.659544,41.1645888 108.860184,41.1645888 C109.229224,41.1645888 109.621784,41.1472288 110.037864,41.1125088 C110.452824,41.0777889 110.821864,41.0374689 111.145543,40.9909889 L111.145543,26.9333099 L116.304823,26.9333099 L116.304823,44.5234686 Z" id="Fill-3" fill="#FFFFFF"></path>
                <path d="M132.12891,31.5040296 C131.66691,31.3881096 131.12483,31.2671496 130.50099,31.1405896 C129.87827,31.0134696 129.20851,30.9496296 128.49339,30.9496296 C128.16971,30.9496296 127.78331,30.9787496 127.33307,31.0358696 C126.88283,31.0941096 126.54179,31.1573896 126.31163,31.2262696 L126.31163,45.1461885 L121.151791,45.1461885 L121.151791,27.9026699 C122.075791,27.5795499 123.166671,27.2737899 124.42499,26.9848299 C125.68219,26.69643 127.08443,26.55251 128.63171,26.55251 C128.90835,26.55251 129.24323,26.56931 129.63579,26.60403 C130.02835,26.63875 130.42035,26.68523 130.81347,26.74291 C131.20547,26.8005899 131.59803,26.8694699 131.99059,26.9501099 C132.38259,27.0313099 132.71747,27.1293099 132.99411,27.2446699 L132.12891,31.5040296 Z" id="Fill-5" fill="#FFFFFF"></path>
                <path d="M139.815525,35.4507973 C139.815525,38.3364771 140.981445,39.779037 143.313285,39.779037 C143.843605,39.779037 144.339765,39.709597 144.801765,39.571277 C145.263765,39.432397 145.655765,39.271677 145.978885,39.086317 L145.978885,30.8453576 C145.724645,30.7999976 145.425605,30.7591176 145.079525,30.7243976 C144.733445,30.6896776 144.329125,30.6723176 143.866565,30.6723176 C142.505205,30.6723176 141.489365,31.1225576 140.820165,32.0230375 C140.150405,32.9229575 139.815525,34.0659174 139.815525,35.4507973 L139.815525,35.4507973 Z M151.138724,42.8607167 C151.138724,45.8387965 150.382164,48.0485563 148.870725,49.4916762 C147.358165,50.9342361 145.021285,51.655516 141.858965,51.655516 C140.750725,51.655516 139.642485,51.557516 138.534805,51.3615161 C137.426565,51.1655161 136.399526,50.9056761 135.452566,50.5825561 L136.353046,46.2543165 C137.161125,46.5774364 138.008965,46.8311164 138.898805,47.0153564 C139.786405,47.2001564 140.797205,47.2931164 141.927845,47.2931164 C143.405685,47.2931164 144.450085,46.9694364 145.062165,46.3231965 C145.673125,45.6775165 145.978885,44.8459166 145.978885,43.8300766 L145.978885,43.1720767 C145.425605,43.4263167 144.854405,43.6172767 144.265285,43.7438366 C143.677285,43.8715166 143.036085,43.9342366 142.343365,43.9342366 C139.827285,43.9342366 137.899765,43.1894367 136.560806,41.7009568 C135.221846,40.2119169 134.552646,38.1287171 134.552646,35.4507973 C134.552646,34.1118374 134.760406,32.8949575 135.175926,31.7979176 C135.591446,30.7019976 136.197366,29.7611977 136.994246,28.9755178 C137.790565,28.1915178 138.765525,27.5850379 139.920245,27.1577579 C141.073845,26.731038 142.378645,26.517678 143.832965,26.517678 C144.455685,26.517678 145.096325,26.546798 145.754325,26.603918 C146.412325,26.661598 147.064165,26.736638 147.710965,26.8290379 C148.356085,26.9219979 148.974325,27.0311979 149.562885,27.1577579 C150.152004,27.2854379 150.676724,27.4175979 151.138724,27.5559179 L151.138724,42.8607167 Z" id="Fill-7" fill="#FFFFFF"></path>
                <path d="M167.239395,34.2045174 C167.215875,33.7660374 167.140835,33.3387574 167.014275,32.9226775 C166.887155,32.5077175 166.691155,32.1386775 166.425715,31.8155576 C166.160275,31.4924376 165.825395,31.2264376 165.421075,31.0186776 C165.016755,30.8114776 164.514995,30.7073176 163.915235,30.7073176 C163.337875,30.7073176 162.841716,30.8058776 162.426196,31.0013176 C162.011236,31.1984376 161.664596,31.4577176 161.387396,31.7802776 C161.110756,32.1045175 160.896836,32.4785975 160.746756,32.9064375 C160.596116,33.3337174 160.486916,33.7660374 160.418036,34.2045174 L167.239395,34.2045174 Z M155.120436,36.1779572 C155.120436,34.5629174 155.367956,33.1483575 155.864676,31.9365176 C156.361396,30.7246776 157.013236,29.7144377 157.821316,28.9063578 C158.629396,28.0988378 159.557876,27.4867579 160.608436,27.0717979 C161.658436,26.656278 162.738116,26.447958 163.845795,26.447958 C166.430755,26.447958 168.473635,27.2392379 169.974435,28.8201178 C171.475235,30.4015577 172.225635,32.7272375 172.225635,35.7971573 C172.225635,36.0978772 172.213315,36.4265972 172.190915,36.7844372 C172.167955,37.1422772 172.144435,37.4592371 172.121475,37.7364371 L160.418036,37.7364371 C160.533396,38.798197 161.029556,39.640437 161.907076,40.2637169 C162.783476,40.8875569 163.961155,41.1983568 165.438435,41.1983568 C166.385395,41.1983568 167.313875,41.1126768 168.226115,40.9390769 C169.137795,40.7660369 169.882595,40.5532369 170.459395,40.2989969 L171.152115,44.4883566 C170.874915,44.6266766 170.505315,44.7649966 170.043875,44.9033166 C169.581875,45.0427565 169.068355,45.1637165 168.503315,45.2673165 C167.937715,45.3714765 167.331235,45.4577165 166.684995,45.5271565 C166.038755,45.5960365 165.392515,45.6307565 164.746275,45.6307565 C163.107156,45.6307565 161.681956,45.3888365 160.469556,44.9033166 C159.257716,44.4189166 158.253636,43.7558766 157.457876,42.9130767 C156.660996,42.0708368 156.072436,41.0729169 155.691636,39.9176369 C155.310836,38.764037 155.120436,37.5174771 155.120436,36.1779572 L155.120436,36.1779572 Z" id="Fill-9" fill="#FFFFFF"></path>
                <path d="M183.726858,45.1463565 C182.771498,43.1309167 181.829018,41.0393169 180.900538,38.870997 C179.970938,36.7037972 179.088378,34.5595574 178.252298,32.4377175 C177.416218,30.3158777 176.647898,28.2847578 175.946779,26.344918 C175.245099,24.4045181 174.639179,22.6735583 174.130139,21.1497984 L180.085738,21.1497984 C180.534858,22.5402783 181.033818,24.0360382 181.583738,25.637638 C182.133098,27.2386779 182.694218,28.8357978 183.263738,30.4261977 C183.833818,32.0177175 184.380938,33.5414774 184.903418,34.9991573 C185.426458,36.4568372 185.926538,37.7151571 186.404778,38.774677 C186.855018,37.7224371 187.348378,36.4669172 187.883178,35.0092373 C188.417418,33.5526774 188.970138,32.0283575 189.540217,30.4368377 C190.110297,28.8464378 190.670297,27.2498779 191.220217,25.648278 C191.769017,24.0466782 192.269657,22.5475583 192.721017,21.1497984 L198.471657,21.1497984 C197.934057,22.6808383 197.315817,24.4145981 196.615817,26.350518 C195.916937,28.2864378 195.151977,30.3169977 194.320377,32.4399575 C193.489897,34.5645974 192.612937,36.7110772 191.690617,38.881077 C190.766617,41.0516369 189.829177,43.1398767 188.878298,45.1463565 L183.726858,45.1463565 Z" id="Fill-11" fill="#FFFFFF"></path>
                <mask id="mask-2" fill="white">
                    <use xlink:href="#path-1"></use>
                </mask>
                <g id="Clip-14"></g>
                <path d="M201.206865,45.1466365 L206.366144,45.1466365 L206.366144,26.9337579 L201.206865,26.9337579 L201.206865,45.1466365 Z M206.851104,21.6697583 C206.851104,22.6172783 206.544224,23.3609582 205.932704,23.9030382 C205.321184,24.4456781 204.600464,24.7167181 203.768864,24.7167181 C202.937824,24.7167181 202.216545,24.4456781 201.605025,23.9030382 C200.992945,23.3609582 200.687185,22.6172783 200.687185,21.6697583 C200.687185,20.7233584 200.992945,19.9791185 201.605025,19.4364785 C202.216545,18.8943986 202.937824,18.6227986 203.768864,18.6227986 C204.600464,18.6227986 205.321184,18.8943986 205.932704,19.4364785 C206.544224,19.9791185 206.851104,20.7233584 206.851104,21.6697583 L206.851104,21.6697583 Z" id="Fill-13" fill="#FFFFFF" mask="url(#mask-2)"></path>
                <path d="M222.466367,34.2045174 C222.442847,33.7660374 222.368367,33.3387574 222.241807,32.9226775 C222.114127,32.5077175 221.918127,32.1386775 221.652687,31.8155576 C221.387247,31.4924376 221.052367,31.2264376 220.648607,31.0186776 C220.244847,30.8114776 219.742527,30.7073176 219.142207,30.7073176 C218.564847,30.7073176 218.068687,30.8058776 217.653727,31.0013176 C217.238207,31.1984376 216.891567,31.4577176 216.614927,31.7802776 C216.337727,32.1045175 216.123807,32.4785975 215.973727,32.9064375 C215.824207,33.3337174 215.714447,33.7660374 215.645007,34.2045174 L222.466367,34.2045174 Z M210.347408,36.1779572 C210.347408,34.5629174 210.594928,33.1483575 211.091648,31.9365176 C211.588368,30.7246776 212.240208,29.7144377 213.048288,28.9063578 C213.856368,28.0988378 214.785408,27.4867579 215.835407,27.0717979 C216.885967,26.656278 217.965087,26.447958 219.073327,26.447958 C221.658847,26.447958 223.701167,27.2392379 225.201967,28.8201178 C226.702207,30.4015577 227.452607,32.7272375 227.452607,35.7971573 C227.452607,36.0978772 227.440847,36.4265972 227.417887,36.7844372 C227.394927,37.1422772 227.371407,37.4592371 227.349007,37.7364371 L215.645007,37.7364371 C215.760367,38.798197 216.256527,39.640437 217.134607,40.2637169 C218.011567,40.8875569 219.188687,41.1983568 220.666527,41.1983568 C221.612367,41.1983568 222.541407,41.1126768 223.453647,40.9390769 C224.364767,40.7660369 225.109567,40.5532369 225.686367,40.2989969 L226.379087,44.4883566 C226.102447,44.6266766 225.732847,44.7649966 225.271407,44.9033166 C224.809407,45.0427565 224.295887,45.1637165 223.730287,45.2673165 C223.164687,45.3714765 222.558207,45.4577165 221.913087,45.5271565 C221.265727,45.5960365 220.619487,45.6307565 219.973807,45.6307565 C218.334127,45.6307565 216.908927,45.3888365 215.697087,44.9033166 C214.485808,44.4189166 213.481728,43.7558766 212.684848,42.9130767 C211.888528,42.0708368 211.299968,41.0729169 210.918608,39.9176369 C210.537808,38.764037 210.347408,37.5174771 210.347408,36.1779572 L210.347408,36.1779572 Z" id="Fill-15" fill="#FFFFFF" mask="url(#mask-2)"></path>
                <path d="M242.532061,34.6890293 C242.070621,36.4440692 241.580061,38.1867891 241.060942,39.9177489 C240.541822,41.6492688 239.992462,43.3919887 239.416222,45.1464685 L235.399342,45.1464685 C234.983262,44.1771086 234.530782,43.0223887 234.045262,41.6839888 C233.559182,40.3455889 233.055742,38.885109 232.534382,37.3036691 C232.014142,35.7227893 231.481582,34.0483894 230.936702,32.2827095 C230.392942,30.5164697 229.865982,28.7334298 229.356942,26.9330299 L234.793422,26.9330299 C234.979342,27.7640699 235.182062,28.6701498 235.402702,29.6507097 C235.623342,30.6323897 235.855742,31.6426296 236.099342,32.6808695 C236.343502,33.7196694 236.598862,34.7640693 236.866542,35.8146293 C237.132542,36.8657492 237.405822,37.8743091 237.684702,38.844229 C237.984862,37.8283891 238.278862,36.7901492 238.567822,35.7278293 C238.856222,34.6666293 239.132862,33.6222294 239.398862,32.5940695 C239.663742,31.5675896 239.917982,30.5747097 240.160462,29.6159897 C240.402382,28.6583898 240.616302,27.7640699 240.801102,26.9330299 L244.540781,26.9330299 C244.725581,27.7640699 244.932781,28.6583898 245.163501,29.6159897 C245.394781,30.5747097 245.636701,31.5675896 245.890941,32.5940695 C246.145181,33.6222294 246.410061,34.6666293 246.687821,35.7278293 C246.964461,36.7901492 247.252861,37.8283891 247.553021,38.844229 C247.831341,37.8743091 248.110221,36.8657492 248.389101,35.8146293 C248.667421,34.7640693 248.928941,33.7196694 249.173101,32.6808695 C249.416141,31.6426296 249.648541,30.6323897 249.869181,29.6507097 C250.089821,28.6701498 250.292541,27.7640699 250.479021,26.9330299 L255.84606,26.9330299 C255.33646,28.7334298 254.81006,30.5164697 254.265741,32.2827095 C253.721981,34.0483894 253.189421,35.7227893 252.668621,37.3036691 C252.147821,38.885109 251.638781,40.3455889 251.140941,41.6839888 C250.643101,43.0223887 250.185581,44.1771086 249.768941,45.1464685 L245.752621,45.1464685 C245.175261,43.3919887 244.610221,41.6492688 244.056381,39.9177489 C243.501981,38.1867891 242.993501,36.4440692 242.532061,34.6890293" id="Fill-16" fill="#FFFFFF" mask="url(#mask-2)"></path>
                <path d="M263.809876,41.4412848 C264.756276,41.4412848 265.426036,41.3494448 265.818596,41.1646448 C266.210036,40.9798449 266.406596,40.6220049 266.406596,40.0911249 C266.406596,39.675605 266.152356,39.311605 265.644996,39.000245 C265.136516,38.688885 264.363716,38.3366451 263.325476,37.9440851 C262.516836,37.6444851 261.784356,37.3325651 261.126916,37.0088852 C260.468356,36.6857652 259.908356,36.2988052 259.446916,35.8496853 C258.984916,35.3988853 258.627076,34.8618453 258.373396,34.2391254 C258.119156,33.6158454 257.992596,32.8660055 257.992596,31.9884855 C257.992596,30.2804857 258.627076,28.9297658 259.897156,27.9374459 C261.166676,26.9451259 262.909396,26.447846 265.125876,26.447846 C266.233556,26.447846 267.295316,26.546406 268.311715,26.742406 C269.327555,26.9389659 270.135075,27.1528859 270.735395,27.3830459 L269.834915,31.3993656 C269.234595,31.1916056 268.582195,31.0079256 267.878835,30.8455256 C267.174356,30.6848056 266.383636,30.6036057 265.506676,30.6036057 C263.891076,30.6036057 263.082436,31.0532856 263.082436,31.9537656 C263.082436,32.1615255 263.117716,32.3463255 263.187156,32.5076055 C263.256036,32.6694455 263.394916,32.8251255 263.602116,32.9752055 C263.809876,33.1258455 264.092116,33.2876854 264.451076,33.4618454 C264.807796,33.6365654 265.264196,33.8286454 265.818596,34.0375254 C266.948676,34.4569654 267.883875,34.8708053 268.623075,35.2768053 C269.361155,35.6850453 269.944115,36.1246452 270.371955,36.5961652 C270.798115,37.0682452 271.098835,37.5929651 271.271875,38.1686451 C271.445475,38.744885 271.531155,39.412405 271.531155,40.1717649 C271.531155,41.9682448 270.856355,43.3279247 269.506195,44.2496846 C268.156035,45.1697645 266.245316,45.6306445 263.775156,45.6306445 C262.158996,45.6306445 260.814436,45.4923245 259.740916,45.2156845 C258.667396,44.9384846 257.923716,44.7077646 257.508196,44.5235246 L258.373396,40.3330449 C259.250356,40.6791249 260.151396,40.9507249 261.074276,41.1472848 C261.997716,41.3432848 262.909396,41.4412848 263.809876,41.4412848" id="Fill-17" fill="#FFFFFF" mask="url(#mask-2)"></path>
                <path d="M13.185255,42.0095168 C14.5874949,40.7769569 14.7806949,39.9789569 14.0795749,38.0939971 C11.5657351,31.6035976 16.2187748,24.0139182 21.2100544,20.8717584 C24.9570141,18.2974386 30.6488537,17.3426387 34.3717334,17.7419186 C30.0322937,16.1100788 23.0110142,16.5575187 18.1524546,18.6362386 C11.8798951,21.3191984 7.8915754,27.2288779 7.15461545,34.1415174 C7.14229545,34.5284774 7.13053545,34.9154373 7.13053545,35.3141573 C7.13053545,43.3148767 10.2967752,50.5903961 15.4577348,55.9322357 C12.592775,52.668556 8.91917532,45.7312765 13.185255,42.0095168" id="Fill-18" fill="#E8EBF9" mask="url(#mask-2)"></path>
                <path d="M53.9134919,21.5607263 C54.8923718,21.1379264 55.6052517,21.0292864 56.0644517,21.2342464 C56.5236517,21.3311264 56.9587716,21.4274464 57.3815716,21.5489663 C57.1648516,21.6088863 56.9470116,21.6693663 56.7291717,21.7180863 C58.0104516,22.0322463 59.0862115,22.6723263 59.9077314,23.5308062 C62.4456512,26.177366 62.2283712,30.5767257 59.7990914,33.1986455 C58.0227716,35.1211253 58.1314115,36.3290452 59.5330914,38.4441651 C60.5242914,39.9427249 60.2224514,41.7918448 59.6182114,43.3749647 C58.3486915,46.6380844 55.2552518,49.5629642 51.557012,51.738564 C55.4243718,48.9464042 57.0198116,43.8946446 52.9469319,40.5951249 C51.0978121,39.096565 48.4870923,38.2627251 46.3602124,37.5498451 C45.4054125,37.2233651 45.5862925,35.9784852 46.7107724,35.8457653 C47.1335724,35.7852853 47.5686924,35.7612053 48.0038123,35.7371253 C49.5146922,35.6889653 49.5023722,33.7916854 48.0883723,33.5010454 C44.8616526,32.8368855 38.4563731,32.3172055 32.8003735,31.7852056 C32.0270135,31.7124056 31.2530936,31.5192056 30.5402137,31.1809656 C26.9752539,29.4281657 27.9899739,24.7152061 33.0904535,25.1620861 C33.8391734,25.2348861 34.7217333,25.3916861 35.7006133,25.585446 C42.4323727,26.9748059 53.5629319,30.5285657 54.5899718,21.7057663 L54.2998918,21.6329663 L53.9980519,21.5724863 L53.9134919,21.5607263 Z" id="Fill-19" fill="#FFFFFF" mask="url(#mask-2)"></path>
                <path d="M59.7992594,33.1988135 C58.0229396,35.1212933 58.1310195,36.3292132 59.5332594,38.4443331 C60.5238994,39.9428929 60.2220594,41.7920128 59.6178194,43.3751327 C58.3488595,46.6382524 55.2554198,49.5631322 51.55662,51.738172 C47.1460604,54.3248118 41.8887808,55.8468917 37.8159011,55.5820117 C48.0280603,57.3824116 58.2519795,53.0435319 63.4011791,44.7527326 C65.104699,42.0333728 66.2526989,38.891213 66.5909389,35.3139333 C66.5909389,29.9961737 65.201579,25.0054541 62.7482192,20.6906544 C60.5602994,20.7388144 58.6030995,21.2103344 56.7293397,21.7182543 C58.0106196,22.0324143 59.0863795,22.6724943 59.9078994,23.5309742 C62.4458192,26.177534 62.2279792,30.5763337 59.7992594,33.1988135" id="Fill-20" fill="#E8EBF9" mask="url(#mask-2)"></path>
                <path d="M7.15461545,34.1416294 C8.09765538,27.5067499 11.9286151,21.7779503 18.2011746,19.0832305 C25.0774141,16.1219508 33.7428534,17.1377907 41.1751728,19.2523505 C47.8223723,21.1255504 58.6146915,23.5425102 64.887251,19.6516305 C65.769251,19.1073105 66.1198109,18.3339506 65.781571,17.6333906 C63.5701311,18.2611506 63.8355711,18.4549106 63.2190112,18.7813906 C56.5600517,19.7238705 47.9556523,18.9628305 41.6830928,17.1859507 C35.1809333,15.3491508 26.9870139,14.7566709 20.3521344,16.7144307 C12.411895,19.0468305 7.7952554,25.92363 7.15461545,34.1416294" id="Fill-21" fill="#C3CDED" mask="url(#mask-2)"></path>
                <path d="M73.9392583,16.4605827 C74.7730983,16.4605827 75.4378182,17.1376227 75.4378182,17.9591426 C75.4378182,18.7935426 74.7730983,19.4700225 73.9392583,19.4700225 C73.1054184,19.4700225 72.4406984,18.7935426 72.4406984,17.9591426 C72.4406984,17.1376227 73.1054184,16.4605827 73.9392583,16.4605827 M76.0661382,9.87386324 C76.7913381,9.87386324 77.3597381,10.4540232 77.3597381,11.1669031 C77.3597381,11.8803431 76.7913381,12.460503 76.0661382,12.460503 C75.3532582,12.460503 74.7848583,11.8803431 74.7848583,11.1669031 C74.7848583,10.4540232 75.3532582,9.87386324 76.0661382,9.87386324 M77.1054981,1.3417039 C78.785498,1.3417039 80.1636579,2.71930379 80.1636579,4.39930366 C80.1636579,6.09106353 78.785498,7.45690343 77.1054981,7.45690343 C75.4137382,7.45690343 74.0478983,6.09106353 74.0478983,4.39930366 C74.0478983,2.71930379 75.4137382,1.3417039 77.1054981,1.3417039 M65.696619,0.978823925 C66.9050989,0.978823925 67.8845388,1.95826385 67.8845388,3.16674376 C67.8845388,4.37466366 66.9050989,5.35410359 65.696619,5.35410359 C64.4886991,5.35410359 63.5092591,4.37466366 63.5092591,3.16674376 C63.5092591,1.95826385 64.4886991,0.978823925 65.696619,0.978823925 M57.3458996,-5.59999956e-05 C58.1433395,-5.59999956e-05 58.7845395,0.640583951 58.7845395,1.43858389 C58.7845395,2.23602383 58.1433395,2.87666378 57.3458996,2.87666378 C56.5484597,2.87666378 55.9078197,2.23602383 55.9078197,1.43858389 C55.9078197,0.640583951 56.5484597,-5.59999956e-05 57.3458996,-5.59999956e-05 M41.4413408,18.3097026 C47.7139003,20.0860225 58.5302995,22.4671423 64.5850191,19.3613825 C65.213339,19.0349025 66.0835789,18.4429826 65.781739,17.6332226 C65.636699,17.3308227 65.370699,17.0407427 64.971419,16.7870627 C64.0412591,16.1945828 63.8838991,15.1552228 65.104699,14.6355429 C66.7606189,13.9349829 70.7970986,12.0617831 72.4406984,10.2485032 C74.6280583,7.8556234 72.0419785,4.58074365 68.9720587,6.44162351 C66.5069389,7.91610339 63.9085391,9.1609833 61.2009393,10.1275432 C59.7270194,10.6595432 58.8808595,8.96778331 60.0529394,8.00122339 C60.1738994,7.8920234 60.2948594,7.7951434 60.4152594,7.69882341 C62.2884592,6.05466354 60.7058993,3.45682374 58.1433395,4.68882364 C57.6841396,4.90666362 57.2490196,5.09986361 56.8138996,5.2818636 C55.0974998,5.99474354 53.2730199,6.63538349 52.36638,7.49330343 C50.3123001,9.45106328 49.7556602,12.666023 52.82558,13.342503 C53.4057399,13.475223 54.4938198,14.0072229 55.3153398,14.0917829 C57.3817396,14.2973029 57.3458996,15.2039428 55.0974998,15.6872228 C51.2430201,16.5333827 48.1243803,14.9256229 44.1243006,13.9590629 C37.5980611,12.400023 30.3953417,11.7952231 23.8444622,13.391223 C14.0797429,15.7600228 7.72262341,23.8688222 7.15478345,34.1414614 C7.97630339,26.068502 12.581183,19.6391425 20.5091024,17.2944227 C27.1439819,15.3366628 34.9391813,16.4723427 41.4413408,18.3097026 M68.0900588,15.6749028 C68.7542187,15.6749028 69.2979787,16.2069028 69.2979787,16.8833827 C69.2979787,17.5481027 68.7542187,18.0924226 68.0900588,18.0924226 C67.4130188,18.0924226 66.8692589,17.5481027 66.8692589,16.8833827 C66.8692589,16.2069028 67.4130188,15.6749028 68.0900588,15.6749028" id="Fill-22" fill="#C3CDED" mask="url(#mask-2)"></path>
                <path d="M24.6665981,53.7930359 C24.5456381,58.4701555 22.3946783,59.7150354 18.2372386,57.5147956 C16.9682787,57.2739956 16.0375588,56.7419957 15.4573988,55.9322357 C12.592999,52.668556 8.91883932,45.7312765 13.185479,42.0095168 C14.5871589,40.7769569 14.7809189,39.9789569 14.0797989,38.0939971 C11.5659591,31.6035976 16.2189988,24.0139182 21.2102784,20.8717584 C16.9559587,23.7848782 15.5178788,29.5007977 20.6541984,32.1837575 C22.0558783,32.9212775 23.6753982,33.3563974 25.1017181,33.9247974 C26.467558,34.4803174 25.899158,36.0634372 24.7029981,35.7733573 C24.5215581,35.7375173 24.3283581,35.6887973 24.1469181,35.6523973 C22.1045983,35.2654373 21.4034784,37.4897571 23.2766782,38.4204771 C26.092358,39.8339169 31.5551576,40.1363169 35.5311573,40.4023169 C36.0267572,40.4381569 36.4982772,40.4745569 36.9333972,40.5109569 C45.3328365,41.1756768 46.1549165,49.7683162 38.1177971,52.427756 C37.2598771,52.705516 36.3896372,52.9104759 35.5070773,53.0431959 C31.3742776,53.6603159 27.0594779,52.620396 23.5185982,50.3120761 C23.5667582,50.3484761 23.6154782,50.3966361 23.6513182,50.4330361 L23.6753982,50.4576761 C23.7241182,50.5058361 23.7722782,50.5416761 23.8204382,50.5903961 L23.8327582,50.6021561 C23.8809182,50.6508761 23.9296382,50.6867161 23.9777982,50.7348761 L23.9901182,50.7348761 L23.9901182,50.7471961 C24.0377182,50.7835961 24.0981982,50.8317561 24.1469181,50.8681561 L24.1709981,50.8922361 C24.2197181,50.9286361 24.2678781,50.9773561 24.3283581,51.0131961 L24.3524381,51.0372761 C24.4129181,51.0854361 24.4733981,51.1218361 24.5215581,51.1699961 L24.5338781,51.1699961 C24.5943581,51.2181561 24.6425181,51.2551161 24.7029981,51.3032761 L24.7388381,51.3150361 C24.7993181,51.3637561 24.8597981,51.4001561 24.9202781,51.4483161 L24.9443581,51.4606361 C25.0048381,51.5087961 25.0653181,51.544636 25.1381181,51.593356 C25.2103581,51.641516 25.2708381,51.677916 25.3436381,51.726076 L25.3671581,51.738396 C25.4276381,51.787116 25.488118,51.822956 25.560918,51.859356 L25.609078,51.895196 C25.669558,51.932156 25.717718,51.967996 25.778198,51.992076 L25.850998,52.040236 L26.008358,52.137116 L26.068278,52.172956 C26.128758,52.209356 26.201558,52.245196 26.262038,52.282156 L26.322518,52.318556 C26.394758,52.354956 26.455238,52.390796 26.528038,52.427756 L26.539798,52.427756 L26.563878,52.438956 L26.745318,52.547596 L26.8175579,52.583996 C26.8785979,52.620396 26.9508379,52.656796 27.0230779,52.692636 L27.0712379,52.717276 L27.3013979,52.825916 L27.3013979,52.838236 C27.3736379,52.8740759 27.4464379,52.9104759 27.5304379,52.9468759 L27.5914779,52.9832759 L27.8087579,53.0801559 L27.8815579,53.1159959 L28.0506779,53.2005559 L28.1951578,53.2610359 L28.3166778,53.3215159 L28.4247578,53.3696759 L28.5944378,53.4547959 L28.6067578,53.4547959 L28.7271578,53.5147159 L28.7635578,53.5264759 L28.9332378,53.5992759 L29.0295578,53.6479959 L29.1264378,53.6843959 L29.3196378,53.7683959 L29.4646777,53.8288759 L29.5615577,53.8652759 L29.6819577,53.9134359 L29.8997977,54.0103159 L29.9843577,54.0343959 L30.1170777,54.0954359 L30.2861977,54.1676758 L30.4553177,54.2281558 L30.4676377,54.2281558 C30.5762777,54.2763158 30.6731576,54.3127158 30.7817976,54.3485558 L30.8181976,54.3608758 C31.2656376,54.5423158 31.7125176,54.6991158 32.1599575,54.8441558 L32.3290775,54.9040758 L32.4976375,54.9651158 C32.6673175,55.0138358 32.8364375,55.0737558 32.9932375,55.1224758 C30.5885977,55.0138358 27.8087579,54.5663958 24.6665981,53.7930359" id="Fill-23" fill="#FFFFFF" mask="url(#mask-2)"></path>
                <path d="M66.5911629,35.3141013 C64.5124431,54.3244198 39.712845,61.7332193 23.5182062,50.3120201 C22.6602863,49.6960202 21.8023663,49.5509802 21.0771664,49.6960202 C21.9474063,51.56866 23.0836462,51.77474 24.2316461,52.58394 C30.4190857,56.9351396 39.374605,58.1200995 46.8433244,56.7419397 C57.7084436,54.7953798 65.733243,47.1698604 66.5911629,35.3141013" id="Fill-24" fill="#C3CDED" mask="url(#mask-2)"></path>
                <path d="M66.5911629,35.3141013 C65.661003,51.54458 53.1399639,61.2740193 38.0692451,59.8236194 C36.1238052,59.6421794 33.7309254,59.4489794 33.1020455,61.3344993 C30.5646857,60.7056193 29.2710858,62.3492192 30.4918857,65.153139 C35.2412453,65.382739 40.0270049,65.068579 43.3506047,64.3310591 C56.6567637,61.3585793 66.5911629,49.5022602 66.5911629,35.3141013" id="Fill-25" fill="#FFFFFF" mask="url(#mask-2)"></path>
                <path d="M10.2969432,59.0381075 C11.3480631,59.0381075 12.1942231,59.8960274 12.1942231,60.9353873 C12.1942231,61.9870672 11.3480631,62.8449872 10.2969432,62.8449872 C9.24582329,62.8449872 8.38734336,61.9870672 8.38734336,60.9353873 C8.38734336,59.8960274 9.24582329,59.0381075 10.2969432,59.0381075 M2.18758383,55.2553078 C3.38374374,55.2553078 4.36318367,56.2336277 4.36318367,57.4426676 C4.36318367,58.6517075 3.38374374,59.6182674 2.18758383,59.6182674 C0.979103925,59.6182674 0.000223999983,58.6517075 0.000223999983,57.4426676 C0.000223999983,56.2336277 0.979103925,55.2553078 2.18758383,55.2553078 M4.21814368,49.4055482 C4.93102362,49.4055482 5.51118358,49.9857082 5.51118358,50.6985881 C5.51118358,51.4237881 4.93102362,52.003948 4.21814368,52.003948 C3.50526373,52.003948 2.91222378,51.4237881 2.91222378,50.6985881 C2.91222378,49.9857082 3.50526373,49.4055482 4.21814368,49.4055482 M8.50830335,49.0068282 C9.05206331,49.0068282 9.48718327,49.4419482 9.48718327,49.9857082 C9.48718327,50.5177081 9.05206331,50.9528281 8.50830335,50.9528281 C7.96454339,50.9528281 7.52942342,50.5177081 7.52942342,49.9857082 C7.52942342,49.4419482 7.96454339,49.0068282 8.50830335,49.0068282 M24.9084621,51.617548 C23.7604622,50.8077881 22.4668623,49.5270682 21.0769424,49.6956282 C19.5666225,50.0103482 18.7445426,51.665708 20.2431024,53.2006679 C20.8355824,53.7931479 21.6212623,54.3005078 22.2131823,54.6751478 C23.9172622,55.7749877 23.0834222,58.1561075 20.8960624,57.8895476 C18.4303826,57.5871476 12.931743,54.8078678 10.1278232,53.0673879 C8.29046336,51.932268 6.81654348,54.2036278 8.42374335,55.4849077 C11.0221432,57.5513076 13.9347029,59.2072275 17.0404627,60.3557874 C17.1731827,61.3828273 17.7175026,61.3346673 17.9958226,61.4309873 C19.5061425,61.9624273 22.1286223,62.4821072 23.7240622,62.0352272 C24.9930221,61.6723473 25.814542,61.2865073 25.729982,59.6423474 C25.633662,57.7086676 26.152782,58.0704275 27.7846219,58.7357075 C46.8313404,63.9207471 65.660779,56.0650677 66.5909389,35.3142693 C65.575659,46.5293884 57.5390996,54.1554678 46.6863004,56.1496277 C39.205821,57.5149076 31.1082216,55.9687477 24.9084621,51.617548" id="Fill-26" fill="#C3CDED" mask="url(#mask-2)"></path>
                <path d="M66.5911629,35.3141013 C65.430843,55.5093797 44.6559646,63.1472192 27.6274859,56.2093797 C25.996206,55.5452197 24.5094061,56.0167397 24.6062861,57.9621796 C24.6908461,59.6057794 23.7483662,60.5124194 22.4911663,60.8752993 C20.8839664,61.3221793 19.3126065,60.8752993 17.7899666,60.3427394 C16.5814867,59.9199394 15.8316468,61.6240193 17.0289267,62.2769792 C20.1828465,63.9933791 25.3191661,64.887139 30.4918857,65.153139 C31.5911656,65.189539 33.9482054,65.141379 34.5406854,63.3762591 C35.1807653,61.4912993 36.0874052,60.5605794 38.0210851,60.7420193 C53.3701239,62.1800992 66.3010829,50.6144201 66.5911629,35.3141013" id="Fill-27" fill="#E8EBF9" mask="url(#mask-2)"></path>
                <path d="M24.0863822,14.5148069 C30.6367017,12.919367 38.0813411,13.439607 44.6081406,15.0104068 C48.6082203,15.9652068 52.59654,17.0163267 56.4633397,16.1707268 C58.7111795,15.6868868 58.5062195,13.414967 56.4274997,13.209447 C55.6171797,13.137207 54.9289398,13.040327 54.3487798,12.907607 C51.2788601,12.2305671 50.8801401,9.49944727 52.9224599,7.54168742 C53.8285399,6.67144749 55.1943798,5.95856754 56.8138996,5.2815276 C49.9858202,8.13360738 46.0092605,6.45360751 40.4747809,5.80120756 C40.1119009,7.25160744 42.7103007,8.82240732 39.229901,8.62920734 C26.8785419,7.94040739 15.9171028,11.5899271 10.6111032,21.6452863 C8.81070332,25.0534461 7.42022343,29.1868058 7.15478345,34.1416854 C7.95222339,24.2319261 14.3216629,16.8953667 24.0863822,14.5148069" id="Fill-28" fill="#E8EBF9" mask="url(#mask-2)"></path>
                <path d="M7.15461545,34.1416294 C8.27853537,15.4213908 23.4942942,8.91923132 40.0271729,9.82587125 C43.5081327,10.0190712 43.6408527,6.17635153 40.4746129,5.80115156 C39.350693,5.66843157 38.1539731,5.58387157 36.8609332,5.58387157 C20.8354144,5.58387157 7.7711754,18.2611506 7.15461545,34.1416294" id="Fill-29" fill="#FFFFFF" mask="url(#mask-2)"></path>
            </g>
        </g>
    </g>
</svg>