<svg xmlns="http://www.w3.org/2000/svg" width="95.581" height="16" viewBox="0 0 95.581 16">
  <path id="Combined_Shape" data-name="Combined Shape" d="M87.581,13.267,82.637,16l.944-5.79-4-4.1,5.529-.845L87.581,0l2.472,5.267,5.528.845-4,4.1L92.525,16Zm-20,0L62.637,16l.943-5.79-4-4.1,5.528-.845L67.581,0l2.471,5.267,5.529.845-4,4.1L72.526,16Zm-20,0L42.637,16l.944-5.79-4-4.1,5.528-.845L47.581,0l2.471,5.267,5.529.845-4,4.1L52.525,16Zm-20,0L22.637,16l.944-5.79-4-4.1,5.528-.845L27.581,0l2.471,5.267,5.528.845-4,4.1L32.525,16ZM8,13.267,3.056,16,4,10.211l-4-4.1,5.528-.845L8,0l2.471,5.267L16,6.112l-4,4.1L12.944,16Z" fill="#4e67ff"/>
</svg>
