<?xml version="1.0" encoding="UTF-8"?>
<svg width="68px" height="52px" viewBox="0 0 68 52" version="1.1" xmlns="http://www.w3.org/2000/svg" xmlns:xlink="http://www.w3.org/1999/xlink">
    <title>Group</title>
    <g id="Page-1" stroke="none" stroke-width="1" fill="none" fill-rule="evenodd">
        <g id="Home-" transform="translate(-1031.000000, -405.000000)">
            <g id="107-copy" transform="translate(1031.000000, 139.000000)">
                <g id="Group" transform="translate(0.000000, 266.760021)">
                    <path d="M63.2080042,0.324000026 L4.57200036,0.324000026 C2.19600017,0.324000026 0.25200002,2.26800018 0.25200002,4.64400037 L0.25200002,46.0000029 C0.25200002,48.376003 2.19600017,50.3200032 4.57200036,50.3200032 L63.2080042,50.3200032 C65.5840044,50.3200032 67.5280046,48.376003 67.5280046,46.0000029 L67.5280046,4.64400037 C67.5280046,2.23200018 65.5840044,0.324000026 63.2080042,0.324000026 Z" id="Path" fill="#FFCDA2" fill-rule="nonzero"></path>
                    <path d="M34.7407147,15.000951 L34.8169486,15.0021399 C38.6432341,15.0479485 42.308723,15.9214836 45.7158004,17.6050716 C49.0535302,19.2543426 52.0341122,21.6696014 54.3351527,24.5895482 C55.2216158,25.714397 55.2216158,27.2855238 54.3351527,28.4104518 C52.0341122,31.3304779 49.0535302,33.7455782 45.7158004,35.3949284 C42.308723,37.0785164 38.6432341,37.9519722 34.8169486,37.9978601 C34.7993848,37.9983357 34.7729925,37.9987319 34.7407147,37.999049 L34.2592519,37.999049 L34.2592519,37.999049 L34.1830514,37.9978601 C30.3566858,37.9519722 26.691277,37.0785164 23.2841196,35.3949284 C19.9463898,33.7455782 16.9659678,31.3303986 14.6648473,28.4104518 C13.7783842,27.285603 13.7783842,25.714397 14.6648473,24.5895482 C16.9659678,21.6695221 19.9463898,19.2543426 23.2841196,17.6050716 C26.691277,15.9214836 30.3566858,15.0479485 34.1830514,15.0021399 C34.2006018,15.0016643 34.2269831,15.0012681 34.2592519,15.000951 L34.7407147,15.000951 L34.7407147,15.000951 Z M26.7390034,17.9461798 C25.818347,18.266365 24.9143468,18.6445641 24.029165,19.0818864 C20.9124504,20.6219457 18.1291003,22.8775081 15.9799678,25.6047097 C15.5646034,26.1318266 15.5646034,26.8680149 15.9799678,27.3951318 C18.1291804,30.1223334 20.9125304,32.3778958 24.029165,33.9180344 C24.9144269,34.3554359 25.8185873,34.7337935 26.7393238,35.0539787 C24.3705374,32.9468586 22.8782043,29.8928144 22.8782043,26.4999604 C22.8782043,23.1072648 24.3704573,20.0533791 26.7390034,17.9461798 Z M42.2603559,17.9453873 C44.6293025,20.0525866 46.1219558,23.1067893 46.1219558,26.4999604 C46.1219558,29.8913879 44.630824,32.944164 42.2638794,35.0512841 C43.1834147,34.7314159 44.0866942,34.3548812 44.970835,33.9180344 C48.0876297,32.3778958 50.8709797,30.1223334 53.0200322,27.3951318 C53.4353966,26.8680149 53.4353966,26.1318266 53.0201923,25.6047097 C50.8709797,22.8775081 48.0876297,20.6219457 44.9709151,19.0818864 C44.085493,18.6443263 43.1812526,18.2656518 42.2603559,17.9453873 Z M34.4999671,22.2399788 C32.570067,22.2399788 31,23.8100458 31,25.7400117 C31,27.6699118 32.570067,29.2399788 34.4999671,29.2399788 C36.429933,29.2399788 38,27.6699118 38,25.7400117 C38,23.8100458 36.429933,22.2399788 34.4999671,22.2399788 Z" id="Combined-Shape" fill="#FFFFFF"></path>
                </g>
            </g>
        </g>
    </g>
</svg>