<?xml version="1.0" encoding="UTF-8"?>
<svg width="71px" height="53px" viewBox="0 0 71 53" version="1.1" xmlns="http://www.w3.org/2000/svg" xmlns:xlink="http://www.w3.org/1999/xlink">
    <title>Group</title>
    <g id="Page-1" stroke="none" stroke-width="1" fill="none" fill-rule="evenodd">
        <g id="Home-" transform="translate(-1323.000000, -266.000000)" fill-rule="nonzero">
            <g id="107-copy" transform="translate(1031.000000, 139.000000)">
                <g id="Group" transform="translate(292.680023, 127.800010)">
                    <path d="M4.06800032,0 L65.2240044,0 C67.4560046,0 69.2920047,2.08800017 69.2920047,4.64400037 L69.2920047,46.9360029 C69.2920047,49.4920031 67.4920046,51.5800033 65.2240044,51.5800033 L4.06800032,51.5800033 C1.83600015,51.5800033 0,49.4920031 0,46.9360029 L0,4.64400037 C0.0360000029,2.05200016 1.83600015,0 4.06800032,0 Z" id="Path" fill="#EF7272"></path>
                    <path d="M25.5840008,34.2586954 C25.5840008,30.372685 28.0635927,27.0151721 31.4615519,25.7094726 C29.6248172,24.6213897 28.4003274,22.5695762 28.4003274,20.23797 C28.4003274,16.7250166 31.2166539,13.8960011 34.6758376,13.8960011 C38.1350212,13.8960011 40.9207355,16.7250166 40.9207355,20.23797 C40.9207355,22.5695762 39.6656335,24.6213897 37.7982866,25.7094726 C41.1962457,27.0151721 43.5840008,30.341597 43.5840008,34.2276073 L43.5840008,37.8960011 L25.5840008,37.8960011 L25.5840008,34.2586954 L25.5840008,34.2586954 Z" id="Path" fill="#FFFFFF"></path>
                </g>
            </g>
        </g>
    </g>
</svg>