<?xml version="1.0" encoding="UTF-8"?>
<svg width="70px" height="52px" viewBox="0 0 70 52" version="1.1" xmlns="http://www.w3.org/2000/svg" xmlns:xlink="http://www.w3.org/1999/xlink">
    <title>Group</title>
    <g id="Page-1" stroke="none" stroke-width="1" fill="none" fill-rule="evenodd">
        <g id="Home-" transform="translate(-1043.000000, -259.000000)" fill-rule="nonzero">
            <g id="107-copy" transform="translate(1031.000000, 139.000000)">
                <g id="Group" transform="translate(12.680000, 120.200010)">
                    <path d="M0.172002461,6.33795769 C0.172002461,2.99898895 2.30255077,0.294001621 4.92769065,0.294001621 L63.4163143,0.294001621 C66.0414542,0.294001621 68.1720025,2.99898895 68.1720025,6.33795769 L68.1720025,44.2500456 C68.1720025,47.5890143 66.0414542,50.2940016 63.4163143,50.2940016 L4.92769065,50.2940016 C2.30255077,50.2940016 0.172002461,47.5890143 0.172002461,44.2500456 L0.172002461,6.33795769 Z" id="Path" fill="#EF7272"></path>
                    <path d="M44.3581642,15.6266255 C39.7501638,10.5866251 33.9541634,16.6706256 33.9541634,16.6706256 C33.9541634,16.6706256 28.1941629,10.5506251 23.5501626,15.5906255 C21.2821624,18.0386257 20.5981623,21.710626 21.7501624,24.9146263 C22.9741625,28.2986265 26.1061628,32.7986269 33.9181634,36.6146272 C41.766164,32.8346269 44.8981642,28.3706266 46.1221643,24.9866263 C47.3101644,21.746626 46.6261644,18.1106257 44.3581642,15.6266255 Z" id="Path" fill="#FFFFFF"></path>
                </g>
            </g>
        </g>
    </g>
</svg>