<svg xmlns="http://www.w3.org/2000/svg" viewBox="0 0 516 618">
  <g fill-rule="nonzero" fill="none">
    <g fill="#015289">
      <path d="M259.184 542.412h19.584c3.276 0 7.164-.144 8.136 3.816.792 3.204-1.584 5.868-4.428 6.732 0 0 8.388 5.544 0 10.908 0 0 7.344 5.652-1.332 10.332 0 0 6.48 6.3-1.404 10.08-.36.18-27.828-.036-39.132 0a4.763 4.763 0 01-4.788-4.788v-29.268c0-.504.072-1.044.216-1.512.54-1.944 2.412-6.768 8.172-11.16 2.952-2.268 6.84-4.392 8.244-8.1 1.404-3.708-1.332-8.856 2.736-11.376 2.592-1.62 5.076-.216 6.696 2.088 0-.072 8.208 13.284-2.7 22.248zM216.092 546.048h15.696v38.34h-15.696z"/>
    </g>
    <g transform="translate(39.44 315.36)">
      <path d="M15.876 296.712c-6.768 0-12.24-5.508-12.24-12.24V15.624c0-6.768 5.508-12.24 12.24-12.24h365.94c6.768 0 12.24 5.508 12.24 12.24v268.848c0 6.768-5.508 12.24-12.24 12.24H15.876z" fill="#00A4C3"/>
      <path d="M381.816 6.768c4.896 0 8.892 3.96 8.892 8.892v268.848c0 4.896-3.96 8.892-8.892 8.892H15.876c-4.896 0-8.892-3.96-8.892-8.892V15.624c0-4.896 3.96-8.892 8.892-8.892h365.94v.036zm0-6.768H15.876C7.272 0 .252 7.02.252 15.624v268.848c0 8.604 7.02 15.624 15.624 15.624h365.94c8.604 0 15.624-7.02 15.624-15.624V15.624C397.44 7.02 390.456 0 381.816 0z" fill="#FFF"/>
      <circle fill="#FFF" cx="367.38" cy="150.552" r="14.4"/>
    </g>
    <path d="M374.312 330.408H67.052c-5.256 0-9.504 4.68-9.504 9.756v249.012c0 5.112 4.248 8.676 9.504 8.676h307.296c5.256 0 9.396-3.6 9.396-8.676V340.164c-.036-5.076-4.176-9.756-9.432-9.756z" fill="#FFF"/>
    <path d="M285.968 506.808H81.704c-6.264 0-11.34-5.076-11.34-11.34V379.152c0-6.264 5.076-11.34 11.34-11.34h204.228c6.264 0 11.34 5.076 11.34 11.34v116.316c.036 6.264-5.04 11.34-11.304 11.34z" fill="#C5F5FC"/>
    <g fill="#00E2D5">
      <path d="M365.132 406.764h-55.62a5.792 5.792 0 01-5.796-5.796v-27.396a5.792 5.792 0 015.796-5.796h55.62a5.792 5.792 0 015.796 5.796v27.396a5.792 5.792 0 01-5.796 5.796zM365.132 453.204h-55.62a5.792 5.792 0 01-5.796-5.796v-27.396a5.792 5.792 0 015.796-5.796h55.62a5.792 5.792 0 015.796 5.796v27.396a5.792 5.792 0 01-5.796 5.796zM365.132 499.14h-55.62a5.792 5.792 0 01-5.796-5.796v-27.396a5.792 5.792 0 015.796-5.796h55.62a5.792 5.792 0 015.796 5.796v27.396a5.792 5.792 0 01-5.796 5.796zM365.132 545.94h-55.62a5.792 5.792 0 01-5.796-5.796v-27.396a5.792 5.792 0 015.796-5.796h55.62a5.792 5.792 0 015.796 5.796v27.396a5.792 5.792 0 01-5.796 5.796zM365.132 592.38h-55.62a5.792 5.792 0 01-5.796-5.796v-27.396a5.792 5.792 0 015.796-5.796h55.62a5.792 5.792 0 015.796 5.796v27.396a5.792 5.792 0 01-5.796 5.796z"/>
    </g>
    <path fill="#C5F5FC" d="M70.364 489.888h133.2v16.92h-133.2z"/>
    <path d="M349.22 400.608h-23.796a5.055 5.055 0 01-5.04-5.04v-16.596a5.055 5.055 0 015.04-5.04h23.796a5.055 5.055 0 015.04 5.04v16.596a5.055 5.055 0 01-5.04 5.04z" fill="#FFF"/>
    <path d="M334.064 378.9l10.944 6.3c1.584.9 1.584 3.168 0 4.104l-10.944 6.3c-1.584.9-3.564-.216-3.564-2.052v-12.636c.036-1.764 2.016-2.916 3.564-2.016z" fill="#00E2D5"/>
    <g>
      <path d="M349.22 447.048h-23.796a5.055 5.055 0 01-5.04-5.04v-16.596a5.055 5.055 0 015.04-5.04h23.796a5.055 5.055 0 015.04 5.04v16.596a5.055 5.055 0 01-5.04 5.04z" fill="#FFF"/>
      <path d="M334.064 425.34l10.944 6.3c1.584.9 1.584 3.168 0 4.104l-10.944 6.3c-1.584.9-3.564-.216-3.564-2.052v-12.636c.036-1.764 2.016-2.916 3.564-2.016z" fill="#00E2D5"/>
    </g>
    <g>
      <path d="M350.516 492.876H326.72a5.055 5.055 0 01-5.04-5.04V471.24a5.055 5.055 0 015.04-5.04h23.796a5.055 5.055 0 015.04 5.04v16.596c.036 2.772-2.232 5.04-5.04 5.04z" fill="#FFF"/>
      <path d="M335.396 471.168l10.944 6.3c1.584.9 1.584 3.168 0 4.104l-10.944 6.3c-1.584.9-3.564-.216-3.564-2.052v-12.636c0-1.8 1.98-2.916 3.564-2.016z" fill="#00E2D5"/>
    </g>
    <g>
      <path d="M350.84 586.26h-23.796a5.055 5.055 0 01-5.04-5.04v-16.596a5.055 5.055 0 015.04-5.04h23.796a5.055 5.055 0 015.04 5.04v16.596c.036 2.736-2.232 5.04-5.04 5.04z" fill="#FFF"/>
      <path d="M335.72 564.552l10.944 6.3c1.584.9 1.584 3.168 0 4.104l-10.944 6.3c-1.584.9-3.564-.216-3.564-2.052v-12.636c0-1.8 1.98-2.952 3.564-2.016z" fill="#00E2D5"/>
    </g>
    <g>
      <path d="M350.516 538.524H326.72a5.055 5.055 0 01-5.04-5.04v-16.596a5.055 5.055 0 015.04-5.04h23.796a5.055 5.055 0 015.04 5.04v16.596c.036 2.772-2.232 5.04-5.04 5.04z" fill="#FFF"/>
      <path d="M335.396 516.816l10.944 6.3c1.584.9 1.584 3.168 0 4.104l-10.944 6.3c-1.584.9-3.564-.216-3.564-2.052v-12.636c0-1.8 1.98-2.952 3.564-2.016z" fill="#00E2D5"/>
    </g>
    <g>
      <path d="M430.076 293.688H279.56c-12.564 0-22.752-10.188-22.752-22.752V181.8c0-12.564 10.188-22.752 22.752-22.752h150.552c12.564 0 22.752 10.188 22.752 22.752v89.172c-.036 12.528-10.224 22.716-22.788 22.716z" fill="#FFF8EC"/>
      <path d="M394.508 268.896v-70.44a2.4 2.4 0 012.4-2.4h15.108a2.4 2.4 0 012.4 2.4v70.44a2.4 2.4 0 01-2.4 2.4h14.1v2.952H285.824v-2.952h111.084a2.4 2.4 0 01-2.4-2.4zm-13.272-57.864a2.4 2.4 0 012.4 2.4v55.464a2.4 2.4 0 01-2.4 2.4h-15.108a2.4 2.4 0 01-2.4-2.4v-55.464a2.4 2.4 0 012.4-2.4h15.108zm-31.464 12.42a2.4 2.4 0 012.4 2.4v43.044a2.4 2.4 0 01-2.4 2.4h-15.108a2.4 2.4 0 01-2.4-2.4v-43.044a2.4 2.4 0 012.4-2.4h15.108zM318.74 236.7a2.4 2.4 0 012.4 2.4v29.76a2.4 2.4 0 01-2.4 2.4h-15.108a2.4 2.4 0 01-2.4-2.4V239.1a2.4 2.4 0 012.4-2.4h15.108z" fill="#00E2D5"/>
    </g>
    <g>
      <path d="M363.728 361.944H77.312c-3.96 0-7.2-3.24-7.2-7.2v-13.716c0-3.96 3.24-7.2 7.2-7.2h286.416c3.96 0 7.2 3.24 7.2 7.2v13.716c0 3.96-3.24 7.2-7.2 7.2z" fill="#FFD169"/>
      <path d="M328.16 357.552H84.368c-5.04 0-9.144-4.104-9.144-9.144v-.504c0-5.04 4.104-9.144 9.144-9.144H328.16c5.04 0 9.144 4.104 9.144 9.144v.504a9.134 9.134 0 01-9.144 9.144z" fill="#FFF"/>
      <g fill="#FFF">
        <path d="M353.18 354.636c-2.844 0-5.688-1.224-7.524-3.6-1.548-1.944-2.196-4.356-1.872-6.804.324-2.484 1.62-4.644 3.672-6.156 4.14-3.06 10.08-2.304 13.248 1.728 1.548 1.944 2.196 4.356 1.872 6.804-.324 2.484-1.62 4.644-3.672 6.156-1.692 1.296-3.708 1.872-5.724 1.872zm0-15.516a6.787 6.787 0 00-3.996 1.296 6.325 6.325 0 00-2.52 4.212c-.216 1.656.216 3.276 1.296 4.608 2.196 2.808 6.336 3.312 9.252 1.188a6.325 6.325 0 002.52-4.212c.216-1.656-.216-3.276-1.296-4.608a6.794 6.794 0 00-5.256-2.484z"/>
        <path d="M364.736 360.108c-.972.72-2.376.54-3.132-.396l-4.86-6.192c-.756-.936-.54-2.304.432-3.024a2.302 2.302 0 013.132.396l4.86 6.192c.72.936.54 2.304-.432 3.024z"/>
      </g>
    </g>
    <g>
      <path d="M124.58 585.216H83.684a13.52 13.52 0 01-13.536-13.536v-40.896a13.52 13.52 0 0113.536-13.536h40.896a13.52 13.52 0 0113.536 13.536v40.896a13.52 13.52 0 01-13.536 13.536z" fill="#00E2D5"/>
      <path d="M117.115 562.773c0-5.438-3.524-10.127-8.351-11.93a8.881 8.881 0 004.356-7.658c0-4.911-3.996-8.879-8.879-8.879a8.87 8.87 0 00-8.878 8.879c0 3.274 1.803 6.131 4.439 7.657-4.8 1.832-8.213 6.493-8.213 11.931v5.133h25.554v-5.133h-.028z" fill="#FFF"/>
    </g>
    <g fill="#FFD169">
      <path d="M225.776 556.848h-71.64c-3.168 0-5.76-2.592-5.76-5.76 0-3.168 2.592-5.76 5.76-5.76h71.64c3.168 0 5.76 2.592 5.76 5.76 0 3.168-2.592 5.76-5.76 5.76zM244.532 534.888h-90.576a5.562 5.562 0 01-5.58-5.58 5.562 5.562 0 015.58-5.58h90.54a5.562 5.562 0 015.58 5.58c.036 3.096-2.484 5.58-5.544 5.58zM210.512 577.008h-56.556a5.562 5.562 0 01-5.58-5.58 5.562 5.562 0 015.58-5.58h56.556a5.562 5.562 0 015.58 5.58 5.562 5.562 0 01-5.58 5.58z"/>
    </g>
    <g>
      <g transform="translate(419.96 109.08)">
        <circle fill="#FFD169" transform="rotate(-79.444 38.575 38.387)" cx="38.575" cy="38.387" r="32.833"/>
        <path d="M38.556 7.452c17.064 0 30.96 13.896 30.96 30.96s-13.896 30.96-30.96 30.96-30.96-13.896-30.96-30.96 13.896-30.96 30.96-30.96zm0-3.78c-19.188 0-34.74 15.552-34.74 34.74 0 19.188 15.552 34.74 34.74 34.74 19.188 0 34.74-15.552 34.74-34.74 0-19.188-15.552-34.74-34.74-34.74z" fill="#4E67FF"/>
      </g>
      <path d="M458.516 125.136c.072.36.108.684.108.972v.936c0 .18 0 .396.036.576.036.18.036.396.036.648v.504c2.988.324 5.112 1.188 6.336 2.628 1.26 1.404 1.872 3.096 1.872 5.076v.252c0 .288-.396.432-1.152.432h-.432v-.036a47.136 47.136 0 00-.684-2.412 7.804 7.804 0 00-1.08-2.196c-.468-.684-1.08-1.224-1.836-1.692-.756-.468-1.728-.72-2.952-.828v3.456c0 1.152 0 2.052-.036 2.7-.036.684-.036 1.332-.036 1.98 0 .396 0 .792-.036 1.224-.036.432-.036.9-.036 1.44v4.608l2.124 1.656a35.58 35.58 0 012.772 2.376c.864.828 1.548 1.62 2.052 2.376a53.26 53.26 0 011.728 3.564c.54 1.152.792 2.412.792 3.78 0 .972-.324 1.872-1.008 2.628a9.346 9.346 0 01-2.412 2.016 13.065 13.065 0 01-2.988 1.332 13.84 13.84 0 01-2.736.576v.792c0 .072 0 .108.036.108s.036.072.036.108v1.26c0 .36-.036.648-.144.936-.108.288-.252.54-.468.72-.216.18-.468.288-.792.288-.216 0-.396-.036-.612-.108-.216-.072-.288-.18-.288-.36v-3.96c-2.88-.54-4.968-1.548-6.3-3.132-1.332-1.548-2.016-3.852-2.016-6.912v-.72c0-.108 0-.288.036-.54.036-.252.072-.504.144-.792.072-.252.18-.504.324-.684.144-.18.324-.288.54-.288.144 0 .36.036.684.144.324.108.468.252.468.432v.792c0 .252-.036.576-.108.936v1.404c0 2.592.684 4.536 2.016 5.76 1.332 1.224 2.736 2.052 4.212 2.412V146.16l-2.088-1.656c-.72-.504-1.404-1.08-2.052-1.656a17.433 17.433 0 01-1.836-1.8 8.704 8.704 0 01-1.368-2.088 5.703 5.703 0 01-.54-2.484c0-.972.18-1.908.54-2.808.36-.9.864-1.692 1.512-2.412a8.967 8.967 0 012.376-1.728 8.122 8.122 0 012.952-.756v-2.088c0-.36.036-.72.144-1.116.108-.36.324-.576.648-.576.252 0 .54.036.864.072.288.036.504.144.648.252v-.18zm-3.168 5.22c-1.188.54-2.124 1.44-2.844 2.628-.72 1.224-1.08 2.412-1.152 3.672v.18c0 1.368.504 2.556 1.512 3.564s2.088 1.908 3.204 2.772l.648.396v-7.596c0-.396 0-.756-.036-1.152-.036-.36-.036-.792-.036-1.26v-3.708c-.18.036-.612.18-1.296.504zm10.224 29.988c.072-.288.108-.648.144-1.044.036-.396.036-.792.036-1.188 0-.9-.216-1.836-.648-2.772a15.183 15.183 0 00-1.62-2.736 23.411 23.411 0 00-2.124-2.484 22.679 22.679 0 00-2.34-2.016l-.54-.396v1.044c0 1.224 0 2.412.036 3.456.036 1.08.072 2.16.144 3.276.072 1.224.108 2.52.144 3.888.036 1.368.036 2.88.036 4.608v.54c1.296-.144 2.592-.504 3.96-1.152 1.44-.648 2.34-1.656 2.772-3.024z" fill="#E8920A"/>
    </g>
    <g>
      <path d="M308.036 280.116c-2.556-.72-14.04 12.168-14.076 12.168-5.796 6.408-10.656 13.932-15.372 21.096-5.472 8.388-9.648 17.604-17.532 24.12-12.204 10.044-32.112 17.28-47.772 11.952-2.268 12.204-3.312 30.564 3.384 51.264.72 2.232 12.348-.612 14.04-.972 8.82-1.8 15.912-7.992 22.5-13.824 7.524-6.66 13.608-14.364 19.944-22.032 5.112-6.156 9.72-13.248 12.996-20.7 3.564-8.172 4.5-16.884 7.308-25.272 3.744-11.196 13.896-18.792 16.776-30.132 1.44-5.4.612-6.876-2.196-7.668z" fill="#FFD4D4"/>
      <path d="M125.552 263.916c0-7.74 7.02-5.04 7.02-5.04v-16.272s1.548-8.136 9.36-8.532c7.776-.396 22.968 0 22.968 0s7.02-1.152 8.568 9.684c1.548 10.836 0 55.728 0 55.728l-16.74 7.344-2.196 4.14-21.96-40.536c0 .036-7.02 1.224-7.02-6.516z" fill="#FFBDC0"/>
      <path d="M213.32 349.452c-11.232-3.852-25.956-12.456-33.192-16.596l-2.844 6.264c4.716 17.532 19.476 56.628 19.476 56.628s9.936 4.896 21.348 5.724c-6.696-20.664-7.056-39.816-4.788-52.02z" fill="#002060"/>
      <path d="M176.6 330.912c-1.296-.648-.792 2.736.684 8.244l2.844-6.264c-1.548-.9-2.772-1.584-3.528-1.98z" fill="#333"/>
      <path d="M187.004 506.7c12.78-43.452 30.384-92.232 16.884-137.664-6.192-20.88-14.796-33.912-34.812-41.76-13.572-5.328-28.836-6.12-43.272-5.796-8.856.18-17.712.396-26.532 1.332-8.892.936-17.712 2.52-26.424 4.68-3.924.972-7.704 1.872-11.556 3.132-9.612 3.204-19.728 6.48-26.532 14.508-8.892 10.476-15.732 22.716-20.808 35.352-7.272 18.036 56.34 126.36 56.34 126.36l116.712-.144z" fill="#FFF8EC"/>
      <path d="M132.572 270.468l-5.796 8.712a305.575 305.575 0 015.796-8.712z" fill="#A5A5A5"/>
      <path d="M99.308 322.812l21.276 66.888s17.064-8.028 19.224-20.7c0 0 6.156 10.584 20.736 13.968l-22.248-64.044-38.988 3.888z" fill="#002060"/>
      <path d="M126.776 279.216s-2.952 72.144 13.572 58.608c0 0 5.436 18.972.396 29.808-5.076 10.836-39.312-45.036-39.312-45.036s13.968-25.524 25.344-43.38z" fill="#FFD4D4"/>
      <path d="M126.776 279.216l5.796-8.712 21.96 40.536-14.148 26.82c-17.424 14.22-13.608-58.644-13.608-58.644z" fill="#E9B3B3"/>
      <path d="M182 268.8h-19.2v-14.4H182v14.4zm-16.8-2.618h14.4v-9.164h-14.4v9.164zM158 268.8h-19.2v-14.4H158v14.4zm-16.8-2.618h14.4v-9.164h-14.4v9.164z" fill="#002060"/>
      <path fill="#002060" d="M164.204 262.8H155.6v-2.4h8.604z"/>
      <path d="M158.852 243.792c4.932.252 9.864.648 14.76 1.188 0 0 7.452-3.672 8.676-11.052.144-.972-.828-1.728-1.764-1.332l-2.844 1.296c.108-2.376-.108-4.752-.972-6.912-1.116-2.844-4.212-7.992-7.74-7.632-.432.036-2.196 1.044-2.556.612-5.076-6.696-17.892-1.836-21.132-2.556-17.244-3.852-10.368 13.536-10.368 13.536-6.588 4.284-4.032 17.028-2.34 22.212v17.244s4.356 33.48 7.956 37.548c3.6 4.068 22.104 4.932 30.564 0 2.376-1.404 4.14-3.492 5.04-6.12.54-1.656.54-3.492.468-5.328-.072-1.692-1.656-2.916-3.348-2.592-6.732 1.296-14.04 2.7-20.196-.756-8.82-4.932-14.976-14.472-15.768-24.48-.504-6.516-.54-13.86 1.332-20.16 2.196-7.308 14.328-5.04 20.232-4.716zM63.596 434.844c0-17.964.756-36.072.396-54-.36-16.956-7.74-32.328-20.448-43.02 0 0-31.608 8.388-40.464 31.824-8.856 23.436 12.924 83.16 12.924 83.16l47.592-17.964z" fill="#002060"/>
      <path d="M304.436 282.744c-2.664 1.836-4.788 4.248-6.12 7.2-.576 1.26 1.296 2.34 1.872 1.08 1.188-2.592 2.988-4.788 5.364-6.444 1.116-.756.036-2.628-1.116-1.836zM306.02 285.228c-2.232 3.024-5.4 5.22-7.2 8.568-.648 1.224 1.188 2.304 1.872 1.08 1.8-3.312 5.004-5.544 7.2-8.568.828-1.116-1.044-2.196-1.872-1.08z" fill="#FFBDC0"/>
      <path d="M302.888 293.328l-1.512-.936c.036-.036.324-.504 2.88-4.248 2.772-4.032 6.156-5.292 6.3-5.328l.612 1.692-.288-.864.288.864c-.036 0-2.988 1.116-5.436 4.644-2.52 3.672-2.844 4.14-2.844 4.176z" fill="#FCA0A1"/>
      <path d="M319.34 272.16a1.978 1.978 0 00-.324.252c-.684.648-1.332 1.26-1.98 1.908-.036.036-.108.072-.144.108-1.116.936-2.196 1.872-3.24 2.88 1.8-2.16 3.6-4.284 5.436-6.444 1.8-2.124-1.26-5.256-3.096-3.096-.648.756-1.296 1.512-1.908 2.268-.18-1.656-2.88-2.7-4.14-.864-.396.576-.828 1.152-1.224 1.728-.9-.396-2.052-.252-2.808.756l-15.624 25.236c-1.62 2.304 1.404 2.376 3.024.108a635.217 635.217 0 002.34-3.312c.504 1.404 2.268 2.268 3.492.864l2.376-2.808c-.144.468-.108.972.072 1.404l-.216.324c-.972 1.368.288 3.024 1.656 3.276-.036.396.072.756.288 1.08-.684.324-1.404.648-2.16.936-2.592.972-1.476 5.22 1.152 4.212 7.308-2.772 13.32-8.064 16.776-15.12 1.08-2.268-1.512-4.284-3.42-2.628l-5.94 5.076c4.212-4.968 8.424-9.936 12.6-14.94 1.728-2.088-1.152-5.112-2.988-3.204z" fill="#FFBDC0"/>
      <path d="M197.768 503.928c-.108-.108-.18-.216-.324-.36-1.008-1.008-2.052-2.016-3.06-3.06a236.678 236.678 0 01-5.976-6.048c-.792-.864-2.304-2.952-3.204-4.392-.252-.396.036-.972.504-.972 2.664-.036 5.364.144 8.064-.144 1.224-.144 3.168-.468 2.916-2.196-.252-1.656-2.52-1.8-3.78-1.872-2.52-.144-5.076-.18-7.596-.396-3.78-.324-7.524-1.188-11.016-2.664-7.092-2.988-14.256-5.4-21.888-6.228-21.996-2.448-43.848-4.536-65.232-10.62-21.168-6.012-23.58-30.06-23.58-30.06-29.628-18.036-52.308 3.672-52.308 3.672 2.808 22.824 11.16 44.964 33.552 56.16 8.928 4.464 20.7 4.968 30.636 4.896.18-.036.36-.036.54-.072 25.92-3.456 54.72-9.18 80.712-4.464 3.276.612 7.236 1.728 10.296 3.456 3.204 1.764 5.724 5.004 8.496 7.452.972.864 2.016 1.656 3.096 2.448.936.684 2.124 1.764 3.312 2.016.468.108 1.008.036 1.404-.288 2.304-1.728-2.844-5.148-4.068-5.976 0 0 1.368.72 1.764 1.008 2.196 1.548 4.392 3.132 6.408 4.86.468.396.972.756 1.584.9.828.18 1.404-.216 1.728-.936.54-1.26-.756-2.34-1.584-3.096-1.404-1.26-2.844-2.484-4.212-3.78-.324-.288-1.152-1.152-1.152-1.152s1.332.9 1.584 1.08c.972.756 1.944 1.584 2.88 2.376.864.72 1.728 1.476 2.592 2.232.72.648 1.404 1.476 2.232 1.908l.216.108c.576.252 1.296.216 1.764-.18.396-.36.54-.9.468-1.44-.18-1.656-1.62-2.484-2.628-3.636-.072-.072-5.832-5.184-5.904-5.256.9.684 7.524 6.444 8.46 7.128.684.504 1.836.36 2.376-.252.684-.756.432-1.512-.072-2.16z" fill="#FFD4D4"/>
      <g>
        <path d="M245.084 494.748h-80.316c-13.572 0-24.696-11.124-24.696-24.696v-52.704c0-13.572 11.124-24.696 24.696-24.696h80.316c13.572 0 24.696 11.124 24.696 24.696v52.704c.036 13.572-11.088 24.696-24.696 24.696z" fill="#EF7272"/>
        <path d="M193.552 420.643l30.157 17.4c4.356 2.514 4.356 8.79 0 11.279l-30.157 17.4c-4.357 2.514-9.776-.623-9.776-5.654v-34.772c0-5.03 5.42-8.168 9.776-5.653z" fill="#FFF"/>
      </g>
      <g transform="translate(129.44)">
        <circle fill="#00E2D5" cx="66.528" cy="67.5" r="36.864"/>
        <path d="M66.78 25.488a3.211 3.211 0 01-3.204-3.204V3.456A3.211 3.211 0 0166.78.252a3.211 3.211 0 013.204 3.204v18.828a3.211 3.211 0 01-3.204 3.204zM98.136 38.304c-1.224-1.224-1.224-3.276 0-4.5l13.32-13.32c1.224-1.224 3.276-1.224 4.5 0 1.224 1.224 1.224 3.276 0 4.5l-13.32 13.32c-1.224 1.26-3.24 1.26-4.5 0zM108.072 67.32a3.211 3.211 0 013.204-3.204h18.828a3.211 3.211 0 013.204 3.204 3.211 3.211 0 01-3.204 3.204H111.24c-1.728 0-3.168-1.44-3.168-3.204zM34.524 38.304c1.224-1.224 1.224-3.276 0-4.5l-13.32-13.32c-1.224-1.224-3.276-1.224-4.5 0-1.224 1.224-1.224 3.276 0 4.5l13.32 13.32a3.151 3.151 0 004.5 0zM25.236 67.32a3.211 3.211 0 00-3.204-3.204H3.204A3.211 3.211 0 000 67.32a3.211 3.211 0 003.204 3.204h18.828a3.211 3.211 0 003.204-3.204zM66.744 40.32c-1.26 0-2.448.108-3.672.252-13.356 1.8-23.652 13.212-23.652 27.072s10.296 25.272 23.652 27.072c1.188.144 2.412.252 3.672.252 15.084 0 27.324-12.24 27.324-27.324 0-15.12-12.24-27.324-27.324-27.324z" fill="#FFF"/>
      </g>
      <g>
        <path d="M458.84 258.84c-31.752-.936-58.284 24.048-59.22 55.8-.252 9.108 1.584 17.748 5.112 25.524l52.38-23.796 1.728-57.528z" fill="#FFD161"/>
        <path d="M455.42 373.824c18.216.54 34.74-7.452 45.648-20.376l-43.956-37.116-52.38 23.796c8.82 19.332 28.044 33.048 50.688 33.696z" fill="#EF7272"/>
        <path d="M458.84 258.84l-1.692 57.492 20.736-53.676c-5.904-2.304-12.312-3.636-19.044-3.816z" fill="#00AEAE"/>
        <path d="M457.102 316.327l43.991 37.146c8.107-9.583 13.187-21.905 13.583-35.452.288-9.764-1.873-19.06-5.945-27.238l-51.63 25.544z" fill="#5AF3FF"/>
        <path d="M477.884 262.656l-20.736 53.676 51.588-25.524c-6.372-12.78-17.352-22.932-30.852-28.152z" fill="#83D0FF"/>
      </g>
    </g>
  </g>
</svg>
