<?xml version="1.0" encoding="UTF-8"?>
<svg width="70px" height="54px" viewBox="0 0 70 54" version="1.1" xmlns="http://www.w3.org/2000/svg" xmlns:xlink="http://www.w3.org/1999/xlink">
    <title>Group</title>
    <g id="Page-1" stroke="none" stroke-width="1" fill="none" fill-rule="evenodd">
        <g id="Home-" transform="translate(-1150.000000, -338.000000)" fill-rule="nonzero">
            <g id="107-copy" transform="translate(1031.000000, 139.000000)">
                <g id="Group" transform="translate(119.720009, 199.920016)">
                    <path d="M5.36986654,0.448001625 L63.1181376,0.448001625 C65.9397144,0.448001625 68.2440021,3.05265279 68.2440021,6.26195511 L68.2440021,46.6340481 C68.2440021,49.8433505 65.9397144,52.4480016 63.1181376,52.4480016 L5.36986654,52.4480016 C2.54828978,52.4480016 0.244002086,49.8433505 0.244002086,46.6340481 L0.244002086,6.26195511 C0.244002086,3.05265279 2.54828978,0.448001625 5.36986654,0.448001625 Z" id="Path" fill="#00E2D5"></path>
                    <g transform="translate(18.440001, 10.320000)" fill="#FFFFFF">
                        <path d="M11.988001,10.9440009 C9.21600073,10.9440009 6.44400051,10.9440009 3.67200029,10.9440009 C2.30400018,10.9440009 0.648000051,10.8720009 0.216000017,12.564001 C-0.108000009,13.9320011 0.864000069,15.0480012 2.08800017,15.4080012 C2.08800017,15.4080012 -1.44000011,17.7480014 2.08800017,20.0160016 C2.08800017,20.0160016 -1.00800008,22.3920018 2.62800021,24.4080019 C2.62800021,24.4080019 -0.108000009,27.0720022 3.24000026,28.6560023 C3.38400027,28.7280023 15.0120012,28.6560023 19.8000016,28.6560023 C20.9160017,28.6560023 21.8160017,27.7560022 21.8160017,26.6400021 L21.8160017,14.2560011 C21.8160017,14.0400011 21.7800017,13.8240011 21.7440017,13.6080011 C21.5280017,12.780001 20.7360016,10.7280009 18.2880015,8.89200071 C17.0280014,7.92000063 15.3720012,7.02000056 14.7960012,5.47200043 C14.2200011,3.88800031 15.3720012,1.72800014 13.6440011,0.648000051 C12.528001,-0.0360000029 11.4840009,0.576000046 10.8000009,1.51200012 C10.8360009,1.51200012 7.38000059,7.16400057 11.988001,10.9440009 Z" id="Path"></path>
                        <rect id="Rectangle" transform="translate(26.920154, 20.646974) rotate(-180.000000) translate(-26.920154, -20.646974) " x="23.5901539" y="12.528973" width="6.66000053" height="16.2360013"></rect>
                    </g>
                </g>
            </g>
        </g>
    </g>
</svg>