<svg xmlns="http://www.w3.org/2000/svg" xmlns:xlink="http://www.w3.org/1999/xlink" width="631" height="559.2" viewBox="0 0 631 559.2">
  <defs>
    <filter id="Rectangle" x="138.3" y="47.1" width="351" height="504" filterUnits="userSpaceOnUse">
      <feOffset dy="-36" input="SourceAlpha"/>
      <feGaussianBlur stdDeviation="22.5" result="blur"/>
      <feFlood flood-color="#2b4668" flood-opacity="0.09"/>
      <feComposite operator="in" in2="blur"/>
      <feComposite in="SourceGraphic"/>
    </filter>
    <linearGradient id="linear-gradient" x1="0.473" y1="0.251" x2="0.473" y2="0.868" gradientUnits="objectBoundingBox">
      <stop offset="0" stop-color="#fff" stop-opacity="0"/>
      <stop offset="1" stop-color="#fff"/>
    </linearGradient>
    <linearGradient id="linear-gradient-2" y1="0.5" x2="1" y2="0.5" gradientUnits="objectBoundingBox">
      <stop offset="0" stop-color="#fff"/>
      <stop offset="1" stop-color="#fff"/>
    </linearGradient>
    <filter id="Rectangle-2" x="203" y="0" width="428" height="304" filterUnits="userSpaceOnUse">
      <feOffset dy="52" input="SourceAlpha"/>
      <feGaussianBlur stdDeviation="37" result="blur-2"/>
      <feFlood flood-color="#ef7272" flood-opacity="0.494"/>
      <feComposite operator="in" in2="blur-2"/>
      <feComposite in="SourceGraphic"/>
    </filter>
  </defs>
  <g id="Group_63_Copy_2" data-name="Group 63 Copy 2" transform="translate(0 48)">
    <g id="Group_15" data-name="Group 15" transform="translate(205.8 102.6)">
      <g transform="matrix(1, 0, 0, 1, -205.8, -150.6)" filter="url(#Rectangle)">
        <g id="Rectangle-3" data-name="Rectangle" transform="translate(205.8 150.6)" fill="#fff" stroke="#ef7272" stroke-miterlimit="10" stroke-width="1.8">
          <path d="M27,0H189a27,27,0,0,1,27,27V369a0,0,0,0,1,0,0H0a0,0,0,0,1,0,0V27A27,27,0,0,1,27,0Z" stroke="none"/>
          <path d="M27,.9H189A26.1,26.1,0,0,1,215.1,27V367.2a.9.9,0,0,1-.9.9H1.8a.9.9,0,0,1-.9-.9V27A26.1,26.1,0,0,1,27,.9Z" fill="none"/>
        </g>
      </g>
      <path id="Rectangle_Copy_3" data-name="Rectangle Copy 3" d="M27,0H189a27,27,0,0,1,27,27V408.6a0,0,0,0,1,0,0H0a0,0,0,0,1,0,0V27A27,27,0,0,1,27,0Z" fill="url(#linear-gradient)"/>
      <path id="Rectangle-4" data-name="Rectangle" d="M0,0H83a0,0,0,0,1,0,0V6a8,8,0,0,1-8,8H8A8,8,0,0,1,0,6V0A0,0,0,0,1,0,0Z" transform="translate(67 1)" fill="#ef7272"/>
    </g>
    <g id="Group_3" data-name="Group 3">
      <g id="man_2" transform="translate(40 124)">
        <rect id="Rectangle-5" data-name="Rectangle" width="130" height="59.677" rx="10" transform="translate(215 133)" fill="#c5f5fc"/>
        <rect id="Rectangle-6" data-name="Rectangle" width="130" height="59.677" rx="10" transform="translate(214.95 199.008)" fill="#c5f5fc"/>
        <rect id="Rectangle-7" data-name="Rectangle" width="61.124" height="59.677" transform="translate(144.678 132.207)" fill="#dceae0"/>
        <rect id="Rectangle-8" data-name="Rectangle" width="61.124" height="59.677" transform="translate(144.678 198.406)" fill="#dceae0"/>
        <rect id="Rectangle-9" data-name="Rectangle" width="136" height="59.677" rx="10" transform="translate(6 133)" fill="#c5f5fc"/>
        <rect id="Rectangle-10" data-name="Rectangle" width="136" height="59.677" rx="10" transform="translate(6 199)" fill="#c5f5fc"/>
        <rect id="Rectangle-11" data-name="Rectangle" width="337.663" height="102.369" rx="10" transform="translate(7 24)" fill="#c5f5fc"/>
        <path id="Path" d="M64.825.222C55.367,5.9,51.043,14.849,46.047,24.175,38.88,37.718,16.105,47.285,1.358,42.226a81.285,81.285,0,0,0,2.55,39.7c.569,1.721,9.51-.465,10.836-.74C25.288,79,35.5,68.829,42.1,60.742A82.9,82.9,0,0,0,53.662,42.9c2.963-6.539,2.98-13.491,4.841-20.271C60.1,16.776,65,12.216,66.514,6.159,67.651,1.96,66.582-.828,64.825.222Z" transform="translate(225.943 111.457)" fill="#ffbdc0"/>
        <path id="Rectangle-12" data-name="Rectangle" d="M0,1.291A1.29,1.29,0,0,1,1.291,0H3.568A1.29,1.29,0,0,1,4.858,1.291L4.9,95.943a1.29,1.29,0,0,1-1.291,1.291H1.336A1.29,1.29,0,0,1,.046,95.943Z" transform="translate(251.451 59.415) rotate(-28.13)" fill="#002060"/>
        <path id="Path-2" data-name="Path" d="M27.788,13.078C19.174,10.1,7.115,3.2,1.482,0L0,5.162C3.652,18.739,15.023,49.025,15.023,49.025a49.868,49.868,0,0,0,16.47,4.44C26.307,37.358,26.048,22.525,27.788,13.078Z" transform="translate(199.513 140.605)" fill="#60c7e2"/>
        <path id="Path-3" data-name="Path" d="M12.582,8.7a16.018,16.018,0,0,1,18.95,2.684A14.426,14.426,0,0,0,30.24,7.773C26.433.443,16.923-2.156,9.016,1.94S-2.234,15.327,1.573,22.589a13.767,13.767,0,0,0,2.24,3.132A15.964,15.964,0,0,1,12.582,8.7Z" transform="translate(232.068 32.596)" fill="#164289"/>
        <path id="Path-4" data-name="Path" d="M19.2,21.638A15.981,15.981,0,0,0,27.914,4.55,16.521,16.521,0,0,0,.194,19.022,16.018,16.018,0,0,0,19.2,21.638Z" transform="translate(235.738 39.484)" fill="#002060"/>
        <path id="Path-5" data-name="Path" d="M119.388,118.874c6.891-20.477,12.163-42.056,13.283-63.669a110.932,110.932,0,0,0,0-13.543c-.689-9.568-3.1-18.791-9.062-26.879C115.477,3.771,103.452.915,90.876.226c2.532,8.122,6.236,23.4,9.63,50.574L95.2,52.022S93.236,22.39,85.415.054H81.97A352.764,352.764,0,0,0,42.191,1.6c2.515,8.415,6.012,23.489,9.234,49.231L46.1,52.056S44.275,24.3,37.074,2.257c-6.46.895-13.782,1.841-19.64,4.56A43.525,43.525,0,0,0,3,18.484c-6.443,7.606.431,26.655-1.912,37.066L0,54.861s6.719,46.341,15.5,76.97H116.149C117.39,125.964,119.112,119.786,119.388,118.874Z" transform="translate(86.62 131.878)" fill="#fff"/>
        <path id="Path-6" data-name="Path" d="M14.351,49.231C11.129,23.42,7.632,8.415,5.117,0L1.1.5,0,.654c7.2,22.043,9.027,49.8,9.027,49.8Z" transform="translate(123.729 133.429)" fill="#02787c"/>
        <path id="Path-7" data-name="Path" d="M15.091,50.746C11.646,23.575,7.994,8.294,5.461.172,3.738.069,1.826.017,0,0,7.821,22.37,9.785,51.968,9.785,51.968Z" transform="translate(172.001 131.915)" fill="#02787c"/>
        <path id="Path-8" data-name="Path" d="M29.459,24.4S16.039,31.8,0,0C.4,7.761,0,15.8.81,23.506,1.792,32.3,14.592,42.28,23.55,39.131a11.329,11.329,0,0,0,6.34-6.384,65.8,65.8,0,0,0-.431-8.346Z" transform="translate(136.65 117.168)" fill="#ffbdc0"/>
        <path id="Path-9" data-name="Path" d="M30.39,38.081h0C29.2,30.854,28.667,18.12,28.357,5.162,16.711,16.864,0,0,0,0H0C.379,4.009.689,8.81.93,13.68h0C16.918,45.48,30.39,38.081,30.39,38.081Z" transform="translate(135.719 103.488)" fill="#fca0a1"/>
        <path id="Path-10" data-name="Path" d="M34.525.1C10.94-1.119,11.182,8.913,10.406,10.135s-6.323,0-6.323,0h0V12.1S-.068,10.548,0,15.779a5.87,5.87,0,0,0,5.168,5.833,55.264,55.264,0,0,1,1.275,8.432h0s16.711,17,28.357,5.162C34.422,21.836,34.439,8.208,34.525.1Z" transform="translate(129.327 73.357)" fill="#ffbdc0"/>
        <path id="Path-11" data-name="Path" d="M30.683,5.958C13.3-7.447,0,5.958,0,5.958V17.745l.172,5.317s5.513,1.308,6.323.086c.155-.241.19-.757.448-1.48h0a10.217,10.217,0,0,1,1.1-2.237,10.587,10.587,0,0,1,1.516-1.721,12.714,12.714,0,0,1,2.119-1.531c3.359-1.944,9.1-3.442,18.95-2.874C30.7,8.745,30.683,5.958,30.683,5.958Z" transform="translate(133.187 60.533)" fill="#002060"/>
        <path id="Path-12" data-name="Path" d="M2.169.222C11.644,5.9,15.951,14.849,20.947,24.175c7.167,13.543,29.959,23.11,44.689,18.051a81.234,81.234,0,0,1-2.6,39.7c-.569,1.721-9.527-.465-10.836-.74C41.638,79,31.439,68.829,24.823,60.742A83.55,83.55,0,0,1,13.264,42.9C10.3,36.358,10.283,29.406,8.44,22.627,6.82,16.776,1.928,12.3.412,6.159-.622,1.96.412-.828,2.169.222Z" transform="translate(9.631 113.04)" fill="#ffbdc0"/>
        <path id="Rectangle-13" data-name="Rectangle" d="M0,1.291A1.29,1.29,0,0,1,1.291,0L95.943.046a1.29,1.29,0,0,1,1.289,1.289l0,2.277A1.291,1.291,0,0,1,95.943,4.9L1.291,4.858A1.29,1.29,0,0,1,0,3.568Z" transform="translate(0.056 146.712) rotate(-61.83)" fill="#002060"/>
        <path id="Path-13" data-name="Path" d="M35.489,8.847a3.017,3.017,0,0,0-1.516-.533,30.561,30.561,0,0,0-12.766,1.5c-7.046,2.478-10.423-.792-13.782-1.5,0,0-.861-8.07-2.911-8.26A4.62,4.62,0,0,0,.586,1.31c-1,1.411-.448,4.181-.31,5.851a10.5,10.5,0,0,0,.655,3.252c.19.43,1.619,1.841,1.637,2A30.068,30.068,0,0,0,5.1,22.906c1.5,2.977,4.393,3.734,7.339,3.614a21.144,21.144,0,0,0,4.979-.568,7.894,7.894,0,0,0,2.343-1.1c.448-.293,1.275-1.394,1.723-1.325,0,0,10.733,1.411,13.231-1.721C36.454,19.6,38.659,11.17,35.489,8.847Z" transform="translate(132.342 97.239)" fill="#002060"/>
        <path id="Path-14" data-name="Path" d="M47.514,9.549A11.539,11.539,0,0,0,36.058.05a26.766,26.766,0,0,0-10.7,1.531A30.066,30.066,0,0,0,15.9,7.725c-3.945,3.442-8.131,6.677-12.2,10,0,0,1.482,24.28-3.7,40.3a54.045,54.045,0,0,0,27.254-5.541A36.153,36.153,0,0,0,44.172,34.19C46.739,28.167,49.478,17.327,47.514,9.549Z" transform="translate(71.563 137.544)" fill="#60c7e2"/>
        <path id="Path-15" data-name="Path" d="M30.107,11.908A15.313,15.313,0,0,1,1.922,0,15.346,15.346,0,1,0,29.366,13.68a16.028,16.028,0,0,0,.982-2.237Z" transform="translate(37.132 44.74)" fill="#164289"/>
        <path id="Path-16" data-name="Path" d="M30.58,11.064c0-.12-.224-.155-.276,0L24.912,21.389a1.723,1.723,0,0,1-1.275.809,2.532,2.532,0,0,1-2.877-2.426,1.908,1.908,0,0,1,.207-.74l6-11.529.6-1.187a1.2,1.2,0,0,0-.241-1.394l-.879-.86a1.362,1.362,0,0,0-2.188.1l-6.891,13.2a1.723,1.723,0,0,1-1.275.809,2.532,2.532,0,0,1-2.877-2.426A1.805,1.805,0,0,1,13.4,15L19.572,3.217l.6-1.17A1.359,1.359,0,0,0,19.021.189L17.8.017a1.293,1.293,0,0,0-1.309.6L9.8,13.421a1.723,1.723,0,0,1-1.275.809A2.532,2.532,0,0,1,5.652,11.8a1.908,1.908,0,0,1,.207-.74l4.393-8.432.827-1.566a.155.155,0,0,0-.19-.189A16.343,16.343,0,0,0,1.982,8.724,17.2,17.2,0,0,0,1,10.978,15.313,15.313,0,0,0,29.185,22.9l.241-.482A16.33,16.33,0,0,0,30.58,11.064Z" transform="translate(38.02 33.797)" fill="#002060"/>
        <path id="Path-17" data-name="Path" d="M0,6.246,9.768,49.765l21.9-3.459L32.216,0,0,6.246Z" transform="translate(132.205 24.676)" fill="#fff"/>
        <path id="Path-18" data-name="Path" d="M0,1.755l12.318,42.83,8.8-1.067L11.353,0,0,1.755Z" transform="translate(120.852 30.922)" fill="#dbd9d9"/>
        <path id="Path-19" data-name="Path" d="M10.585,12.042S22.334-11.378,42.594,7.1c-.293-.31,3.652-3.183,3.98-3.338C53.017.5,59.529,5.882,61.062,12.128a9.97,9.97,0,0,1-.9,7.365,6.32,6.32,0,0,1-2.67,2.5c-.81.4-3.446.413-3.876,1.239,0,0-8.045,18.67-26.169,7.434a21.876,21.876,0,0,0-4.083,1.721A37.488,37.488,0,0,1,14.2,34.688a12.9,12.9,0,0,1-9.027-1.721C1.437,30.231.283,23.64.007,19.321-.2,12.2,4.159,10.167,10.585,12.042Z" transform="translate(108.906 3.445)" fill="#dbd9d9"/>
        <path id="Path-20" data-name="Path" d="M10.761,12.1S22.82-11.369,43.493,7.061c-.31-.31,3.738-3.183,4.066-3.356,6.6-3.287,13.231,2.082,14.764,8.329a9.73,9.73,0,0,1-.93,7.365,6.613,6.613,0,0,1-2.722,2.512c-.844.4-3.6.413-3.962,1.239,0,0-8.287,18.722-26.755,7.537a23.307,23.307,0,0,0-4.186,1.721A39.955,39.955,0,0,1,14.4,34.731,13.4,13.4,0,0,1,5.179,33.01C1.372,30.274.217,23.7.011,19.382-.248,12.378,4.214,10.331,10.761,12.1Z" transform="translate(107.627 0.356)" fill="#fff"/>
        <path id="Path-21" data-name="Path" d="M2.412,28.462Q5.323,17.535,7.287,6.246L6.684,0A235.087,235.087,0,0,1,0,28.462Z" transform="translate(198.376 235.196)" fill="#02787c"/>
        <path id="Path-22" data-name="Path" d="M11.646,27.636,9.045,0A249.506,249.506,0,0,1,0,56.1H4.962a235.088,235.088,0,0,0,6.684-28.462Z" transform="translate(193.415 207.56)" fill="#02787c"/>
        <path id="Path-23" data-name="Path" d="M.637,0,.379,2.736h.965C1.1,1.824.879.912.637,0Z" transform="translate(110.618 260.922)" fill="#02787c"/>
        <path id="Path-24" data-name="Path" d="M0,14.145H5.03L3.7,0,3.29,1.273C3.015,2.151,1.292,8.329,0,14.145Z" transform="translate(202.718 249.513)" fill="#02787c"/>
        <path id="Path-25" data-name="Path" d="M5.547,1.858C5.461,1.222,5.392.619,5.306,0L0,.258C.155,1.979.224,3.08.224,3.08Z" transform="translate(132.532 180.802)" fill="#02787c"/>
        <path id="Path-26" data-name="Path" d="M0,22.215H1.93C3.273,16.4,4.91,10.17,5.22,9.309l.413-1.273L4.875,0Q2.911,11.288,0,22.215Z" transform="translate(200.788 241.443)" fill="#02787c"/>
        <path id="Path-27" data-name="Path" d="M5.7,4.233C5.53,2.788,5.341,1.377,5.168,0L0,.241C.31,3.51.448,5.4.448,5.4Z" transform="translate(181.39 178.428)" fill="#02787c"/>
        <path id="Path-28" data-name="Path" d="M2.653,55.082a173.74,173.74,0,0,0,9.027,28.29,173.74,173.74,0,0,1-9.027-28.29L2,61.965a155.74,155.74,0,0,0,8.218,21.493A155.74,155.74,0,0,1,2,61.965l-.9,9.5C2.274,76.248,3.5,80.98,4.7,85.712,3.5,80.98,2.274,76.248,1.1,71.464L0,83.148c.241.912.465,1.824.706,2.736H82.159a249.506,249.506,0,0,0,9.045-56.1L88.4,0,75.3.654c.172,1.377.362,2.788.534,4.233L70.53,6.109s-.138-1.944-.448-5.162L26.582,3.08c.086.619.155,1.222.241,1.858L21.5,6.16a25.561,25.561,0,0,0-.224-2.822L7.494,4.009Z" transform="translate(111.256 177.705)" fill="#02787c"/>
        <path id="Path-29" data-name="Path" d="M13.459,4.955A5.267,5.267,0,0,0,11.736,2.8,19.039,19.039,0,0,0,8.79.911c-1.843-.895-4.324-1.5-6.012,0a4.817,4.817,0,0,0-1.24,1.962C.417,5.884-1.03,11.58,1.072,14.367a12.362,12.362,0,0,0,1.55,1.6c.431.43.792.929,1.258,1.359.861.809,2.033,1.463,3.049.516a1.857,1.857,0,0,0,.31-2.478l-.5-.585.551.241h0a1.913,1.913,0,0,0,2.55-.878A1.961,1.961,0,0,0,8.962,11.6L7.532,10.7,5.293,9.084l-.465-.4a24.12,24.12,0,0,1,3.6,2.461,1.724,1.724,0,0,0,1.723.379,2,2,0,0,0,1.085-3.442,24.983,24.983,0,0,0-3.98-2.581l-.5-.31a14.219,14.219,0,0,1,3.756,1.962A1.965,1.965,0,0,0,13.6,6.09,2.166,2.166,0,0,0,13.459,4.955Z" transform="translate(6.869 111.043)" fill="#ffbdc0"/>
        <path id="Path-30" data-name="Path" d="M.153,4.955A5.009,5.009,0,0,1,1.876,2.8,17.523,17.523,0,0,1,4.822.911c1.843-.895,4.324-1.5,6.012,0a5.162,5.162,0,0,1,1.24,1.962c1.1,3.011,2.55,8.707.465,11.495a13.619,13.619,0,0,1-1.55,1.6c-.448.43-.81.929-1.258,1.359-.861.809-2.033,1.463-3.067.516a1.874,1.874,0,0,1-.293-2.478l.5-.585-.551.241h0a1.913,1.913,0,0,1-2.532-.878A1.943,1.943,0,0,1,4.667,11.6L6.1,10.7,8.319,9.1,8.8,8.689a23.224,23.224,0,0,0-3.618,2.478,1.724,1.724,0,0,1-1.723.361A2,2,0,0,1,2.393,8.086a24.225,24.225,0,0,1,3.98-2.581l.482-.31A14.494,14.494,0,0,0,3.1,7.157,1.965,1.965,0,0,1,.033,6.09,2.028,2.028,0,0,1,.153,4.955Z" transform="translate(282.191 108.514)" fill="#ffbdc0"/>
      </g>
      <g id="Group" transform="translate(0 91)">
        <path id="Path-31" data-name="Path" d="M7.324,0H73.676C77.726,0,81,3.748,81,8.395V66.863c0,4.646-3.274,8.412-7.324,8.412H7.324C3.274,75.171,0,71.44,0,66.794V8.395C0,3.748,3.274,0,7.324,0Z" transform="translate(0 0)" fill="#ffbdc0"/>
        <path id="Path-32" data-name="Path" d="M0,42.812A19.257,19.257,0,0,1,12.477,24.917a13.346,13.346,0,1,1,13.443,0A19.12,19.12,0,0,1,38.225,42.812v7.7H0Z" transform="translate(21.06 9.905)" fill="#fff"/>
      </g>
    </g>
    <path id="Combined_Shape" data-name="Combined Shape" d="M3.507,56.849A30.125,30.125,0,1,1,30.176,72.9,30.142,30.142,0,0,1,3.507,56.849ZM57.642,11.888A8.093,8.093,0,1,1,64.807,16.2,8.1,8.1,0,0,1,57.642,11.888Z" transform="translate(80.9 450.9) rotate(180)" fill="#8cebe6"/>
    <path id="Fill_57" data-name="Fill 57" d="M0,.135H130.759" transform="translate(228.248 201.498)" fill="#fff"/>
    <g id="Group_59" data-name="Group 59" transform="translate(277 330)">
      <rect id="Rectangle-14" data-name="Rectangle" width="224.64" height="158.976" rx="5.76" fill="#8cebe6"/>
      <path id="Fill_88" data-name="Fill 88" d="M0,0V24.431A4.345,4.345,0,0,0,4.32,28.8h216a4.345,4.345,0,0,0,4.319-4.369h0V0Z" transform="translate(0 130.176)" fill="url(#linear-gradient-2)"/>
      <path id="Stroke_93" data-name="Stroke 93" d="M168.852,0a1.152,1.152,0,0,1,.086,2.3l-.086,0H1.152A1.152,1.152,0,0,1,1.066,0l.086,0Z" transform="translate(28.224 144.576)" fill="#d0d2d3"/>
      <path id="Stroke_98" data-name="Stroke 98" d="M128.447,0a1.152,1.152,0,0,1,.086,2.3l-.086,0H1.152A1.152,1.152,0,0,1,1.066,0l.086,0Z" transform="translate(23.388 144.576)" fill="#ef7272"/>
      <path id="Fill_100" data-name="Fill 100" d="M0,6.912V0L6.323,3.456Z" transform="translate(10.368 142.209)" fill="#d0d2d3"/>
      <path id="Stroke_104" data-name="Stroke 104" d="M1.152,0A1.152,1.152,0,0,1,2.3,1.066l0,.086V6.279A1.152,1.152,0,0,1,0,6.365l0-.086V1.152A1.152,1.152,0,0,1,1.152,0Z" transform="translate(204.992 142.302)" fill="#d0d2d3"/>
      <path id="Stroke_108" data-name="Stroke 108" d="M1.152,0A1.152,1.152,0,0,1,2.3,1.066l0,.086V7.839A1.152,1.152,0,0,1,0,7.925l0-.086V1.152A1.152,1.152,0,0,1,1.152,0Z" transform="translate(209.361 140.741)" fill="#d0d2d3"/>
      <path id="Stroke_112" data-name="Stroke 112" d="M1.152,0A1.152,1.152,0,0,1,2.3,1.066l0,.086V10.18a1.152,1.152,0,0,1-2.3.086l0-.086V1.152A1.152,1.152,0,0,1,1.152,0Z" transform="translate(213.731 138.4)" fill="#d0d2d3"/>
      <g id="Group_19" data-name="Group 19" transform="translate(88.128 51.84)">
        <path id="Path-33" data-name="Path" d="M39.172,38.016H9.212A9.236,9.236,0,0,1,0,28.82V9.2A9.236,9.236,0,0,1,9.212,0h29.96a9.236,9.236,0,0,1,9.212,9.2V28.82A9.219,9.219,0,0,1,39.172,38.016Z" transform="translate(0 0)" fill="#ef7272"/>
        <path id="Path-34" data-name="Path" d="M3.65.32,14.908,6.6a2.31,2.31,0,0,1,0,4.073L3.65,16.96A2.432,2.432,0,0,1,0,14.919V2.361A2.432,2.432,0,0,1,3.65.32Z" transform="translate(16.704 9.792)" fill="#fff"/>
      </g>
    </g>
    <path id="Fill_102" data-name="Fill 102" d="M.135,8.01V0" transform="translate(546.665 384.346)" fill="#d0d2d3"/>
    <path id="Fill_106" data-name="Fill 106" d="M.135,10.449V0" transform="translate(553.492 381.908)" fill="#d0d2d3"/>
    <path id="Fill_110" data-name="Fill 110" d="M.135,14.106V0" transform="translate(560.32 378.25)" fill="#d0d2d3"/>
    <g id="Group_Copy_2" data-name="Group Copy 2" transform="translate(0 352)">
      <path id="Path-35" data-name="Path" d="M4.068,0H65.224a4.4,4.4,0,0,1,4.068,4.644V46.936a4.376,4.376,0,0,1-4.068,4.644H4.068A4.4,4.4,0,0,1,0,46.936V4.644C.036,2.052,1.836,0,4.068,0Z" fill="#ef7272"/>
      <path id="Path-36" data-name="Path" d="M0,20.363a9.216,9.216,0,0,1,5.878-8.549A6.34,6.34,0,0,1,2.816,6.342a6.261,6.261,0,1,1,12.52,0,6.329,6.329,0,0,1-3.122,5.472A9.093,9.093,0,0,1,18,20.332V24H0V20.363Z" transform="translate(25.584 13.896)" fill="#fff"/>
    </g>
    <g id="Group_21" data-name="Group 21" transform="translate(314 11)">
      <g transform="matrix(1, 0, 0, 1, -314, -59)" filter="url(#Rectangle-2)">
        <rect id="Rectangle-15" data-name="Rectangle" width="206" height="82" rx="21" transform="translate(314 59)" fill="#ef7272"/>
      </g>
      <g id="Group_20" data-name="Group 20" transform="translate(27 8)">
        <text id="_12_44_2" data-name="12,44,2" fill="#fff" font-size="30" font-family="SegoeUI, Segoe UI"><tspan x="29.566" y="32">12,44,2</tspan></text>
        <text id="Subscriber" transform="translate(11 52)" fill="#fff" font-size="11" font-family="SegoeUI, Segoe UI" letter-spacing="0.545em"><tspan x="0" y="0">SUBSCRIBER</tspan></text>
      </g>
    </g>
  </g>
</svg>
