<svg xmlns="http://www.w3.org/2000/svg" xmlns:xlink="http://www.w3.org/1999/xlink" width="669.886" height="697.025" viewBox="0 0 669.886 697.025">
  <defs>
    <filter id="Rectangle" x="149.098" y="95.104" width="399.24" height="573.66" filterUnits="userSpaceOnUse">
      <feOffset dy="-42" input="SourceAlpha"/>
      <feGaussianBlur stdDeviation="25.5" result="blur"/>
      <feFlood flood-color="#2b4668" flood-opacity="0.09"/>
      <feComposite operator="in" in2="blur"/>
      <feComposite in="SourceGraphic"/>
    </filter>
    <linearGradient id="linear-gradient" x1="0.473" y1="0.251" x2="0.473" y2="0.868" gradientUnits="objectBoundingBox">
      <stop offset="0" stop-color="#fff" stop-opacity="0"/>
      <stop offset="1" stop-color="#fff"/>
    </linearGradient>
    <linearGradient id="linear-gradient-2" y1="0.5" x2="1" y2="0.5" gradientUnits="objectBoundingBox">
      <stop offset="0" stop-color="#fff"/>
      <stop offset="1" stop-color="#fff"/>
    </linearGradient>
    <filter id="Rectangle-2" x="183.046" y="0" width="486.84" height="345.48" filterUnits="userSpaceOnUse">
      <feOffset dy="59" input="SourceAlpha"/>
      <feGaussianBlur stdDeviation="42" result="blur-2"/>
      <feFlood flood-color="#ef7272" flood-opacity="0.494"/>
      <feComposite operator="in" in2="blur-2"/>
      <feComposite in="SourceGraphic"/>
    </filter>
  </defs>
  <g id="Group_22" data-name="Group 22" transform="translate(-0.034 67)">
    <g id="Group_15" data-name="Group 15" transform="translate(225.632 146.604)">
      <g transform="matrix(1, 0, 0, 1, -225.6, -213.6)" filter="url(#Rectangle)">
        <g id="Rectangle-3" data-name="Rectangle" transform="translate(225.6 213.6)" fill="#fff" stroke="#ef7272" stroke-miterlimit="10" stroke-width="2.052">
          <path d="M30.78,0H215.46a30.78,30.78,0,0,1,30.78,30.78V420.66a0,0,0,0,1,0,0H0a0,0,0,0,1,0,0V30.78A30.78,30.78,0,0,1,30.78,0Z" stroke="none"/>
          <path d="M30.78,1.026H215.46A29.754,29.754,0,0,1,245.214,30.78V418.608a1.026,1.026,0,0,1-1.026,1.026H2.052a1.026,1.026,0,0,1-1.026-1.026V30.78A29.754,29.754,0,0,1,30.78,1.026Z" fill="none"/>
        </g>
      </g>
      <path id="Rectangle_Copy_3" data-name="Rectangle Copy 3" d="M30.78,0H215.46a30.78,30.78,0,0,1,30.78,30.78V465.8a0,0,0,0,1,0,0H0a0,0,0,0,1,0,0V30.78A30.78,30.78,0,0,1,30.78,0Z" fill="url(#linear-gradient)"/>
      <path id="Rectangle-4" data-name="Rectangle" d="M0,0H94.62a0,0,0,0,1,0,0V6.84a9.12,9.12,0,0,1-9.12,9.12H9.12A9.12,9.12,0,0,1,0,6.84V0A0,0,0,0,1,0,0Z" transform="translate(76.38 1.14)" fill="#ef7272"/>
    </g>
    <g id="Asset_3" data-name="Asset 3" transform="translate(0 106.4)">
      <g id="Group" transform="translate(0 213.739)" opacity="0.32">
        <path id="Path" d="M75.519,0H408.754A16.851,16.851,0,0,1,420.929,4.86l59.342,60.826C489.378,75.01,482,89.628,468.1,89.628H16.128c-13.807,0-21.185-14.569-12.175-23.942L63.344,4.908A16.851,16.851,0,0,1,75.519,0Z" transform="translate(0.034 5.573)" fill="#00797d"/>
        <path id="Path-2" data-name="Path" d="M74.121,0H401.488a16.436,16.436,0,0,1,11.859,4.856l58.295,60.7c8.937,9.324,1.7,23.942-11.859,23.942H15.826C2.239,89.5-4.993,74.936,3.943,65.563l58.295-60.7A16.46,16.46,0,0,1,74.121,0Z" transform="translate(4.354 0.962)" fill="#82cbce"/>
      </g>
      <g id="Group-2" data-name="Group" transform="translate(137.396 0.711)">
        <path id="Path-3" data-name="Path" d="M10.082,1.059A2.834,2.834,0,0,0,6.1.62L0,5.5c1,1.463,2.148,3,3.418,4.51l6.2-4.876a2.8,2.8,0,0,0,.464-4.071Z" transform="translate(320.249 381.734)" fill="#fff"/>
        <path id="Path-4" data-name="Path" d="M2.11,60.8S-7.941,21.556,15.834,3.754,64.148,37.914,77.9,25.534C77.9,25.534,56.8,90.022,2.11,60.8Z" transform="translate(130.637 0.837)" fill="#002060"/>
        <ellipse id="Oval" cx="9.056" cy="9.044" rx="9.056" ry="9.044" transform="translate(140.584 53.866)" fill="#002060"/>
        <path id="Path-5" data-name="Path" d="M19.76,48.4a137.888,137.888,0,0,1-1.172-21.525c0-4.1.269-8.191.537-12.189.22-3.218,2.441-11.165,1.221-13.968.146,5.314-3.979-8.849-12.523,7.313C.793,21.215-.648,37.89.231,53.15,5.846,45.617,19.76,48.4,19.76,48.4Z" transform="translate(0.966 41.329)" fill="#ffd4d4"/>
        <path id="Path-6" data-name="Path" d="M88.514,71.367A218.737,218.737,0,0,1,55.047,51.451,112.836,112.836,0,0,1,34.688,32.193C27.731,23.563,23.264,11.764,20.578.307,5.932-1.546.1,5.6,0,5.718A123.117,123.117,0,0,0,66.349,97.939S91.663,93.868,88.514,71.367Z" transform="translate(2.296 101.364)" fill="#ffd4d4"/>
        <path id="Path-7" data-name="Path" d="M21.75,12.437C20.8,8.366,20.066,4.319,19.529.492c0,0-13.914-2.779-19.529,4.876C.146,8.2.391,10.974.684,13.68c.146,1.438.342,2.877.537,4.29C1.269,17.727,7.03,10.584,21.75,12.437Z" transform="translate(1.197 89.234)" fill="#002060"/>
        <path id="Path-8" data-name="Path" d="M111.967,92.386a175.219,175.219,0,0,1,14.842-40.735c3.71-7.508,6.542-18.186,3.833-26.352a15.949,15.949,0,0,0-7.47-8.654,83.388,83.388,0,0,0-9.276-4.485A135.364,135.364,0,0,0,64.268.214,66,66,0,0,0,41.3,2.408,50.665,50.665,0,0,0,24.014,12.939,148.226,148.226,0,0,0,9.367,27.3,38.283,38.283,0,0,0,.75,42.753C-4.962,65.107,23.819,74.029,23.819,74.029s-.806,5.729-1.562,14.212C39.466,105.257,111.967,92.386,111.967,92.386Z" transform="translate(49.416 169.3)" fill="#60c7e2"/>
        <path id="Path-9" data-name="Path" d="M89,2.8h0S30.636,25.645,0,0H0A88.946,88.946,0,0,0,6.42,31.008L3.979,67.575,84.535,61.48l-5.981-31.2S81.338,28.424,89,2.8Z" transform="translate(70.866 268.17)" fill="#ffd4d4"/>
        <path id="Path-10" data-name="Path" d="M6.788,55.4S-11.349,32.121,11.67,5.622c16.868-19.5,6.859,17.991,6.859,17.991Z" transform="translate(96.74 58.044)" fill="#002060"/>
        <path id="Path-11" data-name="Path" d="M5.859,23.921,0,43.838S40.791,47.884,32.32,2.883C29.855-9.891,5.859,23.921,5.859,23.921Z" transform="translate(144.661 82.357)" fill="#002060"/>
        <path id="Path-12" data-name="Path" d="M49.457,32.032,61.418,3.974,12.206,0S3.344,22.354,0,57.385c11.815,26.815,43.012,0,43.061,0a76.951,76.951,0,0,1,4.663-17.064c-.537,1.219,6.3,4.437,7.1,4.607,5.956,1.39,11.546-4.876,9.032-10.458C60.954,28.449,54.485,29.594,49.457,32.032Z" transform="translate(101.014 75.44)" fill="#ffd4d4"/>
        <path id="Path-13" data-name="Path" d="M40.2,12.731a3,3,0,0,1-2.734-1.39c-.684-1.121-1.391-2.438-1.587-2.779A17.852,17.852,0,0,0,18.5.128C11.18,1.1,5.419,4.443,2.441,11.293A31.655,31.655,0,0,0,0,21.776c0,1.487.732,15.48,2.124,15.236,0,0,11.034-1.926,12.206-1.341l5.053-9.507,1.88,10.848A56,56,0,0,1,47.65,51.151s25.461-8.9,24.411-20.112S59.563,11.464,40.2,12.731Z" transform="translate(105.017 53.884)" fill="#002060"/>
        <path id="Path-14" data-name="Path" d="M7.323,3.657A3.662,3.662,0,1,1,3.662,0,3.659,3.659,0,0,1,7.323,3.657Z" transform="translate(93.959 286.648)" fill="#fca0a1"/>
        <path id="Path-15" data-name="Path" d="M.024,10.629C30.66,36.274,89,13.432,89,13.432a52.857,52.857,0,0,0,1.489-9.288S17.991,17.016.757,0C.488,3.193.22,6.777,0,10.6Z" transform="translate(70.866 257.541)" fill="#f44825"/>
        <path id="Path-16" data-name="Path" d="M7.973,56.483S-15.949,23.476,19.08,0l56.56,21.257,3.247-.731A34.99,34.99,0,0,1,77.35,58.068L51.108,22.5H11.879Z" transform="translate(95.555 56.962)" fill="#002060"/>
        <path id="Path_Copy" data-name="Path Copy" d="M199.1,27.864,188.209,17.332s-19.041,9.751-22.165,11.457a234.155,234.155,0,0,0-33.3,23.329c-11.034,9-20.432,19.307-30.9,28.912-6.225,5.729-20.53,19.112-26.339,5.461-5.3-12.433-6.982-29.058-7.323-42.515a105.729,105.729,0,0,1,1.074-19.5A45.024,45.024,0,0,1,58.416,31.13L40.2,0,34.542,37.615A108.826,108.826,0,0,1,8.2,37.371c-2.661-.341-5.37-.756-8.2-1.292C1.294,39.2,2.636,42.3,4,45.391c19.529,43.88,48.334,83.591,73.99,83.518C128.085,128.616,199.1,27.864,199.1,27.864Z" transform="matrix(0.788, 0.616, -0.616, 0.788, 92.021, 298.757)" fill="#f0bebe"/>
        <path id="Path-17" data-name="Path" d="M53.216,98.022C37.154,59.14,28.805,19.161,36.617,2.706A74.889,74.889,0,0,1,20.652,0,505.532,505.532,0,0,0,0,69.549,95.389,95.389,0,0,0,53.216,98.022Z" transform="translate(56.22 300.3)" fill="#00518c"/>
        <path id="Path-18" data-name="Path" d="M89.611,26.767A64.667,64.667,0,0,0,74.965,8.8C72.524,6.8,61.392,0,61.392,0L2.806,8.24C-4.981,24.695,4.27,61.115,20.333,100c2.832.536,5.541.951,8.2,1.292a108.825,108.825,0,0,0,26.339.244l5.663-37.615,18.211,31.13a45.025,45.025,0,0,0,10.838-6.655s1.513-6.338,2-7.947C97.4,62.407,99.156,44.1,89.611,26.767Z" transform="translate(89.03 298.325)" fill="#ffaf00"/>
        <path id="Path-19" data-name="Path" d="M199.1,27.864,188.209,17.332s-19.041,9.751-22.165,11.457a234.155,234.155,0,0,0-33.3,23.329c-11.034,9-20.432,19.307-30.9,28.912-6.225,5.729-20.53,19.112-26.339,5.461-5.3-12.433-6.982-29.058-7.323-42.515a105.729,105.729,0,0,1,1.074-19.5A45.024,45.024,0,0,1,58.416,31.13L40.2,0,34.542,37.615A108.826,108.826,0,0,1,8.2,37.371c-2.661-.341-5.37-.756-8.2-1.292C1.294,39.2,2.636,42.3,4,45.391c19.529,43.88,48.334,83.591,73.99,83.518C128.085,128.616,199.1,27.864,199.1,27.864Z" transform="translate(109.436 362.389)" fill="#ffd4d4"/>
        <path id="Path-20" data-name="Path" d="M76.065,0S22.873,10.263,3.3,1.755L0,10.677S19.993,29.984,83.9,5.363Z" transform="translate(74.04 297.618)" fill="#f44825"/>
        <path id="Path-21" data-name="Path" d="M16.111.122C12.913-.585,11.571,1.877,11.5,5c-.122,4.364.757,19.965-11.5,46.781,15.745,2.048,18.137,8.045,18.162,8.093a107.53,107.53,0,0,0,5.444-22.159C24.606,30.082,27.682,2.682,16.111.122Z" transform="translate(271.33 84.996)" fill="#ffbdc0"/>
        <path id="Path-22" data-name="Path" d="M101.4.074h0C88.531,17.138,70.3,26.5,53.209,33.617a61.3,61.3,0,0,1-40.937,1.8C2.361,37.591-6.7,67.624,6.877,71.256s21.262,3.023,45.99-2.877c28.659-6.826,53.485-30.618,67.936-58.092C111.209-1.535,101.4.074,101.4.074Z" transform="translate(161.39 151.059)" fill="#ffd4d4"/>
        <path id="Path-23" data-name="Path" d="M8.544,0A77.132,77.132,0,0,1,0,14.432H0s9.764-1.609,19.529,10.214A126.943,126.943,0,0,0,26.852,8.093S24.289,2.023,8.544,0Z" transform="translate(262.786 136.726)" fill="#002060"/>
        <rect id="Rectangle-5" data-name="Rectangle" width="17.479" height="71.964" transform="translate(315.159 98.396) rotate(90.06)" fill="#00518c"/>
        <path id="Path-24" data-name="Path" d="M40.107,8.069A8.1,8.1,0,0,0,32.052,0H8.08A8.1,8.1,0,0,0,0,8.069V22.062H40.083Z" transform="translate(310.29 85.07)" fill="#ff6b38"/>
        <path id="Path-25" data-name="Path" d="M40.107,8.069A8.074,8.074,0,0,0,32.052,0H8.08A8.075,8.075,0,0,0,0,8.045V22.062H40.083Z" transform="translate(228.342 84.996)" fill="#ff6b38"/>
        <path id="Path-26" data-name="Path" d="M8.031,22.037H32a8.1,8.1,0,0,0,8.08-8.045V0H0V13.968A8.074,8.074,0,0,0,8.031,22.037Z" transform="translate(310.29 107.156)" fill="#f44825"/>
        <path id="Path-27" data-name="Path" d="M8.031,22.037H32a8.075,8.075,0,0,0,8.08-8.045V0H0V13.993a8.074,8.074,0,0,0,8.031,8.045Z" transform="translate(228.342 107.058)" fill="#f44825"/>
        <path id="Path-28" data-name="Path" d="M0,7.313Q0,16.431.513,26.23a14.627,14.627,0,0,0,7.714,10.9c6.249,3.559,13.963,1.9,20.041-1.195S41.035,27.864,41.181,20.5c0-4.876.342-12.335,1-20.5C20.359,28.376,0,7.313,0,7.313Z" transform="translate(99.574 151.133)" fill="#ffbdc0"/>
        <path id="Path-29" data-name="Path" d="M45.11,12.1s-3.564,26.279-39.3,45.245c0,0-11.937-29.253-1.587-49.365S45.11,12.1,45.11,12.1Z" transform="translate(95.474 161.385)" fill="#ffd4d4"/>
        <path id="Path-30" data-name="Path" d="M1.343,0C.561,7.9.049,16.455,0,25.572c0,0,20.359,21.062,42.182-7.313C42.67,12.286,43.378,6.07,44.4,0,44.355.024,13.158,26.84,1.343,0Z" transform="translate(99.574 132.874)" fill="#fca0a1"/>
      </g>
      <path id="Path-31" data-name="Path" d="M2.962,20.78A9.181,9.181,0,0,1,.857,16.315,34.188,34.188,0,0,1,0,10.187C0,6.565.808,2.149,4.456.586A8.875,8.875,0,0,1,8.471.04C14.052.487,24.114,2.372,27,7.781a21.457,21.457,0,0,1,1.42,3.672c.367,1.017.906,1.985,1.249,3.027.637,1.985.832,4.342-1.42,5.284A3.234,3.234,0,0,1,24.114,18.4c-.2-.4-.392-.819-.563-1.216a5.027,5.027,0,0,1,0,1.042h0a3.388,3.388,0,0,1-1.571,3.162,3.292,3.292,0,0,1-3.493,0,3.388,3.388,0,0,1-1.571-3.162c-.147-.968-.269-1.96-.392-2.927-.318-1.588-.637-3.176-.93-4.763L15.3,9.468a43.016,43.016,0,0,0,1.273,7.616,3.082,3.082,0,0,1-.637,3,3.481,3.481,0,0,1-6.194-.794,43.054,43.054,0,0,1-1.175-8.286L8.422,9.988a25.536,25.536,0,0,0,.367,7.443,3.48,3.48,0,0,1-.865,3.133,3.375,3.375,0,0,1-3.052,1.01,3.452,3.452,0,0,1-1.91-.794Z" transform="translate(413.504 85.147)" fill="#ffbdc0"/>
      <path id="Path-32" data-name="Path" d="M27.135,20.918a9.111,9.111,0,0,0,2.08-4.476,32.659,32.659,0,0,0,.881-6.176c0-3.65-.807-8.1-4.453-9.676A8.8,8.8,0,0,0,21.63.041c-5.579.45-15.659,2.35-18.522,7.8a25.114,25.114,0,0,0-1.444,3.6c-.343,1.025-.881,2-1.223,3.05-.661,2-.856,4.376,1.419,5.326A3.218,3.218,0,0,0,6.02,18.493c.2-.4.391-.825.563-1.225a5.11,5.11,0,0,0,0,1.05h0a3.322,3.322,0,0,0,6.631.15c.147-1,.269-2,.391-2.975.318-1.6.612-3.2.93-4.8l.294-1.075a43.688,43.688,0,0,1-1.272,7.676,3.126,3.126,0,0,0,.636,3.025,3.47,3.47,0,0,0,3.335,1.541,3.516,3.516,0,0,0,2.855-2.341,43.734,43.734,0,0,0,1.174-8.351l.147-1.025a25.873,25.873,0,0,1-.367,7.5A3.528,3.528,0,0,0,22.2,20.8a3.356,3.356,0,0,0,3.05,1.018,3.588,3.588,0,0,0,1.884-.9Z" transform="translate(135.8 41.371)" fill="#ffd4d4"/>
    </g>
    <g id="Group_3" data-name="Group 3" transform="translate(426.5 359.1)">
      <g id="Group-3" data-name="Group">
        <path id="Path-33" data-name="Path" d="M8.35,0H83.99c4.617,0,8.35,4.273,8.35,9.57V76.224c0,5.3-3.733,9.589-8.35,9.589H8.35C3.733,85.695,0,81.442,0,76.145V9.57C0,4.273,3.733,0,8.35,0Z" transform="translate(0 0)" fill="#ffbdc0"/>
        <path id="Path-34" data-name="Path" d="M0,48.805a21.953,21.953,0,0,1,14.224-20.4,15.214,15.214,0,1,1,15.325,0,21.8,21.8,0,0,1,14.028,20.4v8.782H0Z" transform="translate(24.008 11.292)" fill="#fff"/>
      </g>
    </g>
    <path id="Fill_57" data-name="Fill 57" d="M0,.154H149.066" transform="translate(251.223 259.347)" fill="#fff"/>
    <g id="Group_59" data-name="Group 59" transform="translate(52.58 343.14)">
      <rect id="Rectangle-6" data-name="Rectangle" width="256.09" height="181.233" rx="6.566" fill="#8cebe6"/>
      <path id="Fill_88" data-name="Fill 88" d="M0,0V27.851a4.953,4.953,0,0,0,4.924,4.981H251.166a4.953,4.953,0,0,0,4.924-4.981h0V0Z" transform="translate(0 148.401)" fill="url(#linear-gradient-2)"/>
      <path id="Stroke_93" data-name="Stroke 93" d="M192.491,0a1.313,1.313,0,0,1,.1,2.623l-.1,0H1.313A1.313,1.313,0,0,1,1.215,0l.1,0Z" transform="translate(32.175 164.817)" fill="#d0d2d3"/>
      <path id="Stroke_98" data-name="Stroke 98" d="M146.429,0a1.313,1.313,0,0,1,.1,2.623l-.1,0H1.313A1.313,1.313,0,0,1,1.215,0l.1,0Z" transform="translate(26.662 164.817)" fill="#ef7272"/>
      <path id="Fill_100" data-name="Fill 100" d="M0,7.88V0L7.208,3.94Z" transform="translate(11.82 162.118)" fill="#d0d2d3"/>
      <path id="Stroke_104" data-name="Stroke 104" d="M1.313,0a1.313,1.313,0,0,1,1.31,1.215l0,.1V7.158A1.313,1.313,0,0,1,0,7.256l0-.1V1.313A1.313,1.313,0,0,1,1.313,0Z" transform="translate(233.691 162.224)" fill="#d0d2d3"/>
      <path id="Stroke_108" data-name="Stroke 108" d="M1.313,0a1.313,1.313,0,0,1,1.31,1.215l0,.1V8.937A1.313,1.313,0,0,1,0,9.035l0-.1V1.313A1.313,1.313,0,0,1,1.313,0Z" transform="translate(238.672 160.445)" fill="#d0d2d3"/>
      <path id="Stroke_112" data-name="Stroke 112" d="M1.313,0a1.313,1.313,0,0,1,1.31,1.215l0,.1V11.605A1.313,1.313,0,0,1,0,11.7l0-.1V1.313A1.313,1.313,0,0,1,1.313,0Z" transform="translate(243.653 157.776)" fill="#d0d2d3"/>
      <g id="Group_19" data-name="Group 19" transform="translate(100.466 59.098)">
        <path id="Path-35" data-name="Path" d="M44.656,43.338H10.5A10.529,10.529,0,0,1,0,32.855V10.483A10.529,10.529,0,0,1,10.5,0H44.656a10.529,10.529,0,0,1,10.5,10.483V32.855A10.509,10.509,0,0,1,44.656,43.338Z" transform="translate(0 0)" fill="#ef7272"/>
        <path id="Path-36" data-name="Path" d="M4.161.365,17,7.528a2.634,2.634,0,0,1,0,4.644L4.161,19.334A2.773,2.773,0,0,1,0,17.007V2.692A2.773,2.773,0,0,1,4.161.365Z" transform="translate(19.043 11.163)" fill="#fff"/>
      </g>
    </g>
    <g id="Group_21" data-name="Group 21" transform="translate(309.08)">
      <g transform="matrix(1, 0, 0, 1, -309.05, -67)" filter="url(#Rectangle-2)">
        <rect id="Rectangle-7" data-name="Rectangle" width="234.84" height="93.48" rx="23.94" transform="translate(309.05 67)" fill="#ef7272"/>
      </g>
      <g id="Group_20" data-name="Group 20" transform="translate(30.78 9.12)">
        <text id="_12_44_2" data-name="12,44,2" fill="#fff" font-size="34.2" font-family="SegoeUI, Segoe UI"><tspan x="33.706" y="37">12,44,2</tspan></text>
        <text id="Subscriber" transform="translate(12.54 59.6)" fill="#fff" font-size="12.54" font-family="SegoeUI, Segoe UI" letter-spacing="0.545em"><tspan x="0" y="0">SUBSCRIBER</tspan></text>
      </g>
    </g>
    <g id="Group_Copy_2" data-name="Group Copy 2" transform="translate(89.3 117.42)">
      <path id="Path-37" data-name="Path" d="M4.638,0H74.355c2.544,0,4.638,2.38,4.638,5.294V53.507c0,2.914-2.052,5.294-4.638,5.294H4.638C2.093,58.8,0,56.421,0,53.507V5.294C.041,2.339,2.093,0,4.638,0Z" fill="#ef7272"/>
      <path id="Path-38" data-name="Path" d="M0,23.213a10.506,10.506,0,0,1,6.7-9.746A7.228,7.228,0,0,1,3.211,7.23a7.137,7.137,0,1,1,14.273,0,7.215,7.215,0,0,1-3.56,6.238,10.365,10.365,0,0,1,6.6,9.711V27.36H0V23.213Z" transform="translate(29.166 15.841)" fill="#fff"/>
    </g>
  </g>
</svg>
