<svg xmlns="http://www.w3.org/2000/svg" xmlns:xlink="http://www.w3.org/1999/xlink" width="657.455" height="781" viewBox="0 0 657.455 781">
  <defs>
    <filter id="Rectangle" x="235.3" y="135.1" width="351" height="504" filterUnits="userSpaceOnUse">
      <feOffset dy="-36" input="SourceAlpha"/>
      <feGaussianBlur stdDeviation="22.5" result="blur"/>
      <feFlood flood-color="#2b4668" flood-opacity="0.09"/>
      <feComposite operator="in" in2="blur"/>
      <feComposite in="SourceGraphic"/>
    </filter>
    <linearGradient id="linear-gradient" x1="0.473" y1="0.251" x2="0.473" y2="0.868" gradientUnits="objectBoundingBox">
      <stop offset="0" stop-color="#fff" stop-opacity="0"/>
      <stop offset="1" stop-color="#fff"/>
    </linearGradient>
    <filter id="Rectangle-2" x="192" y="0" width="428" height="304" filterUnits="userSpaceOnUse">
      <feOffset dy="52" input="SourceAlpha"/>
      <feGaussianBlur stdDeviation="37" result="blur-2"/>
      <feFlood flood-color="#215b77" flood-opacity="0.494"/>
      <feComposite operator="in" in2="blur-2"/>
      <feComposite in="SourceGraphic"/>
    </filter>
    <linearGradient id="linear-gradient-2" y1="0.5" x2="1" y2="0.5" gradientUnits="objectBoundingBox">
      <stop offset="0" stop-color="#fff"/>
      <stop offset="1" stop-color="#fff"/>
    </linearGradient>
    <filter id="Rectangle-3" x="0" y="477" width="428" height="304" filterUnits="userSpaceOnUse">
      <feOffset dy="52" input="SourceAlpha"/>
      <feGaussianBlur stdDeviation="37" result="blur-3"/>
      <feFlood flood-color="#ef7272" flood-opacity="0.494"/>
      <feComposite operator="in" in2="blur-3"/>
      <feComposite in="SourceGraphic"/>
    </filter>
  </defs>
  <g id="Group_63_Copy_4" data-name="Group 63 Copy 4" transform="translate(42 59)">
    <g id="Group_15" data-name="Group 15" transform="translate(260.8 179.6)">
      <g transform="matrix(1, 0, 0, 1, -302.8, -238.6)" filter="url(#Rectangle)">
        <g id="Rectangle-4" data-name="Rectangle" transform="translate(302.8 238.6)" fill="#fff" stroke="#ef7272" stroke-miterlimit="10" stroke-width="1.8">
          <path d="M27,0H189a27,27,0,0,1,27,27V369a0,0,0,0,1,0,0H0a0,0,0,0,1,0,0V27A27,27,0,0,1,27,0Z" stroke="none"/>
          <path d="M27,.9H189A26.1,26.1,0,0,1,215.1,27V367.2a.9.9,0,0,1-.9.9H1.8a.9.9,0,0,1-.9-.9V27A26.1,26.1,0,0,1,27,.9Z" fill="none"/>
        </g>
      </g>
      <path id="Rectangle_Copy_3" data-name="Rectangle Copy 3" d="M27,0H189a27,27,0,0,1,27,27V408.6a0,0,0,0,1,0,0H0a0,0,0,0,1,0,0V27A27,27,0,0,1,27,0Z" fill="url(#linear-gradient)"/>
      <path id="Rectangle-5" data-name="Rectangle" d="M0,0H83a0,0,0,0,1,0,0V6a8,8,0,0,1-8,8H8A8,8,0,0,1,0,6V0A0,0,0,0,1,0,0Z" transform="translate(67 1)" fill="#ef7272"/>
    </g>
    <g id="elements" transform="translate(136.76 84)">
      <g id="Group" transform="translate(176.4 359.24)">
        <path id="Path" d="M23.364,25.035H42.948c3.276,0,7.164-.144,8.136,3.816.792,3.2-1.584,5.868-4.428,6.732,0,0,8.388,5.544,0,10.908,0,0,7.344,5.652-1.332,10.332,0,0,6.48,6.3-1.4,10.08-.36.18-27.828-.036-39.132,0A4.763,4.763,0,0,1,0,62.115V32.847a5.294,5.294,0,0,1,.216-1.512c.54-1.944,2.412-6.768,8.172-11.16,2.952-2.268,6.84-4.392,8.244-8.1S15.3,3.219,19.368.7c2.592-1.62,5.076-.216,6.7,2.088C26.064,2.715,34.272,16.071,23.364,25.035Z" transform="translate(19.98 0.057)" fill="#015289"/>
        <rect id="Rectangle-6" data-name="Rectangle" width="15.696" height="38.34" transform="translate(0.252 28.728)" fill="#015289"/>
      </g>
      <g id="Group-2" data-name="Group" transform="translate(0 157.28)">
        <g id="Group-3" data-name="Group">
          <g id="Group-4" data-name="Group">
            <g id="Group-5" data-name="Group">
              <g id="Group-6" data-name="Group">
                <path id="Path-2" data-name="Path" d="M12.24,293.328A12.253,12.253,0,0,1,0,281.088V12.24A12.253,12.253,0,0,1,12.24,0H378.18a12.253,12.253,0,0,1,12.24,12.24V281.088a12.253,12.253,0,0,1-12.24,12.24Z" transform="translate(3.636 3.384)" fill="#00a4c3"/>
                <path id="Shape" d="M15.624,300.1A15.656,15.656,0,0,1,0,284.472V15.624A15.656,15.656,0,0,1,15.624,0h365.94a15.633,15.633,0,0,1,15.624,15.624V284.472A15.656,15.656,0,0,1,381.564,300.1Z" transform="translate(0.252)" fill="#fff"/>
              </g>
              <circle id="Oval" cx="14.4" cy="14.4" r="14.4" transform="translate(352.98 136.152)" fill="#fff"/>
            </g>
            <path id="Path-3" data-name="Path" d="M316.764,0H9.5A9.833,9.833,0,0,0,0,9.756V258.768c0,5.112,4.248,8.676,9.5,8.676H316.8c5.256,0,9.4-3.6,9.4-8.676V9.756C326.16,4.68,322.02,0,316.764,0Z" transform="translate(18.108 15.048)" fill="#fff"/>
          </g>
          <path id="Path-4" data-name="Path" d="M215.6,139H11.34A11.339,11.339,0,0,1,0,127.656V11.34A11.339,11.339,0,0,1,11.34,0H215.568a11.339,11.339,0,0,1,11.34,11.34V127.656A11.285,11.285,0,0,1,215.6,139Z" transform="translate(30.924 52.452)" fill="#c5f5fc"/>
          <g id="Group-7" data-name="Group" transform="translate(264.24 52.2)">
            <path id="Path-5" data-name="Path" d="M61.416,38.988H5.8a5.792,5.792,0,0,1-5.8-5.8V5.8A5.792,5.792,0,0,1,5.8,0h55.62a5.792,5.792,0,0,1,5.8,5.8v27.4A5.792,5.792,0,0,1,61.416,38.988Z" transform="translate(0.036 0.216)" fill="#00e2d5"/>
            <path id="Path-6" data-name="Path" d="M61.416,38.988H5.8a5.792,5.792,0,0,1-5.8-5.8V5.8A5.792,5.792,0,0,1,5.8,0h55.62a5.792,5.792,0,0,1,5.8,5.8v27.4A5.792,5.792,0,0,1,61.416,38.988Z" transform="translate(0.036 46.656)" fill="#00e2d5"/>
            <path id="Path-7" data-name="Path" d="M61.416,38.988H5.8a5.792,5.792,0,0,1-5.8-5.8V5.8A5.792,5.792,0,0,1,5.8,0h55.62a5.792,5.792,0,0,1,5.8,5.8v27.4A5.792,5.792,0,0,1,61.416,38.988Z" transform="translate(0.036 92.592)" fill="#00e2d5"/>
            <path id="Path-8" data-name="Path" d="M61.416,38.988H5.8a5.792,5.792,0,0,1-5.8-5.8V5.8A5.792,5.792,0,0,1,5.8,0h55.62a5.792,5.792,0,0,1,5.8,5.8v27.4A5.792,5.792,0,0,1,61.416,38.988Z" transform="translate(0.036 139.392)" fill="#00e2d5"/>
            <path id="Path-9" data-name="Path" d="M61.416,38.988H5.8a5.792,5.792,0,0,1-5.8-5.8V5.8A5.792,5.792,0,0,1,5.8,0h55.62a5.792,5.792,0,0,1,5.8,5.8v27.4A5.792,5.792,0,0,1,61.416,38.988Z" transform="translate(0.036 185.832)" fill="#00e2d5"/>
          </g>
          <rect id="Rectangle-7" data-name="Rectangle" width="133.2" height="16.92" transform="translate(30.924 174.528)" fill="#c5f5fc"/>
        </g>
        <g id="Group-8" data-name="Group" transform="translate(280.8 58.32)">
          <path id="Path-10" data-name="Path" d="M28.836,26.676H5.04A5.055,5.055,0,0,1,0,21.636V5.04A5.055,5.055,0,0,1,5.04,0h23.8a5.055,5.055,0,0,1,5.04,5.04v16.6A5.055,5.055,0,0,1,28.836,26.676Z" transform="translate(0.144 0.252)" fill="#fff"/>
          <path id="Path-11" data-name="Path" d="M3.564.313l10.944,6.3a2.366,2.366,0,0,1,0,4.1l-10.944,6.3A2.376,2.376,0,0,1,0,14.965V2.329A2.4,2.4,0,0,1,3.564.313Z" transform="translate(10.26 4.907)" fill="#00e2d5"/>
        </g>
        <g id="Group-9" data-name="Group" transform="translate(280.8 104.76)">
          <path id="Path-12" data-name="Path" d="M28.836,26.676H5.04A5.055,5.055,0,0,1,0,21.636V5.04A5.055,5.055,0,0,1,5.04,0h23.8a5.055,5.055,0,0,1,5.04,5.04v16.6A5.055,5.055,0,0,1,28.836,26.676Z" transform="translate(0.144 0.252)" fill="#fff"/>
          <path id="Path-13" data-name="Path" d="M3.564.313l10.944,6.3a2.366,2.366,0,0,1,0,4.1l-10.944,6.3A2.376,2.376,0,0,1,0,14.965V2.329A2.4,2.4,0,0,1,3.564.313Z" transform="translate(10.26 4.907)" fill="#00e2d5"/>
        </g>
        <g id="Group-10" data-name="Group" transform="translate(282.24 150.84)">
          <path id="Path-14" data-name="Path" d="M28.836,26.676H5.04A5.055,5.055,0,0,1,0,21.636V5.04A5.055,5.055,0,0,1,5.04,0h23.8a5.055,5.055,0,0,1,5.04,5.04v16.6A5.009,5.009,0,0,1,28.836,26.676Z" fill="#fff"/>
          <path id="Path-15" data-name="Path" d="M3.564.318l10.944,6.3a2.366,2.366,0,0,1,0,4.1l-10.944,6.3A2.376,2.376,0,0,1,0,14.97V2.334A2.372,2.372,0,0,1,3.564.318Z" transform="translate(10.152 4.65)" fill="#00e2d5"/>
        </g>
        <g id="Group-11" data-name="Group" transform="translate(282.24 244.08)">
          <path id="Path-16" data-name="Path" d="M28.836,26.676H5.04A5.055,5.055,0,0,1,0,21.636V5.04A5.055,5.055,0,0,1,5.04,0h23.8a5.055,5.055,0,0,1,5.04,5.04v16.6A5.032,5.032,0,0,1,28.836,26.676Z" transform="translate(0.324 0.144)" fill="#fff"/>
          <path id="Path-17" data-name="Path" d="M3.564.333l10.944,6.3a2.366,2.366,0,0,1,0,4.1l-10.944,6.3A2.376,2.376,0,0,1,0,14.985V2.349A2.361,2.361,0,0,1,3.564.333Z" transform="translate(10.476 4.779)" fill="#00e2d5"/>
        </g>
        <g id="Group-12" data-name="Group" transform="translate(282.24 196.2)">
          <path id="Path-18" data-name="Path" d="M28.836,26.676H5.04A5.055,5.055,0,0,1,0,21.636V5.04A5.055,5.055,0,0,1,5.04,0h23.8a5.055,5.055,0,0,1,5.04,5.04v16.6A5.009,5.009,0,0,1,28.836,26.676Z" transform="translate(0 0.288)" fill="#fff"/>
          <path id="Path-19" data-name="Path" d="M3.564.333l10.944,6.3a2.366,2.366,0,0,1,0,4.1l-10.944,6.3A2.376,2.376,0,0,1,0,14.985V2.349A2.361,2.361,0,0,1,3.564.333Z" transform="translate(10.152 4.923)" fill="#00e2d5"/>
        </g>
      </g>
      <g id="Group-13" data-name="Group" transform="translate(217.08 0.68)">
        <path id="Path-20" data-name="Path" d="M173.268,134.64H22.752A22.754,22.754,0,0,1,0,111.888V22.752A22.754,22.754,0,0,1,22.752,0H173.3a22.754,22.754,0,0,1,22.752,22.752v89.172A22.8,22.8,0,0,1,173.268,134.64Z" transform="translate(0.288 0.288)" fill="#fff8ec"/>
        <path id="Combined_Shape" data-name="Combined Shape" d="M0,78.192V75.24H140.292v2.952ZM111.084,75.24a2.4,2.4,0,0,1-2.4-2.4V2.4a2.4,2.4,0,0,1,2.4-2.4h15.107a2.4,2.4,0,0,1,2.4,2.4V72.84a2.4,2.4,0,0,1-2.4,2.4Zm-30.78,0a2.4,2.4,0,0,1-2.4-2.4V17.376a2.4,2.4,0,0,1,2.4-2.4H95.412a2.4,2.4,0,0,1,2.4,2.4V72.84a2.4,2.4,0,0,1-2.4,2.4Zm-31.464,0a2.4,2.4,0,0,1-2.4-2.4V29.8a2.4,2.4,0,0,1,2.4-2.4H63.948a2.4,2.4,0,0,1,2.4,2.4V72.84a2.4,2.4,0,0,1-2.4,2.4ZM17.808,75.2a2.4,2.4,0,0,1-2.4-2.4V43.044a2.4,2.4,0,0,1,2.4-2.4H32.916a2.4,2.4,0,0,1,2.4,2.4V72.8a2.4,2.4,0,0,1-2.4,2.4Z" transform="translate(29.304 37.296)" fill="#00e2d5"/>
      </g>
      <g id="Group-14" data-name="Group" transform="translate(30.6 175.64)">
        <path id="Path-21" data-name="Path" d="M293.616,28.116H7.2a7.221,7.221,0,0,1-7.2-7.2V7.2A7.221,7.221,0,0,1,7.2,0H293.616a7.221,7.221,0,0,1,7.2,7.2V20.916A7.221,7.221,0,0,1,293.616,28.116Z" transform="translate(0.072 0.108)" fill="#ffd169"/>
        <path id="Path-22" data-name="Path" d="M252.936,18.792H9.144A9.157,9.157,0,0,1,0,9.648v-.5A9.157,9.157,0,0,1,9.144,0H252.936a9.157,9.157,0,0,1,9.144,9.144v.5A9.134,9.134,0,0,1,252.936,18.792Z" transform="translate(5.184 5.04)" fill="#fff"/>
        <g id="Group-15" data-name="Group" transform="translate(273.6 4.16)">
          <path id="Combined_Shape-2" data-name="Combined Shape" d="M14.711,19.312l-3.77-4.8a7.957,7.957,0,0,1-3.153.63,7.828,7.828,0,0,1-6.182-2.957A7.339,7.339,0,0,1,.067,6.6,7.439,7.439,0,0,1,3.084,1.542,7.861,7.861,0,0,1,7.792,0a7.791,7.791,0,0,1,6.179,2.961,7.435,7.435,0,0,1-.119,9.369l3.788,4.823a1.761,1.761,0,0,1-.355,2.484,1.893,1.893,0,0,1-2.574-.325ZM4.5,3.463a5.174,5.174,0,0,0-2.071,3.46A4.87,4.87,0,0,0,3.5,10.707a5.393,5.393,0,0,0,4.289,2.052A5.6,5.6,0,0,0,11.1,11.683a5.173,5.173,0,0,0,2.071-3.459,4.875,4.875,0,0,0-1.066-3.785,5.593,5.593,0,0,0-7.6-.976Z" fill="#fff"/>
        </g>
      </g>
      <g id="Group-16" data-name="Group" transform="translate(30.6 358.88)">
        <g id="Group_16" data-name="Group 16" transform="translate(0.108 0.288)">
          <path id="Path-23" data-name="Path" d="M54.432,67.968h-40.9A13.52,13.52,0,0,1,0,54.432v-40.9A13.52,13.52,0,0,1,13.536,0h40.9A13.52,13.52,0,0,1,67.968,13.536v40.9A13.52,13.52,0,0,1,54.432,67.968Z" transform="translate(0 0)" fill="#00e2d5"/>
          <path id="Path-24" data-name="Path" d="M25.526,28.467a12.837,12.837,0,0,0-8.351-11.931,8.92,8.92,0,1,0-8.962,0A12.78,12.78,0,0,0,0,28.467V33.6H25.554V28.467Z" transform="translate(21.441 17.058)" fill="#fff"/>
        </g>
      </g>
      <g id="Group-17" data-name="Group" transform="translate(108.72 365.36)">
        <path id="Path-25" data-name="Path" d="M77.4,11.52H5.76A5.777,5.777,0,0,1,0,5.76H0A5.777,5.777,0,0,1,5.76,0H77.4a5.777,5.777,0,0,1,5.76,5.76h0A5.777,5.777,0,0,1,77.4,11.52Z" transform="translate(0.216 21.888)" fill="#ffd169"/>
        <path id="Path-26" data-name="Path" d="M96.156,11.16H5.58A5.562,5.562,0,0,1,0,5.58H0A5.562,5.562,0,0,1,5.58,0H96.12a5.562,5.562,0,0,1,5.58,5.58h0A5.531,5.531,0,0,1,96.156,11.16Z" transform="translate(0.216 0.288)" fill="#ffd169"/>
        <path id="Path-27" data-name="Path" d="M62.136,11.16H5.58A5.562,5.562,0,0,1,0,5.58H0A5.562,5.562,0,0,1,5.58,0H62.136a5.562,5.562,0,0,1,5.58,5.58h0A5.562,5.562,0,0,1,62.136,11.16Z" transform="translate(0.216 42.408)" fill="#ffd169"/>
      </g>
    </g>
    <g id="Group_21" data-name="Group 21" transform="translate(261)">
      <g transform="matrix(1, 0, 0, 1, -303, -59)" filter="url(#Rectangle-2)">
        <rect id="Rectangle-8" data-name="Rectangle" width="206" height="82" rx="21" transform="translate(303 59)" fill="#00e2d5"/>
      </g>
      <g id="Group_20" data-name="Group 20" transform="translate(27 8)">
        <text id="_12_44_2" data-name="12,44,2" fill="#fff" font-size="30" font-family="SegoeUI, Segoe UI"><tspan x="29.566" y="32">12,44,2</tspan></text>
        <text id="Subscriber" transform="translate(11 52)" fill="#fff" font-size="11" font-family="SegoeUI, Segoe UI" letter-spacing="0.545em"><tspan x="0" y="0">SUBSCRIBER</tspan></text>
      </g>
    </g>
    <g id="Group-18" data-name="Group" transform="translate(0 153)">
      <path id="Path-28" data-name="Path" d="M5.126,0H62.874C65.7,0,68,2.6,68,5.814V46.186C68,49.4,65.7,52,62.874,52H5.126C2.3,52,0,49.4,0,46.186V5.814C0,2.6,2.3,0,5.126,0Z" transform="translate(0.244 0.448)" fill="#00e2d5"/>
      <g id="Group-19" data-name="Group" transform="translate(18.44 10.32)">
        <path id="Path-29" data-name="Path" d="M11.835,10.588H3.519c-1.368,0-3.024-.072-3.456,1.62a2.438,2.438,0,0,0,1.872,2.844s-3.528,2.34,0,4.608c0,0-3.1,2.376.54,4.392,0,0-2.736,2.664.612,4.248.144.072,11.772,0,16.56,0a2.013,2.013,0,0,0,2.016-2.016V13.9a3.967,3.967,0,0,0-.072-.648,9.014,9.014,0,0,0-3.456-4.716c-1.26-.972-2.916-1.872-3.492-3.42-.576-1.584.576-3.744-1.152-4.824-1.116-.684-2.16-.072-2.844.864C10.683,1.156,7.227,6.808,11.835,10.588Z" transform="translate(0.153 0.356)" fill="#fff"/>
        <rect id="Rectangle-9" data-name="Rectangle" width="6.66" height="16.236" transform="translate(30.25 28.765) rotate(180)" fill="#fff"/>
      </g>
    </g>
    <g id="Group_Copy_3" data-name="Group Copy 3" transform="translate(192 99)">
      <path id="Path-30" data-name="Path" d="M5.126,0H62.874C65.7,0,68,2.6,68,5.814V46.186C68,49.4,65.7,52,62.874,52H5.126C2.3,52,0,49.4,0,46.186V5.814C0,2.6,2.3,0,5.126,0Z" transform="translate(0.244 0.448)" fill="#00e2d5"/>
      <g id="Group-20" data-name="Group" transform="translate(18.44 10.32)">
        <path id="Path-31" data-name="Path" d="M11.835,10.588H3.519c-1.368,0-3.024-.072-3.456,1.62a2.438,2.438,0,0,0,1.872,2.844s-3.528,2.34,0,4.608c0,0-3.1,2.376.54,4.392,0,0-2.736,2.664.612,4.248.144.072,11.772,0,16.56,0a2.013,2.013,0,0,0,2.016-2.016V13.9a3.967,3.967,0,0,0-.072-.648,9.014,9.014,0,0,0-3.456-4.716c-1.26-.972-2.916-1.872-3.492-3.42-.576-1.584.576-3.744-1.152-4.824-1.116-.684-2.16-.072-2.844.864C10.683,1.156,7.227,6.808,11.835,10.588Z" transform="translate(0.153 0.356)" fill="#fff"/>
        <rect id="Rectangle-10" data-name="Rectangle" width="6.66" height="16.236" transform="translate(30.25 28.765) rotate(180)" fill="#fff"/>
      </g>
    </g>
    <g id="Group_Copy_4" data-name="Group Copy 4" transform="translate(35 331)">
      <path id="Path-32" data-name="Path" d="M5.126,0H62.874C65.7,0,68,2.6,68,5.814V46.186C68,49.4,65.7,52,62.874,52H5.126C2.3,52,0,49.4,0,46.186V5.814C0,2.6,2.3,0,5.126,0Z" transform="translate(0.244 0.448)" fill="#ef7272"/>
      <g id="Group-21" data-name="Group" transform="translate(18.44 10.32)">
        <path id="Path-33" data-name="Path" d="M11.835,10.588H3.519c-1.368,0-3.024-.072-3.456,1.62a2.438,2.438,0,0,0,1.872,2.844s-3.528,2.34,0,4.608c0,0-3.1,2.376.54,4.392,0,0-2.736,2.664.612,4.248.144.072,11.772,0,16.56,0a2.013,2.013,0,0,0,2.016-2.016V13.9a3.967,3.967,0,0,0-.072-.648,9.014,9.014,0,0,0-3.456-4.716c-1.26-.972-2.916-1.872-3.492-3.42-.576-1.584.576-3.744-1.152-4.824-1.116-.684-2.16-.072-2.844.864C10.683,1.156,7.227,6.808,11.835,10.588Z" transform="translate(0.153 0.356)" fill="#fff"/>
        <rect id="Rectangle-11" data-name="Rectangle" width="6.66" height="16.236" transform="translate(30.25 28.765) rotate(180)" fill="#fff"/>
      </g>
    </g>
    <g id="Group_Copy_5" data-name="Group Copy 5" transform="translate(510 226)">
      <path id="Path-34" data-name="Path" d="M5.126,0H62.874C65.7,0,68,2.6,68,5.814V46.186C68,49.4,65.7,52,62.874,52H5.126C2.3,52,0,49.4,0,46.186V5.814C0,2.6,2.3,0,5.126,0Z" transform="translate(0.244 0.448)" fill="#ef7272"/>
      <g id="Group-22" data-name="Group" transform="translate(18.44 10.32)">
        <path id="Path-35" data-name="Path" d="M11.835,10.588H3.519c-1.368,0-3.024-.072-3.456,1.62a2.438,2.438,0,0,0,1.872,2.844s-3.528,2.34,0,4.608c0,0-3.1,2.376.54,4.392,0,0-2.736,2.664.612,4.248.144.072,11.772,0,16.56,0a2.013,2.013,0,0,0,2.016-2.016V13.9a3.967,3.967,0,0,0-.072-.648,9.014,9.014,0,0,0-3.456-4.716c-1.26-.972-2.916-1.872-3.492-3.42-.576-1.584.576-3.744-1.152-4.824-1.116-.684-2.16-.072-2.844.864C10.683,1.156,7.227,6.808,11.835,10.588Z" transform="translate(0.153 0.356)" fill="#fff"/>
        <rect id="Rectangle-12" data-name="Rectangle" width="6.66" height="16.236" transform="translate(30.25 28.765) rotate(180)" fill="#fff"/>
      </g>
    </g>
    <g id="Group-23" data-name="Group" transform="translate(35 9)">
      <path id="Path-36" data-name="Path" d="M0,6.044C0,2.7,2.131,0,4.756,0H63.244C65.869,0,68,2.7,68,6.044V43.956C68,47.3,65.869,50,63.244,50H4.756C2.131,50,0,47.3,0,43.956Z" transform="translate(0.172 0.294)" fill="#ef7272"/>
      <path id="Path-37" data-name="Path" d="M23.158,2.027c-4.608-5.04-10.4,1.044-10.4,1.044s-5.76-6.12-10.4-1.08a9.241,9.241,0,0,0-1.8,9.324C1.774,14.7,4.906,19.2,12.718,23.015c7.848-3.78,10.98-8.244,12.2-11.628A9.214,9.214,0,0,0,23.158,2.027Z" transform="translate(21.2 13.6)" fill="#fff"/>
    </g>
    <path id="Combined_Shape-3" data-name="Combined Shape" d="M3.507,56.849A30.125,30.125,0,1,1,30.176,72.9,30.142,30.142,0,0,1,3.507,56.849ZM57.642,11.888A8.093,8.093,0,1,1,64.807,16.2,8.1,8.1,0,0,1,57.642,11.888Z" transform="translate(556.9 569.9) rotate(180)" fill="#8cebe6"/>
    <path id="Combined_Shape-4" data-name="Combined Shape" d="M7.736,92.012a1.7,1.7,0,0,1,.1-2.3l.109-.1L56.355,48.859a1.7,1.7,0,0,1,2.3,2.5l-.108.1L10.13,92.217a1.7,1.7,0,0,1-2.395-.205ZM10.88,76.234a1.7,1.7,0,0,1,.1-2.3l.108-.1L98.324.4a1.7,1.7,0,0,1,2.3,2.5l-.109.1L13.276,76.44a1.7,1.7,0,0,1-2.4-.206ZM.4,72.337a1.7,1.7,0,0,1,.1-2.3l.108-.1L49.019,29.185a1.7,1.7,0,0,1,2.3,2.5l-.108.1L2.795,72.543A1.7,1.7,0,0,1,.4,72.337Z" transform="translate(69 485)" fill="#8cebe6"/>
    <path id="Fill_57" data-name="Fill 57" d="M0,.135H130.759" transform="translate(283.248 278.497)" fill="#fff"/>
    <g id="Group_59" data-name="Group 59" transform="translate(114 205)">
      <rect id="Rectangle-13" data-name="Rectangle" width="224.64" height="158.976" rx="5.76" fill="#8cebe6"/>
      <path id="Fill_88" data-name="Fill 88" d="M0,0V24.431A4.345,4.345,0,0,0,4.32,28.8h216a4.345,4.345,0,0,0,4.319-4.369h0V0Z" transform="translate(0 130.176)" fill="url(#linear-gradient-2)"/>
      <path id="Stroke_93" data-name="Stroke 93" d="M168.852,0a1.152,1.152,0,0,1,.086,2.3l-.086,0H1.152A1.152,1.152,0,0,1,1.066,0l.086,0Z" transform="translate(28.224 144.576)" fill="#d0d2d3"/>
      <path id="Stroke_98" data-name="Stroke 98" d="M128.447,0a1.152,1.152,0,0,1,.086,2.3l-.086,0H1.152A1.152,1.152,0,0,1,1.066,0l.086,0Z" transform="translate(23.388 144.576)" fill="#ef7272"/>
      <path id="Fill_100" data-name="Fill 100" d="M0,6.912V0L6.323,3.456Z" transform="translate(10.368 142.209)" fill="#d0d2d3"/>
      <path id="Stroke_104" data-name="Stroke 104" d="M1.152,0A1.152,1.152,0,0,1,2.3,1.066l0,.086V6.279A1.152,1.152,0,0,1,0,6.365l0-.086V1.152A1.152,1.152,0,0,1,1.152,0Z" transform="translate(204.992 142.302)" fill="#d0d2d3"/>
      <path id="Stroke_108" data-name="Stroke 108" d="M1.152,0A1.152,1.152,0,0,1,2.3,1.066l0,.086V7.839A1.152,1.152,0,0,1,0,7.925l0-.086V1.152A1.152,1.152,0,0,1,1.152,0Z" transform="translate(209.361 140.741)" fill="#d0d2d3"/>
      <path id="Stroke_112" data-name="Stroke 112" d="M1.152,0A1.152,1.152,0,0,1,2.3,1.066l0,.086V10.18a1.152,1.152,0,0,1-2.3.086l0-.086V1.152A1.152,1.152,0,0,1,1.152,0Z" transform="translate(213.731 138.4)" fill="#d0d2d3"/>
      <g id="Group_19" data-name="Group 19" transform="translate(88.128 51.84)">
        <path id="Path-38" data-name="Path" d="M39.172,38.016H9.212A9.236,9.236,0,0,1,0,28.82V9.2A9.236,9.236,0,0,1,9.212,0h29.96a9.236,9.236,0,0,1,9.212,9.2V28.82A9.219,9.219,0,0,1,39.172,38.016Z" transform="translate(0 0)" fill="#ef7272"/>
        <path id="Path-39" data-name="Path" d="M3.65.32,14.908,6.6a2.31,2.31,0,0,1,0,4.073L3.65,16.96A2.432,2.432,0,0,1,0,14.919V2.361A2.432,2.432,0,0,1,3.65.32Z" transform="translate(16.704 9.792)" fill="#fff"/>
      </g>
    </g>
    <path id="Fill_102" data-name="Fill 102" d="M.135,8.01V0" transform="translate(601.665 461.346)" fill="#d0d2d3"/>
    <path id="Fill_106" data-name="Fill 106" d="M.135,10.449V0" transform="translate(608.492 458.908)" fill="#d0d2d3"/>
    <path id="Fill_110" data-name="Fill 110" d="M.135,14.106V0" transform="translate(615.32 455.25)" fill="#d0d2d3"/>
    <g id="Group_21-2" data-name="Group 21" transform="translate(69 477)">
      <g transform="matrix(1, 0, 0, 1, -111, -536)" filter="url(#Rectangle-3)">
        <rect id="Rectangle-14" data-name="Rectangle" width="206" height="82" rx="21" transform="translate(111 536)" fill="#ef7272"/>
      </g>
      <g id="Group_20-2" data-name="Group 20" transform="translate(27 8)">
        <text id="_12_44_2-2" data-name="12,44,2" fill="#fff" font-size="30" font-family="SegoeUI, Segoe UI"><tspan x="29.566" y="32">12,44,2</tspan></text>
        <text id="Likes" transform="translate(46 52)" fill="#fff" font-size="11" font-family="SegoeUI, Segoe UI" letter-spacing="0.545em"><tspan x="0" y="0">LIKES</tspan></text>
      </g>
    </g>
  </g>
</svg>
