<svg xmlns="http://www.w3.org/2000/svg" xmlns:xlink="http://www.w3.org/1999/xlink" width="753.855" height="591.933" viewBox="0 0 753.855 591.933">
  <defs>
    <filter id="Rectangle" x="172.404" y="0" width="405.48" height="582.195" filterUnits="userSpaceOnUse">
      <feOffset dy="-42" input="SourceAlpha"/>
      <feGaussianBlur stdDeviation="26" result="blur"/>
      <feFlood flood-color="#2b4668" flood-opacity="0.09"/>
      <feComposite operator="in" in2="blur"/>
      <feComposite in="SourceGraphic"/>
    </filter>
    <linearGradient id="linear-gradient" x1="0.473" y1="0.251" x2="0.473" y2="0.868" gradientUnits="objectBoundingBox">
      <stop offset="0" stop-color="#fff" stop-opacity="0"/>
      <stop offset="1" stop-color="#fff"/>
    </linearGradient>
    <linearGradient id="linear-gradient-2" y1="0.5" x2="1" y2="0.5" gradientUnits="objectBoundingBox">
      <stop offset="0" stop-color="#fff"/>
      <stop offset="1" stop-color="#fff"/>
    </linearGradient>
    <filter id="Rectangle-2" x="257.925" y="5.262" width="495.93" height="352.71" filterUnits="userSpaceOnUse">
      <feOffset dy="60" input="SourceAlpha"/>
      <feGaussianBlur stdDeviation="43" result="blur-2"/>
      <feFlood flood-color="#131836" flood-opacity="0.243"/>
      <feComposite operator="in" in2="blur-2"/>
      <feComposite in="SourceGraphic"/>
    </filter>
  </defs>
  <g id="Group_63_Copy" data-name="Group 63 Copy" transform="translate(0 12.822)">
    <g id="Group_15" data-name="Group 15" transform="translate(250.404 107.178)">
      <g transform="matrix(1, 0, 0, 1, -250.4, -120)" filter="url(#Rectangle)">
        <g id="Rectangle-3" data-name="Rectangle" transform="translate(250.4 120)" fill="#fff" stroke="#ef7272" stroke-miterlimit="10" stroke-width="2.079">
          <path d="M31.185,0H218.3A31.185,31.185,0,0,1,249.48,31.185V426.2a0,0,0,0,1,0,0H0a0,0,0,0,1,0,0V31.185A31.185,31.185,0,0,1,31.185,0Z" stroke="none"/>
          <path d="M31.185,1.039H218.3a30.146,30.146,0,0,1,30.146,30.146V424.116a1.039,1.039,0,0,1-1.039,1.039H2.079a1.039,1.039,0,0,1-1.039-1.039V31.185A30.146,30.146,0,0,1,31.185,1.039Z" fill="none"/>
        </g>
      </g>
      <path id="Rectangle_Copy_3" data-name="Rectangle Copy 3" d="M31.185,0H218.3A31.185,31.185,0,0,1,249.48,31.185V471.933a0,0,0,0,1,0,0H0a0,0,0,0,1,0,0V31.185A31.185,31.185,0,0,1,31.185,0Z" fill="url(#linear-gradient)"/>
      <path id="Rectangle-4" data-name="Rectangle" d="M0,0H95.865a0,0,0,0,1,0,0V6.93a9.24,9.24,0,0,1-9.24,9.24H9.24A9.24,9.24,0,0,1,0,6.93V0A0,0,0,0,1,0,0Z" transform="translate(77.385 1.155)" fill="#ef7272"/>
    </g>
    <g id="Asset_1" data-name="Asset 1" transform="translate(0 112.795)">
      <path id="Path" d="M445.83,75.075H0Q29.536,69.8,58.976,64.1c31.328-6.036,63.062-11.644,92.741-24.547,16.154-6.986,30.4-18.63,46.932-24.5,19.953-7.129,33.789-.356,51.616,9.006a257.563,257.563,0,0,1,30.348,18.63s47-50.806,84.019-41.562S445.83,75.075,445.83,75.075Z" transform="translate(0 81.47)" fill="#82cbce" opacity="0.3"/>
      <path id="Path-2" data-name="Path" d="M48.173,106.447S27.072,70.5,27.954,53.732a5.007,5.007,0,0,1,6.318-4.58c7.725,2,25.393,8.921,56.484,32.894a5.887,5.887,0,0,0,6.414.668l52.979-25.69-2.384-4.771a8.7,8.7,0,0,0-7.153-4.771c-10.348-.692-33.38-2.147-34.429-1.646s-11.325,10.4-22.675,4.532C72.708,44.787,36.847,10.176,9.595.277A4.768,4.768,0,0,0,3.562,3.02C.63,10.605-3.853,27.565,6.281,43.57c13.686,21.038,37.529,65,37.529,65Z" transform="translate(333.795 23.72)" fill="#ffc5b6"/>
      <ellipse id="Oval" cx="21" cy="26.072" rx="21" ry="26.072" transform="translate(168.41 19.677) rotate(-27.18)" fill="#002060"/>
      <path id="Path-3" data-name="Path" d="M146.411,77.7a39.917,39.917,0,0,0-2.178-3.99c-3.94-6.344-9.87-12.041-16.392-17.35S113.668,46.63,107.213,41.48c-2.689-2.212-5.379-5.114-5.7-8.033-.3-3.353,1.533-6.936,2.178-10.254a18.505,18.505,0,0,0-3.227-14.156A20.116,20.116,0,0,0,92.839,2.03,25.361,25.361,0,0,0,83.332.048c-8.4-.456-16.422,2.374-20.493,7.228-2.528,2.884-3.254,6.016-3.873,9.352s-1.277,6.919-1.909,10.387c-1.237,6.874-2.205,15.554-10.825,20.5-10.367,5.945-23.5,9.042-32.447,16.226-20.52,16.509-17.145,38.566,3.59,54.181A83.473,83.473,0,0,0,26.533,124H136.312c.457-.478.9-.964,1.345-1.451C149.839,108.924,153.5,92.893,146.411,77.7Z" transform="translate(84 7.205)" fill="#002060"/>
      <path id="Path-4" data-name="Path" d="M105.1,14.812S55.884,117.392,4.633,121.275L0,93.976S86.62,27.682,90.752,0Z" transform="translate(209.055 133.445)" fill="#ffd4d4"/>
      <path id="Path-5" data-name="Path" d="M147.711,94.219c9.67-8.13,16.2-21.067,15-33.884S152.664,36.423,143.662,27.7A126.248,126.248,0,0,0,111.652,4.4C104.317.962,95.362.388,87.383.053,74.165-.5,60.828,3.3,48.61,8.35a68.636,68.636,0,0,0-36.82,34.888C6.192,54.477,3.43,66.983,0,79.25v.191s19.553,63.869,36.2,84.506l2.763,35.868h94.052l8.312-95.888a8.408,8.408,0,0,1,2.977-6.743Z" transform="translate(79.695 151.925)" fill="#fdfeff"/>
      <path id="Path-6" data-name="Path" d="M53.13,122.169S41.205,91.651,44.807,72.66a309.748,309.748,0,0,0,3.816-45.517s-8.967-14.808-13-22.865S20.361,2.019,20.361,2.019,1.091,13.4.066,24.433s10.255,90.82,13.88,94.837S32.858,135.432,53.13,122.169Z" transform="translate(138.6 34.115)" fill="#ffd4d4"/>
      <path id="Path-7" data-name="Path" d="M41.922,30.877A56.014,56.014,0,0,1,41.3,12.049c.312-1.892.408-2.8.721-4.216s.408-3.138.745-4.791a11.978,11.978,0,0,1-5.357,7.546,26.951,26.951,0,0,1-18.09,2.9,22.452,22.452,0,0,1-8.432-3.33C6.414,6.923,3.123,4.911,0,0L5.117,33.536,7.52,35c5.766,3.521,10.931,7.33,17.489,9.582a32.23,32.23,0,0,0,11.1,1.6,50,50,0,0,0,5-.335,9.633,9.633,0,0,0,3.94-.838Z" transform="translate(142.065 96.485)" fill="#fca0a1"/>
      <path id="Path-8" data-name="Path" d="M0,25.41,29.585,0,48,5.62,65.835,27.276,61.3,38.564S49.316,37.855,43.658,20.12c0,0-11.22,29.094-33.277,30.7Z" transform="translate(125.895 28.34)" fill="#002060"/>
      <path id="Path-9" data-name="Path" d="M20.815,55.439a20.177,20.177,0,0,1-10.164-2.625A21.261,21.261,0,0,1,.295,37.062a31.992,31.992,0,0,1,4.456-21.1C10.386,6.269,20.309,0,29.991,0A20.177,20.177,0,0,1,40.155,2.626,21.261,21.261,0,0,1,50.512,18.378a31.989,31.989,0,0,1-4.383,21.1C40.42,49.171,30.5,55.439,20.815,55.439Z" transform="translate(98 7.205)" fill="#002060"/>
      <rect id="Rectangle-5" data-name="Rectangle" width="83.16" height="54.285" transform="translate(162.855 239.705)" fill="#60c7e2"/>
      <rect id="Rectangle-6" data-name="Rectangle" width="83.16" height="15.015" transform="translate(162.855 238.55)" fill="#015289"/>
      <rect id="Rectangle-7" data-name="Rectangle" width="83.16" height="3.465" transform="translate(162.855 240.86)" fill="#002060"/>
      <rect id="Rectangle-8" data-name="Rectangle" width="83.16" height="3.465" transform="translate(162.855 247.79)" fill="#002060"/>
      <rect id="Rectangle-9" data-name="Rectangle" width="68.145" height="19.635" transform="translate(169.785 262.805)" fill="#002060"/>
      <path id="Path-10" data-name="Path" d="M1.123,6.054A13.436,13.436,0,0,1,4.016,4.761C5.944,4,7.245,4.461,7.9,6.192s1.205,1.962,2,.715a9.672,9.672,0,0,1,2.266-1.477c.8-.415,4.531-2.054,5.544-1.454l1.422,3.531c-.8,1.546-.819,1.685,0,.392,1.76-2.308,3.374-5.077,6.508-6.047a5.76,5.76,0,0,1,6.146,1.454,3.431,3.431,0,0,1,.553,2.934,3.593,3.593,0,0,1-1.975,2.3l.988,1.223c5.375-5.262,12.63-4.223,19.475-3.185,3.013.438,6.194.508,7.954-2.308.554-.854-.844-1.616-1.374-.785C55.5,6.4,50.9,4.854,48.2,4.461a33.632,33.632,0,0,0-7.448-.415A16.446,16.446,0,0,0,30.215,8.662a.759.759,0,0,0-.031.982.843.843,0,0,0,1,.241C36,7.577,34.048,1.022,29.275.1a9.579,9.579,0,0,0-8.123,2.654c-1.543,1.454-4.821,4.893-4.387,7.039a.824.824,0,0,0,.554.554c3.519.669,5.351-5.747,2.41-7.477S8.21,4.415,6.98,7.669s3.061,3.139,3.736.3A4.108,4.108,0,0,0,8.065,3.538,8.668,8.668,0,0,0,.3,4.715.762.762,0,0,0,.113,5.722a.838.838,0,0,0,1.011.332Z" transform="translate(177.87 266.27)" fill="#fff"/>
      <path id="Path-11" data-name="Path" d="M34.65,10.148,1.7,0A34.012,34.012,0,0,0,0,3.524L33.437,13.86Z" transform="translate(244.86 116.12)" fill="#002060"/>
      <path id="Path-12" data-name="Path" d="M19.635,1.731A34.781,34.781,0,0,0,0,1.131l17.892,5.8Z" transform="translate(267.96 97.64)" fill="#002060"/>
      <path id="Path-13" data-name="Path" d="M33.495,10.753.784,0A36.137,36.137,0,0,0,0,4.433L32.165,15.015Z" transform="translate(242.55 124.205)" fill="#002060"/>
      <path id="Path-14" data-name="Path" d="M32.34,9.658,3.02,0A33.953,33.953,0,0,0,0,3.637L30.913,13.86Z" transform="translate(249.48 108.035)" fill="#002060"/>
      <path id="Path-15" data-name="Path" d="M27.72,7.684,4.413,0A33.021,33.021,0,0,0,0,2.807L26.5,11.55Z" transform="translate(256.41 101.105)" fill="#002060"/>
      <path id="Path-16" data-name="Path" d="M31.185,10.032,0,0A37.364,37.364,0,0,0,.408,4.337L29.962,13.86Z" transform="translate(242.55 133.445)" fill="#002060"/>
      <path id="Path-17" data-name="Path" d="M26.565,8.567,0,0A32.346,32.346,0,0,0,2.4,5.3l23,7.405Z" transform="translate(243.705 142.685)" fill="#002060"/>
      <path id="Path-18" data-name="Path" d="M0,0A35.549,35.549,0,0,0,15.82,10.395l1.505-4.8Z" transform="translate(250.635 155.39)" fill="#002060"/>
      <path id="Path-19" data-name="Path" d="M34.65,10.339,1.492,0C1.2.752.914,1.527.65,2.35S.192,3.9,0,4.7L33.134,15.015Z" transform="translate(242.55 119.585)" fill="#fff"/>
      <path id="Path-20" data-name="Path" d="M33.495,10.206,2.722,0A36.8,36.8,0,0,0,0,4.416l32.146,10.6Z" transform="translate(247.17 111.5)" fill="#fff"/>
      <path id="Path-21" data-name="Path" d="M31.185,8.186,4.431,0A34.791,34.791,0,0,0,0,3.643L29.692,12.7Z" transform="translate(251.79 104.57)" fill="#fff"/>
      <path id="Path-22" data-name="Path" d="M24.255,5.622,7.237,0A32.247,32.247,0,0,0,0,2.835l22.831,7.56Z" transform="translate(261.03 98.795)" fill="#fff"/>
      <path id="Path-23" data-name="Path" d="M23.1,7.04,0,0A34.137,34.137,0,0,0,4.813,6.4L21.656,11.55Z" transform="translate(246.015 148.46)" fill="#015289"/>
      <path id="Path-24" data-name="Path" d="M28.875,9.248,0,0A34.137,34.137,0,0,0,1.406,5.53L27.4,13.86Z" transform="translate(242.55 138.065)" fill="#015289"/>
      <path id="Path-25" data-name="Path" d="M32.34,10.329.2,0A33.737,33.737,0,0,0,.032,5.117l30.837,9.9Z" transform="translate(242.55 127.67)" fill="#015289"/>
      <path id="Path-26" data-name="Path" d="M19.267,4.655,17.8,9.406,16.6,13.135l-1.466,4.75-1.3,3.99-1.466,4.75-1.182,3.753-1.489,4.75L8.369,38.977,6.88,43.727,5.7,47.48l-1.489,4.75L2.931,56.292l-1.489,4.75L0,65.6a34.251,34.251,0,0,0,42.26-22.6A34.478,34.478,0,0,0,20.828,0Z" transform="translate(266.805 99.95)" fill="#60c7e2"/>
      <path id="Path-27" data-name="Path" d="M30.875,37.03A38.7,38.7,0,0,0,22.6,7.835a36.554,36.554,0,0,0-4.9-4.794C16.337,1.914,13.754-.675,11.77.164a2.687,2.687,0,0,0-1.291,3.4c.43,1.1,2.224,2.4,3.132,2.948a18.245,18.245,0,0,1,4.28,4.41c.383.575.741,1.151,1.052,1.726a6.977,6.977,0,0,1,.43.839l-.407-.264h-.215l-.239-.192a25.95,25.95,0,0,0-5.165-3.883c-2.009-1.127-4.5-2.709-6.217-.36s1.315,4.794,3.156,5.92a26.728,26.728,0,0,1,7.365,8.246c.191.288.383.575.55.863a66.128,66.128,0,0,0-10-7.455,4.369,4.369,0,0,0-3.037-.983,3.19,3.19,0,0,0-1.841,4.626,22.36,22.36,0,0,0,5.045,5.034c2.009,1.51,3.85,3.212,5.715,4.794l1.793,1.654c-4.089-2.4-7.891-4.1-12.147-6.112A2.606,2.606,0,0,0,0,27.442c-.143,2.4,2.869,3.787,4.591,4.938a48.4,48.4,0,0,0,5.117,3.092c.5.264,5.476,2.4,5.452,2.4a14.254,14.254,0,0,1-.143,2.013,24.479,24.479,0,0,0,1.6,10.954c3.156,6.5,9.565-2.565,11.263-5.513A23.791,23.791,0,0,0,30.875,37.03Z" transform="translate(287.595 104.57)" fill="#ffd4d4"/>
      <path id="Path-28" data-name="Path" d="M145.024,83.585a2.576,2.576,0,0,0-3.267-.644c-.763.382-10.159,7.583-10.922,7.989,1.359-1.431,11.232-9.777,12.305-11.423a2.528,2.528,0,0,0-.906-3.458,2.576,2.576,0,0,0-3.458.906,32.766,32.766,0,0,1-4.054,4.769,35.77,35.77,0,0,1-3.219,2.766q-.93.644-1.932,1.216c-.763.453-1.574.859-2.385,1.24a37.917,37.917,0,0,0,7.488-9.539,2.552,2.552,0,0,0-4.388-2.576,27.872,27.872,0,0,1-1.693,2.385l-.453.62v.31a28.237,28.237,0,0,1-2.075,2.385,27.425,27.425,0,0,1-2.385,2.146,30.715,30.715,0,0,1-6.868,4.126,46.264,46.264,0,0,1-8.585,2.385,4.531,4.531,0,0,0,.286-.954c.119-.358.262-.715.405-1.049a19.078,19.078,0,0,1,1.1-1.932c1.049-1.86,2.146-3.72,3.267-5.556A7.464,7.464,0,0,0,115,74.666a2.576,2.576,0,0,0-4.769-.739c-2.385,3.72-5.986,6.7-8.728,10.231a18.458,18.458,0,0,0-4.674,13.116,3.768,3.768,0,0,0,.215.859c-6.725,5.556-18.172,9.777-36.415,2.647-11.59-4.531-18.363-17.933-20.986-30.6C36.3,53.991,40.834,38.991,47.607,24.658l.572-1.145A128.228,128.228,0,0,0,57.861,0L8.616,8.394A149.475,149.475,0,0,0,3.083,27.472,122.6,122.6,0,0,0,.293,46.121,88.855,88.855,0,0,0,4.944,82.56,83.657,83.657,0,0,0,22.5,112.3a55.612,55.612,0,0,0,27.663,16.693h.31a58.212,58.212,0,0,0,25.731.167,50.223,50.223,0,0,0,17.242-7.631,56.567,56.567,0,0,0,8.514-7.321,20.556,20.556,0,0,1,9.539-6.081c11.256-3.267,20.032-10.087,28.617-17.695a3.1,3.1,0,0,1,.525-.453,23.251,23.251,0,0,0,4.2-3.148,2.5,2.5,0,0,0,.191-3.243Z" transform="translate(75.075 209.675)" fill="#ffd4d4"/>
      <path id="Path-29" data-name="Path" d="M40.077,64.68S27.362,41.34,0,48.2C3.885,33.855,10.544,17.714,20.654,7.55,23.96,4.2,28.761-.15,33.418.017A23.957,23.957,0,0,1,49.1,5.087a25.129,25.129,0,0,1,8.276,16.046,22.491,22.491,0,0,1-2.051,14.229L50.5,44.736,40.343,64.3Z" transform="translate(83.16 170.405)" fill="#fdfeff"/>
    </g>
    <g id="Group_18" data-name="Group 18" transform="translate(467.075)">
      <path id="Combined_Shape" data-name="Combined Shape" d="M-6.166,108.992A53.006,53.006,0,0,0-28.221,37.351,53,53,0,0,0-99.862,59.406a53.005,53.005,0,0,0,22.055,71.642,52.789,52.789,0,0,0,24.746,6.166A52.992,52.992,0,0,0-6.166,108.992Zm-98.122-62.214a2.513,2.513,0,0,0,2.417-2.6,2.531,2.531,0,0,0-2.218-2.59l-.2-.009h-22.194a2.513,2.513,0,0,0-2.417,2.6,2.532,2.532,0,0,0,2.219,2.59l.2.008Zm7.923-15.233a2.356,2.356,0,0,0,.185-3.213l-.148-.162L-119.534,4.875a2.461,2.461,0,0,0-3.436-.036,2.356,2.356,0,0,0-.185,3.213l.148.162L-99.8,31.507a2.445,2.445,0,0,0,1.737.718A2.446,2.446,0,0,0-96.365,31.544Zm13.987-6.709.01-.2.248-22.194A2.446,2.446,0,0,0-84.569,0a2.455,2.455,0,0,0-2.492,2.192l-.01.2-.247,22.194a2.445,2.445,0,0,0,2.448,2.443h.027A2.454,2.454,0,0,0-82.378,24.836Z" transform="translate(-0.177)" fill="#8cebe6"/>
    </g>
    <path id="Fill_57" data-name="Fill 57" d="M0,.156H151.027" transform="translate(276.332 221.405)" fill="#fff"/>
    <g id="Group_59" data-name="Group 59" transform="translate(279.51 293.595)">
      <rect id="Rectangle-10" data-name="Rectangle" width="324.324" height="229.522" rx="8.316" fill="#8cebe6"/>
      <path id="Fill_88" data-name="Fill 88" d="M0,0V35.272A6.273,6.273,0,0,0,6.236,41.58H318.088a6.272,6.272,0,0,0,6.236-6.308h0V0Z" transform="translate(0 187.942)" fill="url(#linear-gradient-2)"/>
      <path id="Stroke_93" data-name="Stroke 93" d="M243.78,0a1.663,1.663,0,0,1,.124,3.322l-.124,0H1.663A1.663,1.663,0,0,1,1.539,0l.124,0Z" transform="translate(40.748 208.732)" fill="#d0d2d3"/>
      <path id="Stroke_98" data-name="Stroke 98" d="M185.445,0a1.663,1.663,0,0,1,.124,3.322l-.124,0H1.663A1.663,1.663,0,0,1,1.539,0l.124,0Z" transform="translate(33.767 208.732)" fill="#ef7272"/>
      <path id="Fill_100" data-name="Fill 100" d="M0,9.979V0L9.128,4.99Z" transform="translate(14.969 205.314)" fill="#d0d2d3"/>
      <path id="Stroke_104" data-name="Stroke 104" d="M1.663,0A1.663,1.663,0,0,1,3.322,1.539l0,.124v7.4A1.663,1.663,0,0,1,0,9.189l0-.124v-7.4A1.663,1.663,0,0,1,1.663,0Z" transform="translate(295.957 205.448)" fill="#d0d2d3"/>
      <path id="Stroke_108" data-name="Stroke 108" d="M1.663,0A1.663,1.663,0,0,1,3.322,1.539l0,.124v9.655A1.663,1.663,0,0,1,0,11.442l0-.124V1.663A1.663,1.663,0,0,1,1.663,0Z" transform="translate(302.266 203.195)" fill="#d0d2d3"/>
      <path id="Stroke_112" data-name="Stroke 112" d="M1.663,0A1.663,1.663,0,0,1,3.322,1.539l0,.124V14.7A1.663,1.663,0,0,1,0,14.822L0,14.7V1.663A1.663,1.663,0,0,1,1.663,0Z" transform="translate(308.574 199.815)" fill="#d0d2d3"/>
      <path id="Path-30" data-name="Path" d="M56.554,54.886H13.3A13.335,13.335,0,0,1,0,41.609V13.276A13.335,13.335,0,0,1,13.3,0H56.554a13.335,13.335,0,0,1,13.3,13.276V41.609A13.31,13.31,0,0,1,56.554,54.886Z" transform="translate(127.235 74.844)" fill="#ef7272"/>
      <path id="Path-31" data-name="Path" d="M5.269.462,21.524,9.534a3.335,3.335,0,0,1,0,5.881L5.269,24.486A3.511,3.511,0,0,1,0,21.539V3.409A3.511,3.511,0,0,1,5.269.462Z" transform="translate(151.351 88.981)" fill="#fff"/>
    </g>
    <path id="Fill_102" data-name="Fill 102" d="M.156,9.252V0" transform="translate(644.103 432.595)" fill="#d0d2d3"/>
    <path id="Fill_106" data-name="Fill 106" d="M.156,12.068V0" transform="translate(651.989 429.779)" fill="#d0d2d3"/>
    <path id="Fill_110" data-name="Fill 110" d="M.156,16.293V0" transform="translate(659.874 425.554)" fill="#d0d2d3"/>
    <g id="Group" transform="translate(13.86 396.39)">
      <rect id="Rectangle-11" data-name="Rectangle" width="171.518" height="118.503" rx="4.158" fill="#ffcda2"/>
      <path id="Combined_Shape-2" data-name="Combined Shape" d="M54.573,61.331c-.4,0-.718,0-.843-.005a66.691,66.691,0,0,1-29.014-6.941A67.441,67.441,0,0,1,1.77,35.76a8.215,8.215,0,0,1,0-10.189A67.433,67.433,0,0,1,24.716,6.946,66.691,66.691,0,0,1,53.73.005c.124,0,.431-.005.843-.005s.72,0,.844.005A66.691,66.691,0,0,1,84.432,6.946a67.433,67.433,0,0,1,22.945,18.625,8.215,8.215,0,0,1,0,10.189A67.441,67.441,0,0,1,84.432,54.384a66.691,66.691,0,0,1-29.014,6.941C55.292,61.328,54.975,61.331,54.573,61.331ZM33.913,7.856A62.7,62.7,0,0,0,5.271,28.278a3.849,3.849,0,0,0,0,4.775A62.981,62.981,0,0,0,26.7,50.446a63.115,63.115,0,0,0,7.214,3.028,30.648,30.648,0,0,1-7.5-10.12,30.406,30.406,0,0,1,0-25.38A30.647,30.647,0,0,1,33.913,7.856Zm41.321,0h0a30.678,30.678,0,0,1,7.5,10.119,30.413,30.413,0,0,1,0,25.377,30.65,30.65,0,0,1-7.5,10.117,63.141,63.141,0,0,0,7.206-3.021,62.964,62.964,0,0,0,21.428-17.393,3.851,3.851,0,0,0,0-4.775A62.727,62.727,0,0,0,75.234,7.854ZM54.573,19.306a9.333,9.333,0,1,0,9.318,9.333A9.335,9.335,0,0,0,54.573,19.306Z" transform="translate(34.304 27.547)" fill="#fff"/>
    </g>
    <g id="Group_21" data-name="Group 21" transform="translate(386.925 61.44)">
      <g transform="matrix(1, 0, 0, 1, -386.92, -74.26)" filter="url(#Rectangle-2)">
        <rect id="Rectangle-12" data-name="Rectangle" width="237.93" height="94.71" rx="24.255" transform="translate(386.92 74.26)" fill="#fff"/>
      </g>
      <g id="Group_20" data-name="Group 20" transform="translate(31.185 9.24)">
        <text id="_12_44_2" data-name="12,44,2" fill="#4e67ff" font-size="34.65" font-family="SegoeUI, Segoe UI"><tspan x="34.149" y="37">12,44,2</tspan></text>
        <text id="Views" transform="translate(49.665 60.2)" fill="#4e67ff" font-size="12.705" font-family="SegoeUI, Segoe UI" letter-spacing="0.545em"><tspan x="0" y="0">VIEWS</tspan></text>
      </g>
    </g>
  </g>
</svg>
