<svg xmlns="http://www.w3.org/2000/svg" xmlns:xlink="http://www.w3.org/1999/xlink" width="1920" height="548" viewBox="0 0 1920 548">
  <defs>
    <clipPath id="clip-path">
      <rect id="Rectangle" width="1920" height="548" rx="10" transform="translate(0 -548)" fill="none"/>
    </clipPath>
    <linearGradient id="linear-gradient" x1="-0.006" y1="0.958" x2="0.741" y2="0.365" gradientUnits="objectBoundingBox">
      <stop offset="0"/>
      <stop offset="1" stop-opacity="0"/>
    </linearGradient>
  </defs>
  <g id="Group_6" data-name="Group 6" transform="translate(0 548)">
    <rect id="Rectangle-2" data-name="Rectangle" width="1920" height="548" rx="10" transform="translate(0 -548)" fill="none"/>
    <g id="Group_6-2" data-name="Group 6" clip-path="url(#clip-path)">
      <path id="Fill_4" data-name="Fill 4" d="M0,0V754.69q93.118-19.058,237.759,0c144.642,19.06,236-78.216,470.242-78.216s181.281,124.549,428,124.549c114.32,0,206.736,15.028,354.082,69.615Q1637.431,925.226,1920,817.531V0Z" transform="translate(0 -890)" fill="#01b6d8"/>
      <path id="Fill_7" data-name="Fill 7" d="M0,0V808.488q312,120.67,466.722,60.483c154.719-60.185-10.3-54.243,493.279-161.051,337.6-71.6,297.122,52.965,774.4,61.2,107.612,1.857,185.6-.051,185.6-.051V0Z" transform="translate(0 -890)" fill="#00e2d5"/>
      <path id="Fill_10" data-name="Fill 10" d="M0,0V680.427q93.118-16.926,237.759,0c144.642,16.92,269.761,77.616,504,77.616S1077.28,663.5,1324,663.5q246.714,0,596,150.5V0Z" transform="translate(0 -890)" fill="#4e67ff"/>
      <path id="Fill_4-2" data-name="Fill 4" d="M0,0V499.091C222,329,272.109,434.444,383,397c154-52,97.621-73.726,228-149s175.364,6.923,312.687-72.36c63.631-36.737,122.861-52.94,233.175-51.271,73.545,1.112,140.51.64,208.138-124.369Z" transform="translate(0 -890.091)" opacity="0.153" fill="url(#linear-gradient)"/>
    </g>
  </g>
</svg>
