<svg id="Rectangle_Copy_32" data-name="Rectangle Copy 32" xmlns="http://www.w3.org/2000/svg" xmlns:xlink="http://www.w3.org/1999/xlink" width="550" height="374" viewBox="0 0 550 374">
  <defs>
    <clipPath id="clip-path">
      <rect id="Rectangle_Copy_29" data-name="Rectangle Copy 29" width="550" height="374" rx="12" fill="#e9fbff"/>
    </clipPath>
    <clipPath id="clip-path-2">
      <rect id="Rectangle" width="550" height="153" rx="3" fill="none"/>
    </clipPath>
  </defs>
  <rect id="Rectangle_Copy_29-2" data-name="Rectangle Copy 29" width="550" height="374" rx="12" fill="#e9fbff"/>
  <g id="Rectangle_Copy_32-2" data-name="Rectangle Copy 32" clip-path="url(#clip-path)">
    <g id="Group_13" data-name="Group 13">
      <rect id="Rectangle-2" data-name="Rectangle" width="550" height="153" rx="3" fill="none"/>
      <g id="Group_13-2" data-name="Group 13" clip-path="url(#clip-path-2)">
        <g id="Group_13_Copy_3" data-name="Group 13 Copy 3" transform="translate(-4 -36)">
          <path id="Fill_4" data-name="Fill 4" d="M0,0V149.182q26.917-5.513,68.727,0c41.811,5.514,68.219-22.627,135.929-22.627s52.4,36.03,123.718,36.03c33.046,0,59.759,4.347,102.352,20.139Q473.32,198.515,555,167.361V0Z" transform="translate(0 0.579)" fill="#01b6d8"/>
          <path id="Fill_7" data-name="Fill 7" d="M0,0V164.745q90.187,34.908,134.912,17.5c44.724-17.411-2.977-15.692,142.589-46.59,97.588-20.714,85.887,15.322,223.851,17.7,31.107.537,53.649-.015,53.649-.015V0Z" transform="translate(0 0.579)" fill="#00e2d5"/>
          <path id="Fill_10" data-name="Fill 10" d="M0,0V128.277q26.917-4.9,68.727,0c41.811,4.895,77.978,22.453,145.688,22.453s96.986-27.349,168.3-27.349q71.316,0,172.28,43.537V0Z" fill="#4e67ff"/>
        </g>
      </g>
    </g>
  </g>
</svg>
