<svg id="Group_3" data-name="Group 3" xmlns="http://www.w3.org/2000/svg" width="1920" height="671.765" viewBox="0 0 1920 671.765">
  <path id="Fill_1" data-name="Fill 1" d="M.093,590.546C26.323,638,90.724,652.4,143.193,638.755s96.309-48.562,140-80.679S374.8,494.831,428.868,490.9c62.336-4.524,122.018,27.9,184.5,29.256,79.635,1.722,155.666-47.031,234.693-37.046C963.552,497.708,1031.6,627.753,1142.7,662.5c104.088,32.554,212.912-26.518,303.791-86.825s191.457-127.233,299.341-111.254C1827.667,476.544,1899.3,540.99,1920,621.1V0H0Z" transform="translate(1920 671.765) rotate(180)" fill="#f2f4ff"/>
  <path id="Fill_4" data-name="Fill 4" d="M1920,432.743c-28.453,81.5-120.454,136.065-205.764,122.9-62.23-9.6-115.429-49.685-175.76-67.716-114.348-34.176-234.947,14.048-347.12,54.8s-242.986,73.143-345.8,12.532C785.867,520.07,737.974,454.851,668.724,452.47c-46.1-1.583-88.6,26.419-134.638,29.16-57.536,3.43-108.933-32.22-162.068-54.562C250.794,376.1,102.345,397.09,0,479.671V0H1920Z" transform="translate(1920 671.765) rotate(180)" fill="#e1fcfb"/>
  <path id="Fill_7" data-name="Fill 7" d="M0,375.942c89.682,51.628,225.868,67.912,326.684,44.627,75.607-17.459,148.286-56.353,225.726-51.438,72.985,4.626,137.048,47.346,200.34,84s136.5,69.348,207.472,51.715c76.16-18.927,128.561-90.7,202.054-118.233,77.112-28.883,163.67-4.426,238.9,29.057S1549.723,492.2,1631.5,501.781c113.167,13.262,231.562-46.239,288.5-144.991V0H0Z" transform="translate(1920 671.765) rotate(180)" fill="#f0fdff"/>
  <path id="Fill_10" data-name="Fill 10" d="M1920,351.679c-67.956-40.444-154.791-33.031-229.657-7.584s-143.344,67.077-217.8,93.722-160.488,36.9-230.307-.229c-64.745-34.428-109.187-106.005-180.728-122.07-56.982-12.8-115.175,13.88-164.468,45.212s-96.92,68.863-153.938,81.494c-66.8,14.794-136.1-7.011-198.827-34.332s-124.167-60.82-191.8-71.11c-62.9-9.573-127.1,1.619-190.611-2.092S29.445,307.085,0,250.663L0,0H1920Z" transform="translate(1920 671.765) rotate(180)" fill="#fff"/>
</svg>
