<?xml version="1.0" encoding="UTF-8"?>
<svg width="1920px" height="890px" viewBox="0 0 1920 890" version="1.1" xmlns="http://www.w3.org/2000/svg" xmlns:xlink="http://www.w3.org/1999/xlink">
    <title>Group 6</title>
    <defs>
        <path d="M10,0 L1910,0 C1915.52285,-1.01453063e-15 1920,4.4771525 1920,10 L1920,880 C1920,885.522847 1915.52285,890 1910,890 L10,890 C4.4771525,890 6.76353751e-16,885.522847 0,880 L0,10 C-6.76353751e-16,4.4771525 4.4771525,1.01453063e-15 10,0 Z" id="path-1"></path>
        <linearGradient x1="-0.567193223%" y1="56.1250207%" x2="74.1271749%" y2="48.1949927%" id="linearGradient-3">
            <stop stop-color="#000000" offset="0%"></stop>
            <stop stop-color="#000000" stop-opacity="0" offset="100%"></stop>
        </linearGradient>
    </defs>
    <g id="Page-1" stroke="none" stroke-width="1" fill="none" fill-rule="evenodd">
        <g id="Group-6" transform="translate(960.000000, 445.000000) scale(1, -1) translate(-960.000000, -445.000000) ">
            <mask id="mask-2" fill="white">
                <use xlink:href="#path-1"></use>
            </mask>
            <g id="Rectangle" transform="translate(960.000000, 445.000000) scale(1, -1) translate(-960.000000, -445.000000) "></g>
            <path d="M0,1 L0,755.690298 C62.0788551,742.985133 141.334335,742.985133 237.759106,755.690298 C382.401151,774.750728 473.760455,677.474698 708.001604,677.474698 C942.242753,677.474698 889.282716,802.023308 1135.99929,802.023308 C1250.31943,802.023308 1342.73486,817.051187 1490.08076,871.638208 C1588.31463,908.029912 1731.62186,890.327261 1920,818.531328 L1920,1 L0,1 Z" id="Fill-4" fill="#01B6D8" mask="url(#mask-2)" transform="translate(960.000000, 445.500000) scale(1, -1) translate(-960.000000, -445.500000) "></path>
            <path d="M0,1 L0,809.487692 C207.999491,889.934212 363.574338,910.095143 466.722097,869.970484 C621.441292,809.785111 456.424923,815.727031 960.001222,708.919035 C1297.60282,637.314272 1257.1231,761.884447 1734.40395,770.116279 C1842.01578,771.972995 1920,770.065632 1920,770.065632 L1920,756.285207 L1920,1 L0,1 Z" id="Fill-7" fill="#00E2D5" mask="url(#mask-2)" transform="translate(960.000000, 445.500000) scale(1, -1) translate(-960.000000, -445.500000) "></path>
            <path d="M0,76 L0,756.427421 C62.0788551,745.143676 141.334335,745.143676 237.759106,756.427421 C382.401151,773.347867 507.519637,834.043244 741.760786,834.043244 C976.001935,834.043244 1077.27948,739.501803 1324.00339,739.501803 C1488.47947,739.501803 1687.14745,789.668443 1920,890 L1920,76 L0,76 Z" id="Fill-10" fill="#4E67FF" mask="url(#mask-2)" transform="translate(960.000000, 483.000000) scale(1, -1) translate(-960.000000, -483.000000) "></path>
            <path d="M0,391 L0,890.090777 C222,720 272.108742,825.443801 383,788 C537,736 480.620968,714.274369 611,639 C741.379032,563.725631 786.363779,645.923195 923.686653,566.639796 C987.317445,529.902542 1046.54741,513.699522 1156.86167,515.368538 C1230.40651,516.48049 1297.37183,516.008973 1365,391 L0,391 Z" id="Fill-4" fill="url(#linearGradient-3)" opacity="0.153041295" mask="url(#mask-2)" transform="translate(682.500000, 640.545389) scale(1, -1) translate(-682.500000, -640.545389) "></path>
        </g>
    </g>
</svg>