<svg xmlns="http://www.w3.org/2000/svg" xmlns:xlink="http://www.w3.org/1999/xlink" width="240" height="60" viewBox="0 0 240 60">
  <defs>
    <clipPath id="clip-path">
      <rect id="Rectangle_Copy_2" data-name="Rectangle Copy 2" width="240" height="60" rx="30" fill="#4e67ff"/>
    </clipPath>
  </defs>
  <g id="Group_43" data-name="Group 43" clip-path="url(#clip-path)">
    <path id="Combined_Shape" data-name="Combined Shape" d="M5.66,17.329A31.093,31.093,0,0,1,.909,12.214c-.1-.127-.259-.358-.469-.669l-.009-.013L0,10.892l.431-.64c.038-.057.321-.476.475-.678A31.131,31.131,0,0,1,5.66,4.456C8.585,2.02,11.572.785,14.54.785a13.658,13.658,0,0,1,8.47,3.338,6.16,6.16,0,1,1,5.077,8.2,30.831,30.831,0,0,1-4.667,5.005C20.493,19.765,17.506,21,14.54,21S8.585,19.765,5.66,17.329Zm-2.9-6.437c3.974,5.191,7.935,7.824,11.777,7.824,3.666,0,7.444-2.4,11.236-7.134a6.13,6.13,0,0,1-3.1-4.732C19.93,4.338,17.205,3.069,14.54,3.069,10.7,3.069,6.737,5.7,2.763,10.892Zm23.3-5.883-.538.538a.448.448,0,0,0,0,.634l2.168,2.169.531.53a.449.449,0,0,0,.634,0l4.215-4.215a.449.449,0,0,0,0-.634L32.54,3.5a.449.449,0,0,0-.634,0l-3.36,3.36L26.695,5.009a.449.449,0,0,0-.634,0ZM8.069,10.892a6.471,6.471,0,1,1,6.47,6.51A6.5,6.5,0,0,1,8.069,10.892Zm2.271,0a4.2,4.2,0,1,0,4.2-4.225A4.217,4.217,0,0,0,10.339,10.892Zm1.986,0a2.214,2.214,0,1,1,2.214,2.227A2.221,2.221,0,0,1,12.326,10.893Z" transform="translate(25 18)" fill="#fff"/>
  </g>
</svg>
